<?xml version="1.0" standalone="no"?>
<!DOCTYPE svg PUBLIC "-//W3C//DTD SVG 1.1//EN" "http://www.w3.org/Graphics/SVG/1.1/DTD/svg11.dtd" >
<svg xmlns="http://www.w3.org/2000/svg" xmlns:xlink="http://www.w3.org/1999/xlink" version="1.1">
<metadata>
Created by FontForge 20170731 at Fri Jul 13 22:56:36 2007
 By Aleksey,,,
Copyright (C) 2002, 2007 Hoefler &#38; Frere-Jones. http://www.typography.com
</metadata>
<defs>
<font id="ChronicleDisplay-LightItalic" horiz-adv-x="430" >
  <font-face 
    font-family="Chronicle Display Light"
    font-weight="300"
    font-style="italic"
    font-stretch="normal"
    units-per-em="1000"
    panose-1="0 0 0 0 0 0 0 0 0 0"
    ascent="800"
    descent="-200"
    x-height="456"
    cap-height="697"
    bbox="-171 -256 1126 1130"
    underline-thickness="50"
    underline-position="-200"
    slope="-12"
    unicode-range="U+0020-FB04"
  />
<missing-glyph horiz-adv-x="500" 
d="M0 -200v1000h500v-1000h-500zM71 750l179 -390l179 390h-358zM50 -76l172 376l-172 376v-752zM450 676l-172 -376l172 -376v752zM250 240l-179 -390h358z" />
    <glyph glyph-name="f_f" unicode="ff" horiz-adv-x="565" 
d="M392 713q46 0 76.5 -16.5t36.5 -44.5q54 71 133 71q44 0 73.5 -20.5t29.5 -51.5q0 -21 -12.5 -36t-34.5 -15q-21 0 -34 13.5t-13 33.5q0 30 23 48q-12 15 -36 15q-73 0 -109 -155l-24 -100h119l-5 -14h-115l-80 -375q-17 -82 -39 -137t-47 -82t-48 -37t-51 -10
q-38 0 -60.5 15.5t-22.5 40.5q0 18 13 32t32 14q21 0 32.5 -13t11.5 -31q0 -25 -21 -40q5 -4 15 -4q55 0 87 146l104 481h-192l-79 -373q-18 -83 -39.5 -138t-47.5 -82.5t-51.5 -37.5t-58.5 -10q-42 0 -69 17t-27 46q0 20 13 34t33 14q21 0 33 -13t12 -33q0 -26 -23 -42
q11 -9 31 -9q33 0 55.5 35t45.5 138l98 454h-109l5 14h107l8 35q31 121 86 172t135 51zM429 455l11 45q12 51 30 90h-9q-21 0 -34 13.5t-13 33.5q0 30 23 48q-12 15 -47 15q-51 0 -82 -35.5t-52 -121.5l-21 -88h194z" />
    <glyph glyph-name="fi" unicode="fi" horiz-adv-x="550" 
d="M234 441l-79 -373q-18 -83 -39.5 -138t-47.5 -82.5t-51.5 -37.5t-58.5 -10q-42 0 -69 17t-27 47q0 20 13 33.5t33 13.5q21 0 33 -13t12 -33q0 -26 -23 -42q11 -9 31 -9q33 0 55.5 35t45.5 138l98 454h-109l5 14h107l10 43q32 124 88.5 174.5t134.5 50.5q64 0 101 -27.5
t37 -64.5q0 -22 -14 -38t-35 -16q-23 0 -36 13.5t-13 35.5q0 31 26 50q-18 34 -70 34t-84 -41t-53 -129l-20 -85h152l127 6l-113 -364q-9 -27 -9 -43q0 -24 22.5 -31t77.5 -2v-6q-60 -24 -106 -24q-70 0 -70 60q0 18 9 48l106 342h-197z" />
    <glyph glyph-name="fl" unicode="fl" horiz-adv-x="548" 
d="M234 441l-79 -373q-18 -83 -39.5 -138t-47.5 -82.5t-51.5 -37.5t-58.5 -10q-42 0 -69 17t-27 47q0 20 13 33.5t33 13.5q21 0 33 -13t12 -33q0 -26 -23 -42q11 -9 31 -9q33 0 55.5 35t45.5 138l98 454h-109l5 14h107l10 43q57 225 219 225q50 0 83 -18l100 14l5 -2
l-180 -620q-7 -28 -7 -39q0 -26 23.5 -34t80.5 -2v-7q-60 -24 -110 -24q-70 0 -70 61q0 18 8 47l101 342h-192zM430 455l33 126q-18 2 -29 15.5t-11 32.5q0 33 26 52q-16 29 -62 29q-49 0 -79.5 -40t-51.5 -128l-21 -87h195z" />
    <glyph glyph-name="f_f_i" unicode="ffi" horiz-adv-x="785" 
d="M662 723q64 0 101 -27.5t37 -64.5q0 -22 -14 -38t-35 -16q-23 0 -36 13.5t-13 35.5q0 31 26 50q-18 34 -72 34q-51 0 -82 -38t-51 -125l-22 -92h152l127 6l-113 -364q-9 -27 -9 -43q0 -24 22.5 -31t77.5 -2v-6q-60 -24 -106 -24q-70 0 -70 60q0 18 9 48l106 342h-197
l-80 -375q-17 -82 -39 -137t-47 -82t-48 -37t-51 -10q-38 0 -60.5 15.5t-22.5 40.5q0 18 13 32t32 14q21 0 32.5 -13t11.5 -31q0 -25 -21 -40q5 -4 15 -4q55 0 87 146l104 481h-192l-79 -373q-18 -83 -39.5 -138t-47.5 -82.5t-51.5 -37.5t-58.5 -10q-42 0 -69 17t-27 46
q0 20 13 34t33 14q21 0 33 -13t12 -33q0 -26 -23 -42q11 -9 31 -9q33 0 55.5 35t45.5 138l98 454h-109l5 14h107l8 35q31 121 86 172t135 51q46 0 77 -17t36 -45q57 72 157 72zM440 502q13 50 30 88h-9q-21 0 -34 13.5t-13 33.5q0 30 23 48q-12 15 -47 15q-51 0 -82 -35.5
t-52 -121.5l-21 -88h194z" />
    <glyph glyph-name="f_f_l" unicode="ffl" horiz-adv-x="814" 
d="M163 455l8 35q31 121 86 172t135 51q46 0 76.5 -16.5t36.5 -44.5q56 71 151 71q50 0 85 -18l100 14l5 -2l-180 -620q-7 -28 -7 -39q0 -26 23.5 -34t80.5 -2v-7q-60 -24 -110 -24q-70 0 -70 61q0 18 8 47l101 342h-192l-80 -375q-17 -82 -38.5 -137t-47 -82t-49.5 -37
t-54 -10q-39 0 -64.5 16t-25.5 43q0 19 13 33t33 14t32 -13.5t12 -31.5q0 -26 -21 -41q10 -6 21 -6q29 0 51 31t40 115l104 481h-192l-79 -373q-18 -83 -39.5 -138t-47.5 -82.5t-51.5 -37.5t-58.5 -10q-42 0 -69 17t-27 46q0 20 13 34t33 14q21 0 33 -13t12 -33
q0 -26 -23 -42q11 -9 31 -9q33 0 55.5 35t45.5 138l98 454h-109l5 14h107zM696 455l33 126q-18 2 -29 15.5t-11 32.5q0 33 26 52q-16 29 -63 29q-48 0 -78 -37t-50 -123l-23 -95h195zM439 498q10 46 30 92h-8q-21 0 -34 13.5t-13 33.5q0 30 23 48q-12 15 -47 15
q-51 0 -82 -35.5t-52 -121.5l-21 -88h194z" />
    <glyph glyph-name="f_b" unicode="fb" horiz-adv-x="795" 
d="M484 384l2 -2q75 83 155 83q53 0 86.5 -38t33.5 -108q0 -71 -37.5 -146.5t-106 -129t-144.5 -53.5q-92 0 -154 58l60 207l47 186h-192l-79 -373q-18 -83 -39.5 -138t-47.5 -82.5t-51.5 -37.5t-58.5 -10q-42 0 -69 17t-27 47q0 20 13 33.5t33 13.5q21 0 33 -13t12 -33
q0 -26 -23 -42q11 -9 31 -9q33 0 55.5 35t45.5 138l98 454h-109l5 14h107l10 43q57 225 219 225q49 0 83 -18l98 14l5 -2zM430 455l32 126q-39 6 -39 48q0 33 26 52q-16 29 -62 29q-49 0 -79.5 -40t-51.5 -128l-21 -87h195zM479 4q81 0 142 99.5t61 205.5q0 53 -22.5 82
t-66.5 29q-56 0 -113 -57l-81 -314q23 -45 80 -45z" />
    <glyph glyph-name="f_h" unicode="fh" horiz-adv-x="809" 
d="M234 441l-79 -373q-18 -83 -39.5 -138t-47.5 -82.5t-51.5 -37.5t-58.5 -10q-42 0 -69 17t-27 47q0 20 13 33.5t33 13.5q21 0 33 -13t12 -33q0 -26 -23 -42q11 -9 31 -9q33 0 55.5 35t45.5 138l98 454h-109l5 14h107l10 43q57 225 219 225q49 0 83 -18l98 14l5 -2
l-102 -356l2 -2q114 105 194 105q44 0 67.5 -23t23.5 -66q0 -29 -12 -66l-71 -217q-9 -27 -9 -44q0 -23 20 -29t70 -1v-6q-53 -21 -91 -21q-73 0 -73 55q0 22 10 49l68 211q10 35 10 56q0 54 -59 54q-60 0 -154 -76l-83 -340h-82l48 162l71 279h-192zM430 455l32 126
q-39 6 -39 48q0 33 26 52q-16 29 -62 29q-49 0 -79.5 -40t-51.5 -128l-21 -87h195z" />
    <glyph glyph-name="f_j" unicode="fj" horiz-adv-x="533" 
d="M234 441l-79 -373q-18 -83 -39.5 -138t-47.5 -82.5t-51.5 -37.5t-58.5 -10q-42 0 -69 17t-27 47q0 20 13 33.5t33 13.5q21 0 33 -13t12 -33q0 -26 -23 -42q11 -9 31 -9q33 0 55.5 35t45.5 138l98 454h-109l5 14h107l10 43q32 124 88.5 174.5t134.5 50.5q64 0 101 -27.5
t37 -64.5q0 -22 -14 -38t-35 -16q-23 0 -36 13.5t-13 35.5q0 31 26 50q-18 34 -70 34t-84 -41t-53 -129l-20 -85h151l123 6l-112 -451q-29 -116 -67 -163t-104 -47q-36 0 -60.5 17.5t-24.5 43.5q0 19 12.5 33t31.5 14t30 -13t11 -30q0 -29 -23 -40q14 -11 24 -11
q26 0 46.5 33t41.5 122l116 472h-197z" />
    <glyph glyph-name="f_k" unicode="fk" horiz-adv-x="765" 
d="M234 441l-79 -373q-18 -83 -39.5 -138t-47.5 -82.5t-51.5 -37.5t-58.5 -10q-42 0 -69 17t-27 47q0 20 13 33.5t33 13.5q21 0 33 -13t12 -33q0 -26 -23 -42q11 -9 31 -9q33 0 55.5 35t45.5 138l98 454h-109l5 14h107l10 43q57 225 219 225q49 0 83 -18l98 14l5 -2
l-124 -449h33q33 0 62.5 31t48 67.5t47 67.5t60.5 31q26 0 40.5 -15t14.5 -37q0 -26 -13.5 -41t-35.5 -15q-19 0 -32 11.5t-13 31.5q0 12 7 26q-15 -4 -38 -37.5t-51 -72t-55 -50.5v-2q76 -7 99.5 -31.5t23.5 -74.5q0 -13 -3 -56.5t-3 -58.5q0 -21 17 -29t69 -5v-6
q-24 -12 -87 -12q-46 0 -61 13t-15 45q0 22 3 59.5t3 49.5q0 56 -16.5 77t-57.5 21h-49l-63 -256h-82l48 162l71 279h-192zM430 455l32 126q-39 6 -39 48q0 33 26 52q-16 29 -62 29q-49 0 -79.5 -40t-51.5 -128l-21 -87h195z" />
    <glyph glyph-name="f_f_b" unicode="ffb" horiz-adv-x="1061" 
d="M656 723q50 0 85 -18l98 14l5 -2l-94 -333l2 -2q75 83 155 83q53 0 86.5 -38t33.5 -108q0 -71 -37.5 -146.5t-106 -129t-144.5 -53.5q-92 0 -154 58l60 207l47 186h-192l-80 -375q-17 -82 -38.5 -137t-47 -82t-49.5 -37t-54 -10q-39 0 -64.5 16t-25.5 43q0 19 13 33
t33 14t32 -13.5t12 -31.5q0 -26 -21 -41q10 -6 21 -6q29 0 51 31t40 115l104 481h-192l-79 -373q-18 -83 -39.5 -138t-47.5 -82.5t-51.5 -37.5t-58.5 -10q-42 0 -69 17t-27 46q0 20 13 34t33 14q21 0 33 -13t12 -33q0 -26 -23 -42q11 -9 31 -9q33 0 55.5 35t45.5 138l98 454
h-109l5 14h107l8 35q31 121 86 172t135 51q46 0 76.5 -16.5t36.5 -44.5q56 71 151 71zM750 4q81 0 142 99.5t61 205.5q0 53 -22.5 82t-66.5 29q-56 0 -113 -57l-81 -314q22 -45 80 -45zM696 455l32 126q-39 7 -39 48q0 33 26 52q-16 29 -63 29q-48 0 -78 -37t-50 -123
l-23 -95h195zM439 498q10 46 30 92h-8q-21 0 -34 13.5t-13 33.5q0 30 23 48q-12 15 -47 15q-51 0 -82 -35.5t-52 -121.5l-21 -88h194z" />
    <glyph glyph-name="f_f_h" unicode="ffh" horiz-adv-x="1066" 
d="M163 455l8 35q31 121 86 172t135 51q46 0 76.5 -16.5t36.5 -44.5q56 71 151 71q50 0 85 -18l98 14l5 -2l-102 -356l2 -2q114 105 194 105q44 0 67.5 -23t23.5 -66q0 -29 -12 -66l-71 -217q-9 -27 -9 -44q0 -23 20 -29t70 -1v-6q-53 -21 -91 -21q-73 0 -73 55q0 22 10 49
l68 211q10 35 10 56q0 54 -59 54q-60 0 -154 -76l-83 -340h-82l48 162l71 279h-192l-80 -375q-17 -82 -38.5 -137t-47 -82t-49.5 -37t-54 -10q-39 0 -64.5 16t-25.5 43q0 19 13 33t33 14t32 -13.5t12 -31.5q0 -26 -21 -41q10 -6 21 -6q29 0 51 31t40 115l104 481h-192
l-79 -373q-18 -83 -39.5 -138t-47.5 -82.5t-51.5 -37.5t-58.5 -10q-42 0 -69 17t-27 46q0 20 13 34t33 14q21 0 33 -13t12 -33q0 -26 -23 -42q11 -9 31 -9q33 0 55.5 35t45.5 138l98 454h-109l5 14h107zM696 455l32 126q-39 7 -39 48q0 33 26 52q-16 29 -63 29
q-48 0 -78 -37t-50 -123l-23 -95h195zM439 498q10 46 30 92h-8q-21 0 -34 13.5t-13 33.5q0 30 23 48q-12 15 -47 15q-51 0 -82 -35.5t-52 -121.5l-21 -88h194z" />
    <glyph glyph-name="f_f_j" unicode="ffj" horiz-adv-x="799" 
d="M163 455l8 35q31 121 86 172t135 51q46 0 77 -17t36 -45q57 72 157 72q64 0 101 -27.5t37 -64.5q0 -22 -14 -38t-35 -16q-23 0 -36 13.5t-13 35.5q0 31 26 50q-18 34 -72 34q-51 0 -82 -38t-51 -125l-22 -92h151l123 6l-112 -451q-29 -116 -67 -163t-104 -47
q-36 0 -60.5 17.5t-24.5 43.5q0 19 12.5 33t31.5 14t30 -13t11 -30q0 -29 -23 -40q14 -11 24 -11q26 0 46.5 33t41.5 122l116 472h-197l-80 -375q-17 -82 -39 -137t-47 -82t-48 -37t-51 -10q-38 0 -60.5 15.5t-22.5 40.5q0 18 13 32t32 14q21 0 32.5 -13t11.5 -31
q0 -25 -21 -40q5 -4 15 -4q55 0 87 146l104 481h-192l-79 -373q-18 -83 -39.5 -138t-47.5 -82.5t-51.5 -37.5t-58.5 -10q-42 0 -69 17t-27 46q0 20 13 34t33 14q21 0 33 -13t12 -33q0 -26 -23 -42q11 -9 31 -9q33 0 55.5 35t45.5 138l98 454h-109l5 14h107zM440 502
q13 50 30 88h-9q-21 0 -34 13.5t-13 33.5q0 30 23 48q-12 15 -47 15q-51 0 -82 -35.5t-52 -121.5l-21 -88h194z" />
    <glyph glyph-name="f_f_k" unicode="ffk" horiz-adv-x="1031" 
d="M163 455l8 35q31 121 86 172t135 51q46 0 76.5 -16.5t36.5 -44.5q56 71 151 71q50 0 85 -18l98 14l5 -2l-124 -449h33q33 0 62.5 31t48 67.5t47 67.5t60.5 31q26 0 40.5 -15t14.5 -37q0 -26 -13.5 -41t-35.5 -15q-19 0 -32 11.5t-13 31.5q0 12 7 26q-15 -4 -38 -37.5
t-51 -72t-55 -50.5v-2q76 -7 99.5 -31.5t23.5 -74.5q0 -13 -3 -56.5t-3 -58.5q0 -21 17 -29t69 -5v-6q-24 -12 -87 -12q-46 0 -61 13t-15 45q0 22 3 59.5t3 49.5q0 56 -16.5 77t-57.5 21h-49l-63 -256h-82l48 162l71 279h-192l-80 -375q-17 -82 -38.5 -137t-47 -82
t-49.5 -37t-54 -10q-39 0 -64.5 16t-25.5 43q0 19 13 33t33 14t32 -13.5t12 -31.5q0 -26 -21 -41q10 -6 21 -6q29 0 51 31t40 115l104 481h-192l-79 -373q-18 -83 -39.5 -138t-47.5 -82.5t-51.5 -37.5t-58.5 -10q-42 0 -69 17t-27 46q0 20 13 34t33 14q21 0 33 -13t12 -33
q0 -26 -23 -42q11 -9 31 -9q33 0 55.5 35t45.5 138l98 454h-109l5 14h107zM696 455l32 126q-39 7 -39 48q0 33 26 52q-16 29 -63 29q-48 0 -78 -37t-50 -123l-23 -95h195zM439 498q10 46 30 92h-8q-21 0 -34 13.5t-13 33.5q0 30 23 48q-12 15 -47 15q-51 0 -82 -35.5
t-52 -121.5l-21 -88h194z" />
    <glyph glyph-name=".notdef" horiz-adv-x="500" 
d="M0 -200v1000h500v-1000h-500zM71 750l179 -390l179 390h-358zM50 -76l172 376l-172 376v-752zM450 676l-172 -376l172 -376v752zM250 240l-179 -390h358z" />
    <glyph glyph-name=".null" horiz-adv-x="0" 
 />
    <glyph glyph-name="nonmarkingreturn" horiz-adv-x="333" 
 />
    <glyph glyph-name="space" unicode=" " horiz-adv-x="192" 
 />
    <glyph glyph-name="exclam" unicode="!" horiz-adv-x="270" 
d="M139 179l-13 3q27 128 53 289.5t33 190.5q15 63 53 63q41 0 41 -49q0 -25 -20.5 -85t-66 -183.5t-80.5 -228.5zM89 -16q-23 0 -39 16t-16 38t16 38t39 16t39 -15.5t16 -37.5q0 -23 -16 -39t-39 -16z" />
    <glyph glyph-name="quotedbl" unicode="&#x22;" horiz-adv-x="427" 
d="M107 442l-7 4l44 89q64 126 78 144q16 21 36 21q16 0 26.5 -10t10.5 -24q0 -19 -23 -49t-97 -105zM292 442l-7 4l44 89q64 126 78 144q16 21 36 21q16 0 26.5 -10t10.5 -24q0 -19 -23 -49t-97 -105z" />
    <glyph glyph-name="numbersign" unicode="#" horiz-adv-x="703" 
d="M391 703l-71 -228h214l71 228h21l-71 -228h158l-1 -17h-162l-79 -256h171l-1 -17h-175l-70 -228h-21l70 228h-214l-70 -228h-21l70 228h-157l1 17h161l79 256h-169l1 17h173l71 228h21zM315 458l-79 -256h214l79 256h-214z" />
    <glyph glyph-name="dollar" unicode="$" horiz-adv-x="565" 
d="M207 -68l-21 6l25 84q-72 9 -120.5 45t-48.5 86q0 28 17 48t45 20q22 0 35.5 -14t13.5 -33q0 -22 -14.5 -38.5t-37.5 -23.5q27 -59 117 -74l79 265l-5 3q-76 35 -113 67.5t-37 87.5q0 72 67 126t168 54q3 0 10.5 -0.5t11.5 -0.5l23 76l20 -5l-22 -74q63 -10 107 -45
t44 -79q0 -26 -16.5 -44.5t-40.5 -18.5q-20 0 -33.5 13t-13.5 33q0 19 11.5 35t33.5 22q-21 54 -97 70l-77 -254l13 -5q37 -18 57 -29.5t43.5 -30.5t34 -42.5t10.5 -53.5q0 -73 -68 -131t-169 -58q-18 0 -26 1zM421 173q0 41 -26 68.5t-80 53.5l-79 -260q8 -1 23 -1
q78 0 120 41t42 98zM215 500q-1 -41 26 -68.5t80 -53.5l75 248q-4 0 -10.5 0.5t-9.5 0.5q-65 0 -112.5 -33.5t-48.5 -93.5z" />
    <glyph glyph-name="percent" unicode="%" horiz-adv-x="808" 
d="M417 612q34 -19 83 -19q98 0 209 96h20l-579 -715h-37l549 656l-2 3q-79 -61 -174 -61q-38 0 -64 7v-5q0 -59 -30 -125t-83 -114t-111 -48q-55 0 -84 31.5t-29 84.5q0 96 76.5 183.5t166.5 87.5q70 0 89 -62zM549 -14q-55 0 -84 31.5t-29 84.5q0 96 76.5 183.5
t166.5 87.5q45 0 69.5 -26t24.5 -74q0 -93 -69 -190t-155 -97zM559 5q47 0 93.5 45.5t73.5 106.5t27 110q0 77 -60 77q-67 0 -129 -88t-62 -171q0 -80 57 -80zM401 586q-40 15 -75 56q-64 -10 -119.5 -94t-55.5 -162q0 -80 57 -80q47 0 93.5 45.5t73.5 106.5t27 110
q0 12 -1 18z" />
    <glyph glyph-name="ampersand" unicode="&#x26;" horiz-adv-x="701" 
d="M342 377q63 32 94 84t31 110q0 40 -18.5 61.5t-50.5 21.5q-47 0 -82 -37.5t-35 -95.5q0 -62 61 -144zM273 343q-156 -69 -156 -200q0 -53 31 -86t86 -33q73 0 157 88q-35 121 -118 231zM449 180q57 86 101 128.5t85 42.5q28 0 44.5 -16t16.5 -42q0 -23 -14.5 -39.5
t-36.5 -16.5q-20 0 -34 13.5t-14 32.5q0 14 9 30l-2 3q-30 -9 -64 -43t-85 -106q23 -78 49 -105.5t68 -27.5q28 0 70 32l6 -7q-34 -40 -61 -58t-57 -18q-99 0 -134 117q-53 -60 -101 -88.5t-104 -28.5q-79 0 -120.5 42.5t-41.5 101.5q0 84 67.5 140.5t170.5 84.5
q-27 40 -38 67.5t-11 63.5q0 74 56 128t129 54q61 0 97.5 -32t36.5 -80q0 -58 -50.5 -105.5t-137.5 -80.5q70 -94 100 -187z" />
    <glyph glyph-name="quotesingle" unicode="'" horiz-adv-x="243" 
d="M107 442l-7 4l44 89q64 126 78 144q16 21 36 21q16 0 26.5 -10t10.5 -24q0 -19 -23 -49t-97 -105z" />
    <glyph glyph-name="parenleft" unicode="(" horiz-adv-x="383" 
d="M312 -166q-99 50 -164 145.5t-65 220.5q0 102 41.5 198t110 167t150 122.5t166.5 76.5l2 -8q-183 -66 -288.5 -227.5t-105.5 -353.5q0 -122 37 -199.5t120 -135.5z" />
    <glyph glyph-name="parenright" unicode=")" horiz-adv-x="383" 
d="M-132 -164l-2 8q183 66 289 228t106 354q0 121 -37.5 198.5t-119.5 135.5l3 6q100 -50 165 -145t65 -221q0 -102 -42 -198t-110 -167t-150 -122.5t-167 -76.5z" />
    <glyph glyph-name="asterisk" unicode="*" horiz-adv-x="423" 
d="M351 397q-25 -11 -40 24q-4 9 -10 36.5t-11.5 57.5t-5.5 32l-6 2q-9 -15 -38 -54t-41 -48q-28 -23 -46 -3q-18 21 10 45q11 10 112 64v6q-94 27 -122 43q-32 18 -17 43t46 5q20 -12 95 -87l6 2q0 112 4 129q8 36 35 31q28 -6 19 -43q-5 -20 -54 -119l5 -3q114 35 124 36
q37 3 38 -24q3 -28 -33 -31q-11 -1 -39 1.5t-57.5 6.5t-32.5 4l-4 -3q66 -87 74 -108q14 -34 -11 -45z" />
    <glyph glyph-name="plus" unicode="+" horiz-adv-x="549" 
d="M365 547l-54 -214h215l-4 -17h-215l-53 -215h-20l53 215h-214l4 17h214l54 214h20z" />
    <glyph glyph-name="comma" unicode="," horiz-adv-x="213" 
d="M-68 -137l-3 10q114 49 140 116l-4 2q-25 -4 -41 10.5t-16 37.5q0 22 16 38t39 16t39.5 -18t16.5 -43q0 -97 -187 -169z" />
    <glyph glyph-name="hyphen" unicode="-" horiz-adv-x="366" 
d="M58 241l10 36h256l-10 -36h-256z" />
    <glyph glyph-name="period" unicode="." horiz-adv-x="212" 
d="M62 -16q-23 0 -39 16t-16 38t16 38t39 16t39 -15.5t16 -37.5q0 -23 -16 -39t-39 -16z" />
    <glyph glyph-name="slash" unicode="/" horiz-adv-x="452" 
d="M-121 -215l342 481l337 480h24l-342 -482l-337 -479h-24z" />
    <glyph glyph-name="zero" unicode="0" horiz-adv-x="602" 
d="M136 169q0 -168 115 -168q75 0 138 82.5t94.5 194t31.5 213.5q0 83 -26.5 126t-87.5 43q-75 0 -138 -82.5t-95 -194t-32 -214.5zM597 429q0 -71 -26 -148.5t-70 -143t-110.5 -108.5t-140.5 -43q-86 0 -141 65t-55 180q0 71 26 148.5t70.5 143.5t111 108.5t139.5 42.5
q86 0 141 -64.5t55 -180.5z" />
    <glyph glyph-name="one" unicode="1" horiz-adv-x="403" 
d="M-31 0l2 9q81 3 111 15t39 45l132 492q12 31 5.5 48.5t-31 23.5t-86.5 8l3 8l221 18l-162 -598q-9 -32 12.5 -45t105.5 -15l-2 -9h-350z" />
    <glyph glyph-name="two" unicode="2" horiz-adv-x="525" 
d="M-7 0l13 55l256 191q100 73 143 139.5t43 147.5q0 61 -27.5 94.5t-81.5 33.5q-44 0 -82 -23.5t-55 -59.5q48 -16 48 -65q0 -26 -16.5 -44t-40.5 -18q-26 0 -42 17t-16 47q0 60 62 109.5t150 49.5t138.5 -41.5t50.5 -105.5q0 -66 -62.5 -132t-251.5 -202l-169 -123v-2h245
q63 0 91.5 20t69.5 96l9 -1l-53 -183h-422z" />
    <glyph glyph-name="three" unicode="3" horiz-adv-x="542" 
d="M207 335l5 16q143 0 201 53q28 25 42 66t14 78q0 113 -118 113q-50 0 -86.5 -20t-52.5 -45q45 -17 45 -59q0 -23 -15 -41t-42 -18q-24 0 -39.5 16t-15.5 41q0 55 62 97t150 42q93 0 143.5 -41t50.5 -104q0 -67 -72 -123t-205 -64l-1 -4q105 -10 156 -51t51 -105
q0 -83 -72 -139.5t-181 -56.5q-91 0 -146 40.5t-55 93.5q0 29 16.5 50.5t43.5 21.5q23 0 36.5 -16.5t13.5 -37.5q0 -48 -51 -66q11 -28 46.5 -50.5t90.5 -22.5q72 0 113 39q28 26 44 70.5t16 90.5q0 70 -48.5 101.5t-139.5 34.5z" />
    <glyph glyph-name="four" unicode="4" horiz-adv-x="563" 
d="M539 218h-147l-41 -153q-8 -28 10.5 -41t81.5 -15l-2 -9h-291l2 9q60 2 84.5 14.5t32.5 41.5l41 153h-293l10 38l441 404h43l-106 -393h148zM405 580l-342 -313h260l85 313h-3z" />
    <glyph glyph-name="five" unicode="5" horiz-adv-x="535" 
d="M214 -14q-78 0 -130.5 39.5t-52.5 93.5q0 27 17.5 48t44.5 21q24 0 37.5 -15t13.5 -36q0 -48 -49 -66q10 -31 41 -51.5t83 -20.5q49 0 87 27t58.5 69t30 83.5t9.5 79.5q0 135 -114 135q-78 0 -160 -54l-16 6l96 315h365l-29 -71h-340l-72 -231q88 52 166 52
q86 0 136.5 -45t50.5 -122q0 -106 -80 -181.5t-193 -75.5z" />
    <glyph glyph-name="six" unicode="6" horiz-adv-x="552" 
d="M242 -14q-89 0 -139.5 60.5t-50.5 149.5q0 198 143 327t384 155l-1 -10q-100 -19 -177.5 -57t-125.5 -87t-76 -98t-43 -104l3 -2q84 120 191 120q81 0 124 -47.5t43 -123.5q0 -109 -79 -196t-196 -87zM244 1q56 0 100.5 46.5t66.5 111.5t22 131q0 134 -97 134
q-73 0 -139 -78.5t-66 -193.5q0 -71 29 -111t84 -40z" />
    <glyph glyph-name="seven" unicode="7" horiz-adv-x="496" 
d="M32 -10v4l496 600h-279q-49 0 -75.5 -24t-66.5 -105h-8l58 195h425l3 -9l-275 -388l-192 -273h-86z" />
    <glyph glyph-name="eight" unicode="8" horiz-adv-x="543" 
d="M244 -14q-98 0 -150.5 44t-52.5 111q0 62 51.5 111.5t149.5 79.5q-99 63 -99 144q0 79 65.5 138.5t163.5 59.5q86 0 133.5 -40.5t47.5 -99.5t-48.5 -107t-137.5 -77q59 -35 91 -71.5t32 -92.5q0 -86 -75 -143t-171 -57zM268 317l-14 7q-68 -28 -104 -78t-36 -105
q0 -62 38.5 -101t98.5 -39q62 0 109.5 39.5t47.5 116.5q0 52 -36 87.5t-104 72.5zM220 513q0 -47 35 -83t96 -72q62 31 95.5 80t33.5 104t-31 86t-83 31q-59 0 -102 -39.5t-44 -106.5z" />
    <glyph glyph-name="nine" unicode="9" horiz-adv-x="548" 
d="M364 674q88 0 138.5 -60.5t50.5 -149.5q0 -198 -142 -326.5t-384 -155.5l1 10q84 17 152 46t112 61.5t76.5 74.5t50 79.5t29.5 81.5l-3 2q-78 -117 -189 -117q-80 0 -124 49.5t-44 126.5q0 107 79.5 192.5t196.5 85.5zM361 660q-82 0 -135.5 -88.5t-53.5 -191.5
q0 -144 101 -144q72 0 137 78t65 198q0 67 -29.5 107.5t-84.5 40.5z" />
    <glyph glyph-name="colon" unicode=":" horiz-adv-x="216" 
d="M62 -16q-23 0 -39 16t-16 38t16 38t39 16t39 -15.5t16 -37.5q0 -23 -16 -39t-39 -16zM142 289q-23 0 -39 15.5t-16 38.5t16 38.5t39 15.5q22 0 38 -15.5t16 -37.5q0 -23 -15.5 -39t-38.5 -16z" />
    <glyph glyph-name="semicolon" unicode=";" horiz-adv-x="219" 
d="M142 289q-23 0 -39 15.5t-16 38.5t16 38.5t39 15.5q22 0 38 -15.5t16 -37.5q0 -23 -15.5 -39t-38.5 -16zM-68 -137l-3 10q114 49 140 116l-4 2q-25 -4 -41 10.5t-16 37.5q0 22 16 38t39 16t39.5 -18t16.5 -43q0 -97 -187 -169z" />
    <glyph glyph-name="less" unicode="&#x3c;" horiz-adv-x="550" 
d="M444 100l-337 216l4 16l446 218l-7 -24l-418 -204l318 -200z" />
    <glyph glyph-name="equal" unicode="=" horiz-adv-x="543" 
d="M488 216h-438l4 18h438zM538 415h-438l4 17h438z" />
    <glyph glyph-name="greater" unicode="&#x3e;" horiz-adv-x="550" 
d="M154 550l337 -216l-4 -16l-446 -218l7 25l419 203l-319 200z" />
    <glyph glyph-name="question" unicode="?" horiz-adv-x="453" 
d="M174 181l-19 4l42 155q228 48 228 248q0 124 -117 124q-56 0 -91 -25t-48 -56q25 -6 38 -22t14 -36q0 -19 -14 -34t-37 -15q-22 0 -37.5 15.5t-15.5 41.5q-1 54 56.5 99t137.5 45q88 0 142.5 -44.5t54.5 -115.5q0 -90 -76.5 -149.5t-217.5 -87.5zM135 -16q-23 0 -39 15.5
t-16 38.5t16 38.5t39 15.5q22 0 38 -15.5t16 -37.5q0 -23 -15.5 -39t-38.5 -16z" />
    <glyph glyph-name="at" unicode="@" horiz-adv-x="909" 
d="M447 -146q-168 0 -269.5 99t-101.5 264q0 200 133 333.5t330 133.5q144 0 239 -87t95 -221q0 -141 -76.5 -227t-170.5 -86q-61 0 -88 25t-26 67h-3q-59 -85 -128 -85q-49 0 -78 31t-29 87q0 103 74.5 195.5t159.5 92.5q71 0 93 -71h1l26 64l70 9l-58 -138l-55 -150
q-10 -27 -10 -49q0 -59 64 -59q81 0 148.5 84t67.5 210t-89 209.5t-228 83.5q-192 0 -318 -132.5t-126 -320.5q0 -153 95 -250t260 -97q144 0 264 83l8 -11q-124 -87 -274 -87zM412 103q54 0 106 86l73 189q-5 39 -26 62t-54 23q-44 0 -84 -49t-60.5 -111.5t-20.5 -111.5
q0 -44 18.5 -66t47.5 -22z" />
    <glyph glyph-name="A" unicode="A" horiz-adv-x="671" 
d="M-69 0l3 9q62 9 96 39.5t90 118.5l347 541h15l82 -599q9 -61 23.5 -77t71.5 -23l-3 -9h-276l3 9q71 4 87.5 20t8.5 74l-21 174h-244l-73 -115q-54 -86 -48 -115t77 -38l-2 -9h-237zM456 293l-37 305h-3l-192 -305h232z" />
    <glyph glyph-name="B" unicode="B" horiz-adv-x="656" 
d="M267 376h75q221 0 221 194q0 59 -35.5 85t-122.5 26h-57zM170 16h112q227 0 227 218q0 64 -40 95t-141 31h-66zM149 688l2 9h256q128 0 187 -40t59 -103q0 -70 -60 -120.5t-178 -64.5l-1 -3q190 -24 190 -157q0 -83 -87 -146t-245 -63h-308l2 9q73 3 99.5 16t34.5 43
l149 560q8 30 -10.5 43.5t-89.5 16.5z" />
    <glyph glyph-name="C" unicode="C" horiz-adv-x="676" 
d="M334 -17q-121 0 -197 81t-76 214q0 82 31 160.5t85 139.5t133.5 98.5t168.5 37.5q52 0 102 -16.5t80 -37.5l52 51h10l-61 -218h-11q-19 119 -57 163.5t-121 44.5q-70 0 -131 -39.5t-101 -102t-63 -139t-23 -152.5q0 -112 57.5 -182t156.5 -70q145 0 259 174l11 -8
q-128 -199 -305 -199z" />
    <glyph glyph-name="D" unicode="D" horiz-adv-x="750" 
d="M101 68l150 560q8 30 -9.5 43t-85.5 17l2 9h243q172 0 257 -77t85 -201q0 -78 -31.5 -155t-90.5 -136q-128 -128 -333 -128h-318l2 9q70 4 95.5 16.5t33.5 42.5zM172 16h127q131 0 221 90q62 62 95 155.5t33 199.5q0 112 -56.5 166.5t-180.5 54.5h-61z" />
    <glyph glyph-name="E" unicode="E" horiz-adv-x="661" 
d="M157 697h548l-49 -198h-11q-6 46 -10 68t-11.5 47.5t-15.5 35t-23.5 19t-35.5 11.5t-51 2h-144l-81 -306h75q59 0 84.5 19.5t70.5 99.5h11l-68 -263h-10q-4 87 -19 108t-73 21h-76l-92 -345h171q96 0 137.5 34t115.5 153q5 7 7 11h11l-64 -214h-584l2 9q73 3 99.5 16
t34.5 43l149 560q8 30 -10.5 43.5t-89.5 16.5z" />
    <glyph glyph-name="F" unicode="F" horiz-adv-x="634" 
d="M301 0h-331l2 9q73 3 99.5 16t34.5 43l149 560q8 30 -10.5 43.5t-89.5 16.5l2 9h548l-50 -203h-11q-6 47 -9.5 69t-11 48.5t-15.5 36t-24 20t-35.5 12.5t-50.5 2h-144l-84 -316h74q61 0 85 16.5t68 94.5h11l-67 -261h-11q-4 90 -17.5 112.5t-70.5 22.5h-77l-75 -282
q-7 -30 13.5 -43.5t99.5 -16.5z" />
    <glyph glyph-name="G" unicode="G" horiz-adv-x="720" 
d="M723 711l-60 -213h-11q-20 117 -58 160t-121 43q-93 0 -167.5 -69.5t-112.5 -171.5t-38 -210q0 -111 55.5 -182.5t149.5 -71.5q75 0 133 40l56 213q8 30 -10.5 43.5t-89.5 16.5l2 9h283l-2 -9q-51 -3 -71 -16t-29 -44l-56 -201q-122 -65 -224 -65q-129 0 -210 83.5
t-81 211.5q0 82 31 160.5t85 139.5t133.5 98.5t168.5 37.5q52 0 102 -16.5t80 -37.5l52 51h10z" />
    <glyph glyph-name="H" unicode="H" horiz-adv-x="803" 
d="M403 0l2 9q71 3 93.5 16.5t30.5 45.5l76 283h-344l-76 -285q-8 -28 11 -42.5t87 -17.5l-2 -9h-316l2 9q73 4 99.5 16.5t34.5 42.5l149 560q8 30 -10.5 43.5t-89.5 16.5l2 9h308l-2 -9q-71 -3 -93.5 -16.5t-30.5 -45.5l-68 -256h343l69 258q8 28 -11 42.5t-87 17.5l2 9
h316l-2 -9q-73 -3 -99.5 -16t-34.5 -43l-149 -560q-8 -30 10.5 -43.5t89.5 -16.5l-2 -9h-308z" />
    <glyph glyph-name="I" unicode="I" horiz-adv-x="391" 
d="M480 688q-74 -3 -102 -15.5t-36 -42.5l-150 -561q-8 -31 12.5 -44.5t96.5 -15.5l-2 -9h-332l2 9q74 3 102.5 16t36.5 43l149 560q8 31 -12.5 44.5t-96.5 15.5l2 9h332z" />
    <glyph glyph-name="J" unicode="J" horiz-adv-x="537" 
d="M153 -18q-71 0 -116 34t-45 84q0 30 20 53t49 23q26 0 40.5 -16.5t14.5 -40.5q0 -25 -17.5 -43.5t-46.5 -22.5q26 -58 97 -58q59 0 94.5 40t57.5 124l125 469q8 31 -12.5 44.5t-98.5 15.5l2 9h334l-2 -9q-74 -3 -102 -15.5t-36 -42.5l-116 -436q-59 -212 -242 -212z" />
    <glyph glyph-name="K" unicode="K" horiz-adv-x="739" 
d="M837 697l-2 -9q-70 -11 -107 -31t-135 -98l-177 -143l135 -293q32 -69 55 -87.5t82 -26.5l-2 -9h-299l2 9q70 4 86.5 23t-6.5 65l-120 265l-103 -83l-56 -210q-7 -28 9.5 -42t78.5 -18l-2 -9h-307l2 9q74 4 100 16.5t34 42.5l149 560q8 30 -10 43.5t-89 16.5l2 9h308
l-2 -9q-71 -3 -93.5 -16.5t-30.5 -45.5l-86 -322l329 267q46 37 59.5 60.5t-3.5 37t-68 19.5l2 9h265z" />
    <glyph glyph-name="L" unicode="L" horiz-adv-x="615" 
d="M340 628l-164 -612h145q47 0 75 6.5t56.5 33t48.5 56t63 98.5q7 12 11 18h12l-67 -228h-550l2 9q73 3 99.5 16t34.5 43l149 560q8 30 -10.5 43.5t-89.5 16.5l2 9h308l-2 -9q-68 -3 -91.5 -16t-31.5 -44z" />
    <glyph glyph-name="M" unicode="M" horiz-adv-x="943" 
d="M146 689l2 8h208l87 -587h2l385 587h209l-2 -9q-73 -3 -99.5 -16t-34.5 -43l-149 -560q-8 -30 10.5 -43.5t89.5 -16.5l-2 -9h-308l2 9q71 3 93.5 16.5t30.5 45.5l153 577h-3l-430 -656h-11l-103 656h-4l-135 -514q-19 -70 -4.5 -92t90.5 -33l-2 -9h-255l2 9
q75 7 102.5 31t46.5 94l127 483q9 33 -10 49t-88 23z" />
    <glyph glyph-name="N" unicode="N" horiz-adv-x="788" 
d="M321 697l289 -579h2l117 446q19 69 3 91t-93 33l2 9h251l-2 -9q-77 -13 -100 -33.5t-41 -90.5l-154 -581h-13l-317 634h-1l-128 -483q-19 -68 -4 -91t92 -34l-2 -9h-255l2 9q78 12 103.5 34t43.5 91l124 467q10 37 -10 60t-84 28l2 8h173z" />
    <glyph glyph-name="O" unicode="O" horiz-adv-x="745" 
d="M328 -17q-115 0 -190.5 81t-75.5 206q0 82 32 162t86.5 142.5t132.5 101t164 38.5q115 0 190.5 -81t75.5 -206q0 -110 -54 -212t-150.5 -167t-210.5 -65zM331 -4q67 0 128 43.5t102 112t65 152t24 164.5q0 108 -43 170.5t-132 62.5q-90 0 -165.5 -73.5t-115 -181
t-39.5 -216.5t43 -171.5t133 -62.5z" />
    <glyph glyph-name="P" unicode="P" horiz-adv-x="611" 
d="M254 328h68q66 0 114 20t72.5 54t35.5 71.5t11 81.5q0 65 -35.5 96t-120.5 31h-50zM150 688l2 9h237q74 0 127 -14t79.5 -38.5t37.5 -51t11 -57.5q0 -97 -86 -160.5t-232 -63.5h-76l-65 -243q-8 -29 11.5 -43t93.5 -17l-2 -9h-324l2 9q74 3 100.5 16t34.5 43l149 560
q8 30 -10.5 43.5t-89.5 16.5z" />
    <glyph glyph-name="Q" unicode="Q" horiz-adv-x="745" 
d="M62 270q0 82 32 162t86.5 142.5t132.5 101t164 38.5q115 0 190.5 -81t75.5 -206q0 -108 -52.5 -208.5t-146.5 -166t-205 -68.5q28 -10 55.5 -38t45 -55t41.5 -48.5t49 -21.5q16 0 26.5 9t10.5 21q0 9 -17.5 25t-17.5 35t13.5 33t34.5 14t34 -15.5t12 -38.5
q-1 -43 -39 -73t-97 -30q-43 0 -80 25t-58.5 55t-49.5 55t-56 25q-33 0 -63.5 -19t-69.5 -67l-8 9q68 91 159 107q-91 21 -146.5 97t-55.5 182zM650 468q0 108 -43 170.5t-132 62.5q-90 0 -165.5 -73.5t-115 -181t-39.5 -216.5t43 -171.5t133 -62.5q67 0 128 43.5t102 112
t65 152t24 164.5z" />
    <glyph glyph-name="R" unicode="R" horiz-adv-x="676" 
d="M262 358h72q111 0 170 57.5t59 148.5q0 62 -37.5 90t-126.5 28h-50zM149 688l2 9h238q264 0 264 -150q0 -75 -63.5 -126t-182.5 -68l-1 -3q91 -8 121.5 -45t26.5 -116l-4 -79q-4 -61 14.5 -82t84.5 -22l-2 -10q-4 0 -23.5 -0.5t-22.5 -0.5q-71 0 -101.5 11.5t-36.5 40
t0 75.5l7 77q7 77 -21.5 110t-118.5 33h-72l-74 -273q-8 -28 11 -42.5t87 -17.5l-2 -9h-316l2 9q73 3 99.5 16t34.5 43l149 560q8 30 -10.5 43.5t-89.5 16.5z" />
    <glyph glyph-name="S" unicode="S" horiz-adv-x="543" 
d="M-6 -18l58 229h8q28 -124 75 -167.5t122 -43.5q78 0 122 45.5t44 114.5q0 48 -30.5 88t-117.5 85q-77 39 -109.5 77t-32.5 96q0 84 68 144.5t174 60.5q84 0 160 -47l55 53h10l-53 -211h-10q-24 114 -64.5 152.5t-107.5 38.5t-110 -41.5t-43 -106.5q0 -51 32.5 -83
t109.5 -74q76 -42 111 -82.5t35 -101.5q0 -90 -64 -156t-189 -66q-98 0 -186 52l-56 -56h-11z" />
    <glyph glyph-name="T" unicode="T" horiz-adv-x="665" 
d="M247 68l164 614h-54q-75 0 -117 -36t-126 -167h-14l68 218h581l-52 -218h-11q0 2 -1 5q-16 122 -31 152q-20 39 -74 45q-14 1 -32 1h-53l-163 -613q-8 -31 12.5 -44.5t96.5 -15.5l-2 -9h-332l2 9q74 3 102 16t36 43z" />
    <glyph glyph-name="U" unicode="U" horiz-adv-x="765" 
d="M314 626l-100 -378q-11 -39 -11 -80q0 -72 43 -114.5t127 -42.5q97 0 155 50.5t88 166.5l89 336q18 69 2.5 91t-93.5 33l2 9h252l-2 -9q-77 -12 -99.5 -33t-41.5 -91l-93 -353q-29 -109 -94.5 -168.5t-193.5 -59.5q-110 0 -168 54t-58 138q0 39 10 73l102 380
q8 30 -10.5 43.5t-89.5 16.5l2 9h308l-2 -9q-71 -3 -93.5 -16.5t-30.5 -45.5z" />
    <glyph glyph-name="V" unicode="V" horiz-adv-x="686" 
d="M821 688q-60 -8 -95.5 -38.5t-87.5 -112.5l-355 -555h-14l-79 612q-8 53 -24 69t-72 25l2 9h279l-2 -9q-72 -4 -89.5 -19t-10.5 -68l59 -507h3l277 439q56 89 48.5 118t-85.5 37l2 9h246z" />
    <glyph glyph-name="W" unicode="W" horiz-adv-x="1001" 
d="M272 601l54 -499h3l242 397l-10 94q-7 53 -23.5 69.5t-74.5 25.5l2 9h275l-2 -9q-68 -3 -83 -18.5t-10 -68.5l47 -496h3l237 423q51 89 42 121t-90 39l2 9h240l-2 -9q-57 -8 -87.5 -38.5t-79.5 -116.5l-312 -551h-14l-57 490l-296 -490h-14l-76 611q-7 53 -23.5 69.5
t-72.5 25.5l2 9h266l-2 -9q-64 -3 -78 -18.5t-8 -68.5z" />
    <glyph glyph-name="X" unicode="X" horiz-adv-x="698" 
d="M334 0l2 9q75 4 95 24t5 63l-82 231l-188 -199q-38 -41 -47.5 -66t7 -37t60.5 -16l-2 -9h-250l2 9q64 8 102.5 31.5t114.5 103.5l194 202l-98 252q-20 52 -41.5 68t-83.5 22l2 9h304l-2 -9q-72 -3 -91 -23t-3 -63l76 -208l168 176q58 61 52.5 87t-72.5 31l2 9h250l-2 -9
q-63 -8 -100.5 -31t-116.5 -104l-174 -179l104 -275q19 -52 39.5 -67.5t81.5 -22.5l-2 -9h-306z" />
    <glyph glyph-name="Y" unicode="Y" horiz-adv-x="672" 
d="M621 564l-218 -252l-65 -243q-8 -31 12.5 -44.5t96.5 -15.5l-2 -9h-332l2 9q74 3 102 16t36 43l65 243l-102 295q-16 48 -34.5 62t-71.5 21l2 8h306l-2 -9q-64 -2 -91.5 -9.5t-31 -24t7.5 -44.5l94 -280l207 242q52 59 43 84.5t-86 31.5l2 9h250l-2 -9q-62 -6 -91.5 -27
t-96.5 -97z" />
    <glyph glyph-name="Z" unicode="Z" horiz-adv-x="639" 
d="M604 682h-218q-56 0 -104 -35.5t-136 -153.5l-11 2l71 202h508l1 -9l-629 -672h244q58 0 103 35t139 161l9 -1l-70 -211h-537l-1 10z" />
    <glyph glyph-name="bracketleft" unicode="[" horiz-adv-x="359" 
d="M-8 -165l249 929h283l-4 -16h-211l-240 -897h210l-4 -16h-283z" />
    <glyph glyph-name="backslash" unicode="\" horiz-adv-x="452" 
d="M305 -215l-79 479l-84 482h21l80 -480l83 -481h-21z" />
    <glyph glyph-name="bracketright" unicode="]" horiz-adv-x="359" 
d="M-131 -166l5 16h211l240 897h-210l4 16h283l-249 -929h-284z" />
    <glyph glyph-name="asciicircum" unicode="^" horiz-adv-x="353" 
d="M101 548l203 212h10l95 -212h-16l-104 125l-166 -125h-22z" />
    <glyph glyph-name="underscore" unicode="_" horiz-adv-x="440" 
d="M-61 0l6 26h445l-7 -26h-444z" />
    <glyph glyph-name="grave" unicode="`" horiz-adv-x="238" 
d="M292 528l-114 100q-40 36 -40 56q0 15 10.5 25.5t26.5 10.5t27 -13.5t28 -47.5l67 -131h-5z" />
    <glyph glyph-name="a" unicode="a" horiz-adv-x="519" 
d="M447 304l-56 -205q-9 -34 -9 -49q0 -42 88 -32v-6q-50 -22 -94 -22q-33 0 -50 9.5t-17 37.5q0 24 10 55l-2 1q-35 -54 -70.5 -78.5t-80.5 -24.5q-61 0 -96 41t-35 115q0 111 83 215t185 104q71 0 101 -64l20 54l77 11zM307 451q-51 0 -96.5 -54t-70 -123.5t-24.5 -124.5
q0 -56 21.5 -91.5t60.5 -35.5q36 0 69.5 33.5t56.5 76.5l68 232q-8 43 -31.5 65t-53.5 22z" />
    <glyph glyph-name="b" unicode="b" horiz-adv-x="501" 
d="M186 4q81 0 142 99.5t61 205.5q0 53 -22.5 82t-66.5 29q-56 0 -113 -57l-81 -314q22 -45 80 -45zM468 319q0 -71 -37.5 -146.5t-106 -129t-144.5 -53.5q-92 0 -154 58l60 207l100 393q7 26 -12 38t-73 15v8l184 8l-94 -333l2 -2q75 83 155 83q53 0 86.5 -38t33.5 -108z
" />
    <glyph glyph-name="c" unicode="c" 
d="M291 465q55 0 89.5 -24t34.5 -59q0 -24 -14 -39t-35 -15q-22 0 -35.5 13t-13.5 34q0 14 10.5 29t29.5 23q-18 24 -59 24q-78 0 -132 -90.5t-54 -188.5q0 -74 31 -114t88 -40q74 0 137 80l9 -9q-77 -99 -173 -99q-74 0 -122.5 49.5t-48.5 134.5q0 111 77.5 201t180.5 90z
" />
    <glyph glyph-name="d" unicode="d" horiz-adv-x="513" 
d="M559 717l-168 -606q-10 -38 -10 -54q0 -50 92 -39v-6q-44 -22 -97 -22q-69 0 -69 54q0 18 6 42h-2q-70 -96 -148 -96q-60 0 -94.5 45t-34.5 119q0 66 34 138t94.5 122.5t128.5 50.5q64 0 109 -47l61 230q7 26 -12.5 38t-73.5 15v8zM295 451q-41 0 -77 -33t-57.5 -80.5
t-34 -96.5t-12.5 -86q0 -58 23.5 -91.5t64.5 -33.5q64 0 114 88l74 252q-12 36 -37.5 58.5t-57.5 22.5z" />
    <glyph glyph-name="e" unicode="e" 
d="M427 367q0 -63 -78.5 -105t-233.5 -41q-5 -33 -5 -58q0 -75 26 -110.5t83 -35.5q78 0 145 85l10 -9q-82 -103 -188 -103q-66 0 -111 41t-45 127q0 116 81 211.5t193 95.5q58 0 90.5 -27t32.5 -71zM300 450q-60 0 -111.5 -65t-70.5 -151q238 3 238 154q0 62 -56 62z" />
    <glyph glyph-name="f" unicode="f" horiz-adv-x="299" 
d="M349 441h-115l-79 -373q-18 -83 -39.5 -138t-47.5 -82.5t-51.5 -37.5t-58.5 -10q-42 0 -69 17t-27 47q0 20 13 33.5t33 13.5q21 0 33 -13t12 -33q0 -26 -23 -42q11 -9 31 -9q33 0 56 35.5t45 137.5l98 454h-109l5 14h107l11 45q28 115 79.5 169t118.5 54q44 0 73.5 -20.5
t29.5 -51.5q0 -21 -12.5 -36t-34.5 -15q-21 0 -34 13.5t-13 33.5q0 30 23 48q-12 15 -36 15q-73 0 -109 -155l-24 -100h119z" />
    <glyph glyph-name="g" unicode="g" horiz-adv-x="505" 
d="M176 0q-58 0 -98 42.5t-40 114.5q0 109 77.5 208.5t179.5 99.5q71 0 112 -54l16 44l79 11l-55 -163l-83 -305q-28 -103 -78.5 -150.5t-149.5 -47.5q-67 0 -111 26.5t-44 64.5q0 26 15.5 42t38.5 16q21 0 33.5 -13.5t12.5 -35.5q0 -30 -32 -48q11 -17 34 -28t48 -11
q60 0 98.5 47t62.5 139l20 76l-2 1q-33 -39 -63.5 -57.5t-70.5 -18.5zM300 451q-53 0 -96.5 -52t-64.5 -118.5t-21 -124.5q0 -60 24.5 -91.5t66.5 -31.5q59 0 108 76l78 264q-13 37 -39.5 57.5t-55.5 20.5z" />
    <glyph glyph-name="h" unicode="h" horiz-adv-x="520" 
d="M462 309l-71 -217q-9 -27 -9 -44q0 -23 20 -29t70 -1v-6q-52 -21 -91 -21q-73 0 -73 55q0 22 10 49l68 211q10 35 10 56q0 54 -59 54q-60 0 -154 -76l-83 -340h-82l48 162l124 486q7 26 -12 38t-73 15v8l184 8l-102 -356l2 -2q114 105 194 105q44 0 67.5 -23t23.5 -66
q0 -29 -12 -66z" />
    <glyph glyph-name="i" unicode="i" horiz-adv-x="281" 
d="M198 617q0 28 18 50.5t42 22.5q17 0 27.5 -10.5t10.5 -30.5q0 -29 -17.5 -52t-41.5 -23q-16 0 -27.5 11t-11.5 32zM224 21v-6q-60 -24 -106 -24q-70 0 -70 60q0 18 9 48l92 296q7 24 -12 35.5t-68 14.5v9l177 7l-114 -364q-9 -32 -9 -43q0 -24 23 -31t78 -2z" />
    <glyph glyph-name="j" unicode="j" horiz-adv-x="260" 
d="M182 617q0 28 18 50.5t42 22.5q17 0 27.5 -10.5t10.5 -30.5q0 -29 -17.5 -52t-41.5 -23q-16 0 -27.5 11t-11.5 32zM-58 -201q-40 0 -67.5 18t-27.5 48q0 20 12.5 33.5t32.5 13.5t31.5 -12.5t11.5 -31.5q0 -28 -25 -42q12 -12 35 -12q31 0 54 42t52 157l95 384
q5 22 -14 33.5t-67 14.5v9l170 7l-107 -429q-32 -131 -72.5 -182t-113.5 -51z" />
    <glyph glyph-name="k" unicode="k" horiz-adv-x="476" 
d="M289 717l-124 -449h33q33 0 62.5 31t48 67.5t47 67.5t60.5 31q26 0 40.5 -15t14.5 -37q0 -26 -13.5 -41t-35.5 -15q-19 0 -32 11.5t-13 31.5q0 12 7 26q-15 -4 -38 -37.5t-51 -72t-55 -50.5v-2q76 -7 99.5 -31.5t23.5 -74.5q0 -13 -3 -56.5t-3 -58.5q0 -21 17 -29t69 -5
v-6q-24 -12 -87 -12q-46 0 -61 13t-15 45q0 22 3 59.5t3 49.5q0 56 -16.5 77t-57.5 21h-49l-63 -256h-82l48 162l124 486q7 26 -12 38t-73 15v8z" />
    <glyph glyph-name="l" unicode="l" horiz-adv-x="272" 
d="M304 717l-180 -620q-7 -22 -7 -39q0 -26 23.5 -34t80.5 -2v-7q-60 -24 -111 -24q-70 0 -70 61q0 20 9 47l106 359l50 190q7 26 -12 38t-73 15v8z" />
    <glyph glyph-name="m" unicode="m" horiz-adv-x="784" 
d="M222 460l-32 -99l3 -3q115 106 189 106q86 0 86 -86q0 -2 -0.5 -7t-0.5 -8q113 101 180 101q43 0 67 -23t24 -65q0 -30 -12 -67l-71 -217q-9 -27 -9 -44q0 -23 20 -29t70 -1v-6q-52 -21 -91 -21q-73 0 -73 55q0 22 10 49l68 211q11 36 11 59q0 51 -55 51q-54 0 -141 -70
q-2 -12 -8 -37l-86 -309h-77l87 306q12 39 12 61q0 49 -55 49q-57 0 -151 -76l-83 -340h-83l49 162l61 230q7 27 -6.5 38.5t-59.5 14.5v8z" />
    <glyph glyph-name="n" unicode="n" horiz-adv-x="523" 
d="M70 162l61 230q7 27 -6.5 38.5t-59.5 14.5v8l157 7l-32 -99l2 -2q114 105 194 105q44 0 67.5 -23t23.5 -66q0 -29 -12 -66l-71 -217q-9 -27 -9 -44q0 -23 20 -29t71 -1v-6q-52 -21 -92 -21q-72 0 -72 55q0 20 9 49l68 211q11 33 11 56q0 54 -60 54q-59 0 -153 -76
l-83 -340h-83z" />
    <glyph glyph-name="o" unicode="o" horiz-adv-x="485" 
d="M289 465q72 0 118.5 -52t46.5 -135q0 -110 -73 -199t-185 -89q-71 0 -118 52.5t-47 134.5q0 111 73 199.5t185 88.5zM199 4q55 0 98.5 57t62.5 126.5t19 128.5q0 136 -92 136q-42 0 -78 -33.5t-57.5 -83t-33.5 -101.5t-12 -95q0 -135 93 -135z" />
    <glyph glyph-name="p" unicode="p" horiz-adv-x="511" 
d="M211 10q79 0 134 93.5t55 200.5q0 115 -91 115q-63 0 -116 -60l-74 -293q12 -25 37.5 -40.5t54.5 -15.5zM107 20l-40 -157q-7 -28 8.5 -36.5t79.5 -9.5v-9h-251v8q45 3 61.5 12.5t22.5 31.5l37 123l107 410q7 26 -6.5 37.5t-60.5 14.5v8l157 7l-25 -78l2 -2q80 85 155 85
q53 0 88.5 -39t35.5 -110q0 -116 -83 -218.5t-193 -102.5q-50 0 -95 25z" />
    <glyph glyph-name="q" unicode="q" horiz-adv-x="503" 
d="M295 451q-41 0 -77 -33t-57.5 -80.5t-34 -96.5t-12.5 -86q0 -58 23.5 -91.5t64.5 -33.5q64 0 114 88l74 252q-12 36 -37.5 58.5t-57.5 22.5zM249 -140l70 229h-4q-71 -99 -152 -99q-60 0 -94.5 45t-34.5 119q0 66 34 138t94.5 122.5t128.5 50.5q71 0 115 -54l15 45l77 10
l-52 -157l-119 -450q-7 -26 5 -33t67 -9v-9h-250v8q57 3 75 12t25 32z" />
    <glyph glyph-name="r" unicode="r" horiz-adv-x="396" 
d="M354 463q30 0 46.5 -16.5t16.5 -41.5q0 -26 -15 -42.5t-37 -16.5t-35 12t-13 33q0 19 12 36q-60 -3 -147 -105l-78 -322h-83l49 162l61 230q7 27 -6.5 38.5t-59.5 14.5v8l157 7l-36 -112l2 -2q97 117 166 117z" />
    <glyph glyph-name="s" unicode="s" horiz-adv-x="388" 
d="M151 -10q-57 0 -100.5 22.5t-43.5 61.5q0 23 14 39t37 16q20 0 32 -13t12 -34q0 -30 -30 -49q6 -10 32.5 -19.5t55.5 -9.5q50 0 80.5 27.5t30.5 70.5q0 18 -6.5 32.5t-24 28t-27.5 20t-36 21.5q-32 19 -48.5 30.5t-33.5 36t-17 53.5q0 59 45 100t123 41q54 0 92 -23.5
t38 -58.5q0 -22 -13 -36.5t-35 -14.5q-20 0 -32.5 13t-12.5 31q0 30 31 50q-20 26 -73 26q-45 0 -72 -26.5t-27 -65.5q0 -18 6.5 -32.5t23.5 -28.5t26 -20t35 -22q32 -19 49 -31.5t33.5 -37.5t16.5 -54q0 -57 -46.5 -100.5t-134.5 -43.5z" />
    <glyph glyph-name="t" unicode="t" horiz-adv-x="321" 
d="M356 441h-125l-89 -318q-8 -30 -8 -49q0 -49 55 -49q39 0 89 19v-7q-72 -47 -132 -47q-90 0 -90 77q0 19 9 53l93 321h-87l4 14h87l42 146l79 15l-48 -161h125z" />
    <glyph glyph-name="u" unicode="u" horiz-adv-x="541" 
d="M60 144l79 249q9 26 -5.5 38t-60.5 15v8l160 7l-97 -312q-9 -31 -9 -54q0 -56 66 -56q56 0 142 77l56 186l39 157h82l-109 -364q-8 -27 -8 -43q0 -24 19.5 -31.5t68.5 -2.5v-6q-44 -22 -96 -22q-67 0 -67 51q0 20 12 52l-2 3q-103 -106 -182 -106q-47 0 -73 24.5
t-26 66.5q0 27 11 63z" />
    <glyph glyph-name="v" unicode="v" horiz-adv-x="450" 
d="M174 -11l-38 4l-7 154l-30 248q-3 29 -16 37.5t-56 7.5v8l140 14l34 -319l3 -79h7l61 82q105 141 124 209q-51 21 -51 62q0 22 13 36t34 14q25 0 39.5 -17t14.5 -42q0 -33 -23 -76t-89 -131z" />
    <glyph glyph-name="w" unicode="w" horiz-adv-x="688" 
d="M425 -12l-39 5l-7 154l-15 122l-188 -280l-41 4l-6 154l-30 248q-3 29 -16 37.5t-56 7.5v8l140 14l34 -319l2 -75h7l59 89q69 108 91 153l-18 145l75 7l34 -319l4 -78h6l58 82q88 120 115 208q-52 20 -52 62q0 22 13.5 36t34.5 14q25 0 39.5 -17t14.5 -42
q0 -35 -21.5 -78.5t-87.5 -133.5z" />
    <glyph glyph-name="x" unicode="x" horiz-adv-x="479" 
d="M200 462l63 -195h2l44 84q62 117 127 117q26 0 41.5 -16t15.5 -39t-13.5 -36t-32.5 -13q-21 0 -34 15.5t-13 42.5q-40 -10 -93 -110l-35 -66l71 -178q13 -33 28 -43.5t58 -13.5v-9l-138 -4l-64 200h-2l-48 -87q-38 -72 -68.5 -100t-61.5 -28q-27 0 -43.5 16.5t-16.5 39.5
q0 21 13 35t34 14t34 -16.5t12 -42.5q17 6 46 39.5t57 84.5l35 64l-67 169q-13 34 -28 44t-61 10v8z" />
    <glyph glyph-name="y" unicode="y" horiz-adv-x="443" 
d="M161 462l30 -185l36 -237h2l69 113q68 109 88 201q-56 19 -56 63q0 22 13.5 36t34.5 14q25 0 39 -18t14 -45q0 -39 -28.5 -100t-118.5 -208q-76 -124 -133.5 -192.5t-89 -86t-64.5 -17.5t-50.5 17t-17.5 44q0 22 14.5 37.5t35.5 15.5t34.5 -14t13.5 -38q0 -22 -6 -32
q82 22 151 130l-38 220l-37 215q-5 29 -18.5 37.5t-56.5 7.5v8z" />
    <glyph glyph-name="z" unicode="z" horiz-adv-x="451" 
d="M4 -16l-14 19l395 394l-1 2l-183 -2q-51 -1 -68 -15t-50 -80l-8 2l39 152h333l7 -14l-384 -388l1 -2q36 9 78 9q18 0 66 -3.5t61 -3.5q46 0 67 19.5t34 78.5l9 -2q-14 -102 -40.5 -131.5t-95.5 -29.5q-30 0 -73 6.5t-68 6.5q-62 0 -105 -18z" />
    <glyph glyph-name="braceleft" unicode="{" horiz-adv-x="406" 
d="M309 -169q-88 11 -140.5 50.5t-52.5 99.5q0 43 31 134t31 126q0 40 -25 57.5t-109 23.5l3 11q73 2 105 11.5t57 34.5q23 23 33.5 66t13 84t17.5 89t45 80q35 38 89.5 51.5t134.5 14.5l-3 -11q-102 -10 -140 -48q-28 -27 -43 -75t-19.5 -91.5t-22.5 -90.5t-53 -74
q-47 -41 -151 -46l-2 -5q78 -8 106.5 -38.5t28.5 -76.5q0 -37 -26 -123t-26 -127q0 -94 121 -116z" />
    <glyph glyph-name="bar" unicode="|" horiz-adv-x="306" 
d="M143 746h20v-961h-20v961z" />
    <glyph glyph-name="braceright" unicode="}" horiz-adv-x="411" 
d="M-96 -169l3 11q103 10 141 48q28 27 43.5 78.5t20.5 99t24.5 98t54.5 77.5q47 41 151 46l2 5q-136 14 -136 114q0 36 24 112t24 117q0 94 -122 116l3 11q89 -11 141.5 -50.5t52.5 -99.5q0 -44 -29 -124t-29 -111q0 -42 25 -60t110 -23l-3 -11q-73 -3 -105 -12.5
t-57 -34.5q-23 -23 -35 -69.5t-15 -91.5t-19 -96.5t-46 -83.5q-35 -38 -89 -51.5t-135 -14.5z" />
    <glyph glyph-name="asciitilde" unicode="~" horiz-adv-x="371" 
d="M60 251q28 115 94 115q21 0 70.5 -25t67.5 -25q19 0 32.5 13.5t27.5 47.5h10q-28 -114 -93 -114q-22 0 -71.5 24.5t-66.5 24.5q-19 0 -33 -13.5t-27 -47.5h-11z" />
    <glyph glyph-name="uni00A0" unicode="&#xa0;" horiz-adv-x="192" 
 />
    <glyph glyph-name="exclamdown" unicode="&#xa1;" horiz-adv-x="270" 
d="M267 617q-23 0 -38.5 15.5t-15.5 38.5t15.5 38.5t38.5 15.5t39 -15.5t16 -37.5q0 -23 -16 -39t-39 -16zM218 530l13 -3q-27 -125 -53 -286t-34 -194q-14 -63 -53 -63q-21 0 -31 14.5t-10 35.5q0 25 20.5 84.5t66.5 183.5t81 228z" />
    <glyph glyph-name="cent" unicode="&#xa2;" horiz-adv-x="479" 
d="M180 -90l-19 4l21 78q-61 9 -99.5 55t-38.5 118q0 118 82.5 207.5t189.5 91.5l20 71l19 -4l-19 -67q56 -4 90 -32.5t34 -66.5q0 -23 -14.5 -41t-37.5 -18q-19 0 -32 12.5t-13 31.5q0 17 12 34t35 25q-22 37 -78 42l-121 -431q13 -3 29 -3q40 0 82 23t70 60l10 -8
q-81 -102 -192 -102h-8zM121 162q0 -106 71 -136l120 424q-54 -4 -99 -52t-68.5 -112t-23.5 -124z" />
    <glyph glyph-name="sterling" unicode="&#xa3;" horiz-adv-x="592" 
d="M467 333h-174v-22q0 -141 -126 -220q13 -2 61.5 -12t84 -14.5t70.5 -4.5q61 0 92 24t55 89l10 -3q-53 -185 -189 -185q-34 0 -64.5 10t-46 20t-44.5 32t-40 30q-21 -41 -49 -67t-58 -26q-22 0 -35 13.5t-13 32.5q0 24 26.5 45.5t76.5 21.5q22 0 52 -5q56 76 56 181
q0 28 -2 60h-116l5 17h110q-5 62 -5 91q0 103 69.5 168t167.5 65q73 0 114.5 -36t41.5 -85q0 -33 -18.5 -54t-44.5 -21q-22 0 -37 13.5t-15 35.5q0 46 59 66q-2 25 -27.5 46.5t-70.5 21.5q-68 0 -111 -54t-43 -152q0 -18 0.5 -35t1.5 -37t1 -33h180z" />
    <glyph glyph-name="yen" unicode="&#xa5;" horiz-adv-x="687" 
d="M580 213h-208l-38 -143q-8 -32 12 -46t97 -15l-3 -9h-330l3 9q74 2 102 15t37 45l38 144h-207l4 16h208l18 67l-5 15h-199l4 16h191l-70 242q-14 46 -33 61t-69 22l2 8h294l-2 -9q-58 -1 -83 -9.5t-27 -26t6 -45.5l66 -257l199 224q48 55 39 80.5t-77 33.5l2 9h239l-2 -9
q-55 -7 -87.5 -29t-94.5 -92l-182 -203h186l-4 -16h-196l-16 -18l-17 -64h207z" />
    <glyph glyph-name="brokenbar" unicode="&#xa6;" horiz-adv-x="306" 
d="M163 337h-20v409h20v-409zM143 194h20v-409h-20v409z" />
    <glyph glyph-name="section" unicode="&#xa7;" horiz-adv-x="557" 
d="M202 -141q-80 0 -135.5 33.5t-55.5 84.5q0 21 15 40t41 19q21 0 33 -13.5t12 -31.5q0 -39 -38 -56q11 -27 51 -44.5t80 -17.5q67 0 104 35t37 83q0 36 -27.5 64t-83.5 57q-66 33 -99 64.5t-34 82.5q-1 54 40 94t114 52q-69 47 -69 115q0 61 53.5 107.5t140.5 46.5
q74 0 123 -34t49 -77q0 -22 -13.5 -39t-37.5 -17q-21 0 -33.5 13t-12.5 31q0 34 35 55q-11 23 -42 38.5t-68 15.5q-58 0 -95 -31t-37 -81q0 -35 26.5 -60.5t85.5 -56.5q64 -33 97 -65.5t33 -83.5q0 -50 -36 -92t-109 -59q60 -47 60 -107q0 -67 -54 -116t-150 -49zM431 249
q0 22 -7 39t-28.5 34t-36.5 26t-54 30q-13 6 -37 20q-50 -11 -77 -40.5t-27 -66.5q0 -38 27.5 -64t91.5 -58q33 -17 54 -31q46 13 70 44.5t24 66.5z" />
    <glyph glyph-name="dieresis" unicode="&#xa8;" horiz-adv-x="322" 
d="M334 533q-16 0 -27.5 11t-11.5 31q0 28 18 50.5t42 22.5q16 0 27 -10.5t11 -30.5q0 -28 -17.5 -51t-41.5 -23zM150 533q-17 0 -28.5 11t-11.5 31q0 28 18 50.5t42 22.5q16 0 27 -10.5t11 -30.5q0 -28 -17.5 -51t-40.5 -23z" />
    <glyph glyph-name="copyright" unicode="&#xa9;" horiz-adv-x="839" 
d="M426 152q-69 0 -111.5 43t-42.5 119q0 101 65 172.5t160 71.5q32 0 61.5 -12t45.5 -27l27 33h10l-34 -138h-10q-16 77 -36.5 104.5t-66.5 27.5q-72 0 -116.5 -74t-44.5 -154q0 -62 28.5 -101t87.5 -39q75 0 134 93l9 -6q-65 -113 -166 -113zM409 -34q-151 0 -242.5 90
t-91.5 235q0 118 51.5 218t147.5 161t217 61q151 0 242.5 -90t91.5 -235q0 -118 -51.5 -218t-147.5 -161t-217 -61zM410 -20q116 0 208.5 59.5t141 156t48.5 210.5q0 139 -87 225t-231 86q-175 0 -286.5 -125t-111.5 -300q0 -140 86.5 -226t231.5 -86z" />
    <glyph glyph-name="ordfeminine" unicode="&#xaa;" horiz-adv-x="460" 
d="M217 331q-46 0 -75 32.5t-29 88.5q0 87 63.5 163.5t144.5 76.5q55 0 81 -53l13 46l63 7l-40 -122l-42 -151q-13 -43 -2.5 -55t57.5 -8v-7q-43 -16 -70 -16q-37 0 -48 18t1 57l-5 1q-27 -41 -53 -59.5t-59 -18.5zM244 361q46 0 93 80l51 173q-5 32 -22 48.5t-40 16.5
q-41 0 -75 -42t-49.5 -92.5t-15.5 -90.5q0 -93 58 -93z" />
    <glyph glyph-name="guillemotleft" unicode="&#xab;" horiz-adv-x="490" 
d="M373 26l-126 180q-15 22 -15 28q0 5 25 24l218 163l8 -9l-187 -186l87 -194zM179 29l-126 178q-15 22 -15 28t25 24l218 162l8 -9l-187 -184l87 -193z" />
    <glyph glyph-name="registered" unicode="&#xae;" horiz-adv-x="377" 
d="M255 423q-60 0 -99 39t-39 99q0 71 49.5 120.5t120.5 49.5q60 0 99 -39t39 -99q0 -71 -49.5 -120.5t-120.5 -49.5zM256 434q65 0 111 46.5t46 111.5q0 56 -35.5 92t-91.5 36q-65 0 -111 -46.5t-46 -111.5q0 -56 35.5 -92t91.5 -36zM255 585h13q24 0 38 13.5t14 34.5
q0 25 -37 25h-10zM253 577l-15 -60q-1 -5 2.5 -7.5t17.5 -3.5l-2 -6h-76l2 6q27 1 29 11l33 133q1 3 -0.5 4.5t-6.5 3t-16 1.5l2 7h64q60 0 60 -38t-56 -45v-3q19 -3 27 -10t7 -19l-2 -23q-1 -14 4 -19.5t19 -5.5l-2 -6h-14q-24 0 -30.5 7t-4.5 24l2 16q2 18 -4.5 25.5
t-27.5 7.5h-12z" />
    <glyph glyph-name="macron" unicode="&#xaf;" horiz-adv-x="321" 
d="M128 558l7 29h251l-7 -29h-251z" />
    <glyph glyph-name="degree" unicode="&#xb0;" horiz-adv-x="376" 
d="M389 599q0 -68 -50.5 -122.5t-115.5 -54.5q-46 0 -78.5 30t-32.5 85q0 69 50 123t115 54q46 0 79 -30t33 -85zM165 516q0 -81 59 -81q36 0 62.5 35t37.5 76t11 75q0 80 -58 80q-52 0 -82 -63.5t-30 -121.5z" />
    <glyph glyph-name="plusminus" unicode="&#xb1;" horiz-adv-x="530" 
d="M355 527l-53 -196h196l-5 -17h-195l-53 -198h-20l53 198h-197l5 17h196l53 196h20zM409 0h-411l5 17h411z" />
    <glyph glyph-name="acute" unicode="&#xb4;" horiz-adv-x="238" 
d="M115 528l96 129q29 39 42.5 52t30.5 13q14 0 23.5 -10t9.5 -23q0 -15 -15 -30t-60 -46l-119 -85h-8z" />
    <glyph glyph-name="paragraph" unicode="&#xb6;" horiz-adv-x="687" 
d="M300 -100l76 283q-118 10 -180.5 62t-62.5 136q0 114 95.5 196.5t267.5 82.5h269l-2 -8q-77 -5 -103 -16t-35 -45l-185 -691h-21l199 745h-97l-199 -745h-22z" />
    <glyph glyph-name="periodcentered" unicode="&#xb7;" horiz-adv-x="212" 
d="M137 275q-23 0 -39 16t-16 38t16 38t39 16t39 -15.5t16 -37.5q0 -23 -16 -39t-39 -16z" />
    <glyph glyph-name="cedilla" unicode="&#xb8;" horiz-adv-x="282" 
d="M17 -247q-47 0 -88 26l6 10q39 -21 77 -21q32 0 54 19t22 51q0 28 -21 42.5t-54 14.5q-13 0 -30 -3l-3 8l127 96h21l-91 -69l2 -3q52 -1 77.5 -22t25.5 -55q0 -40 -35 -67t-90 -27z" />
    <glyph glyph-name="ordmasculine" unicode="&#xba;" horiz-adv-x="444" 
d="M257 330q-56 0 -95 37.5t-39 105.5q0 84 60 151t139 67q56 0 94.5 -37.5t38.5 -105.5q0 -84 -59.5 -151t-138.5 -67zM257 344q33 0 59.5 25.5t41 64t22 76t7.5 68.5q0 100 -66 100q-43 0 -74.5 -44.5t-43 -95.5t-11.5 -95q0 -99 65 -99z" />
    <glyph glyph-name="guillemotright" unicode="&#xbb;" horiz-adv-x="490" 
d="M217 29l-7 9l186 184l-87 193l11 6l126 -178q15 -22 15 -28t-25 -24zM23 29l-7 9l186 186l-87 194l11 6l126 -180q15 -22 15 -28q0 -5 -25 -24z" />
    <glyph glyph-name="questiondown" unicode="&#xbf;" horiz-adv-x="453" 
d="M351 529l19 -5l-42 -154q-228 -48 -228 -249q0 -124 117 -124q56 0 91 25t47 56q-24 6 -37.5 22t-13.5 36q-1 19 13.5 34t37.5 15q22 0 37 -15.5t16 -40.5q1 -55 -56.5 -100t-138.5 -45q-87 0 -141.5 45t-54.5 116q0 90 76.5 149.5t217.5 87.5zM390 725q23 0 39 -15.5
t16 -37.5q0 -23 -16 -39t-39 -16t-39 16t-16 38t16 38t39 16z" />
    <glyph glyph-name="Agrave" unicode="&#xc0;" horiz-adv-x="671" 
d="M-69 0l3 9q62 9 96 39.5t90 118.5l347 541h15l82 -599q9 -61 23.5 -77t71.5 -23l-3 -9h-276l3 9q71 4 87.5 20t8.5 74l-21 174h-244l-73 -115q-54 -86 -48 -115t77 -38l-2 -9h-237zM456 293l-37 305h-3l-192 -305h232zM486 768l-114 100q-40 36 -40 56q0 15 10.5 25.5
t26.5 10.5t27 -13.5t28 -47.5l67 -131h-5z" />
    <glyph glyph-name="Aacute" unicode="&#xc1;" horiz-adv-x="671" 
d="M-69 0l3 9q62 9 96 39.5t90 118.5l347 541h15l82 -599q9 -61 23.5 -77t71.5 -23l-3 -9h-276l3 9q71 4 87.5 20t8.5 74l-21 174h-244l-73 -115q-54 -86 -48 -115t77 -38l-2 -9h-237zM456 293l-37 305h-3l-192 -305h232zM450 768l96 129q29 39 42.5 52t30.5 13q13 0 23 -10
t10 -23q0 -15 -15 -30t-60 -46l-119 -85h-8z" />
    <glyph glyph-name="Acircumflex" unicode="&#xc2;" horiz-adv-x="671" 
d="M-69 0l3 9q62 9 96 39.5t90 118.5l347 541h15l82 -599q9 -61 23.5 -77t71.5 -23l-3 -9h-276l3 9q71 4 87.5 20t8.5 74l-21 174h-244l-73 -115q-54 -86 -48 -115t77 -38l-2 -9h-237zM456 293l-37 305h-3l-192 -305h232zM346 758l173 182h9l73 -182h-12l-86 98l-142 -98
h-15z" />
    <glyph glyph-name="Atilde" unicode="&#xc3;" horiz-adv-x="671" 
d="M-69 0l3 9q62 9 96 39.5t90 118.5l347 541h15l82 -599q9 -61 23.5 -77t71.5 -23l-3 -9h-276l3 9q71 4 87.5 20t8.5 74l-21 174h-244l-73 -115q-54 -86 -48 -115t77 -38l-2 -9h-237zM456 293l-37 305h-3l-192 -305h232zM345 764q28 114 94 114q21 0 70.5 -24.5t67.5 -24.5
q19 0 32.5 13.5t27.5 47.5h10q-28 -115 -93 -115q-22 0 -71.5 25t-66.5 25q-19 0 -33 -13.5t-27 -47.5h-11z" />
    <glyph glyph-name="Adieresis" unicode="&#xc4;" horiz-adv-x="671" 
d="M-69 0l3 9q62 9 96 39.5t90 118.5l347 541h15l82 -599q9 -61 23.5 -77t71.5 -23l-3 -9h-276l3 9q71 4 87.5 20t8.5 74l-21 174h-244l-73 -115q-54 -86 -48 -115t77 -38l-2 -9h-237zM456 293l-37 305h-3l-192 -305h232zM574 773q-16 0 -27.5 11t-11.5 31q0 28 18 50.5
t42 22.5q16 0 27 -10.5t11 -30.5q0 -28 -17.5 -51t-41.5 -23zM390 773q-17 0 -28.5 11t-11.5 31q0 28 18 50.5t42 22.5q16 0 27 -10.5t11 -30.5q0 -28 -17.5 -51t-40.5 -23z" />
    <glyph glyph-name="Aring" unicode="&#xc5;" horiz-adv-x="671" 
d="M214 277l-73 -115q-54 -86 -48 -115t77 -38l-2 -9h-237l3 9q62 9 96 39.5t90 118.5l336 525q-34 4 -53.5 28.5t-19.5 62.5q0 53 39 92.5t93 39.5q41 0 64.5 -25t23.5 -67q0 -50 -34.5 -88.5t-84.5 -42.5l80 -583q9 -61 23.5 -77t71.5 -23l-3 -9h-276l3 9q71 4 87.5 20
t8.5 74l-21 174h-244zM456 293l-37 305h-3l-192 -305h232zM471 700q39 0 62.5 44.5t23.5 96.5q0 65 -42 65q-39 0 -62.5 -44.5t-23.5 -97.5q0 -64 42 -64z" />
    <glyph glyph-name="AE" unicode="&#xc6;" horiz-adv-x="1021" 
d="M806 232h-10q-4 87 -19 108t-73 21h-76l-92 -345h171q96 0 137.5 34t115.5 153q5 7 7 11h11l-64 -214h-584l2 9q73 3 99.5 16t34.5 43l58 218h-242l-125 -142q-64 -73 -64 -100q0 -29 68 -35l-3 -9h-231l2 9q58 8 97 34.5t114 111.5l409 460q19 22 19 36q0 30 -97 37l2 9
h592l-49 -198h-11q-6 46 -10 68t-11.5 47.5t-15.5 35t-23.5 19t-35.5 11.5t-51 2h-144l-81 -306h75q59 0 84.5 19.5t70.5 99.5h11zM528 302l98 366h-8l-322 -366h232z" />
    <glyph glyph-name="Ccedilla" unicode="&#xc7;" horiz-adv-x="676" 
d="M254 -247q-47 0 -88 26l6 10q39 -21 77 -21q32 0 54 19t22 51q0 28 -21 42.5t-54 14.5q-14 0 -30 -3l-3 8l110 83q-119 3 -192.5 83.5t-73.5 211.5q0 82 31 160.5t85 139.5t133.5 98.5t168.5 37.5q52 0 102 -16.5t80 -37.5l52 51h10l-61 -218h-11q-19 119 -57 163.5
t-121 44.5q-70 0 -131 -39.5t-101 -102t-63 -139t-23 -152.5q0 -112 57.5 -182t156.5 -70q145 0 259 174l11 -8q-124 -192 -291 -199l-74 -56l2 -3q52 -1 77.5 -22t25.5 -55q0 -40 -35 -67t-90 -27z" />
    <glyph glyph-name="Egrave" unicode="&#xc8;" horiz-adv-x="661" 
d="M157 697h548l-49 -198h-11q-6 46 -10 68t-11.5 47.5t-15.5 35t-23.5 19t-35.5 11.5t-51 2h-144l-81 -306h75q59 0 84.5 19.5t70.5 99.5h11l-68 -263h-10q-4 87 -19 108t-73 21h-76l-92 -345h171q96 0 137.5 34t115.5 153q5 7 7 11h11l-64 -214h-584l2 9q73 3 99.5 16
t34.5 43l149 560q8 30 -10.5 43.5t-89.5 16.5zM498 768l-114 100q-40 36 -40 56q0 15 10.5 25.5t26.5 10.5t27 -13.5t28 -47.5l67 -131h-5z" />
    <glyph glyph-name="Eacute" unicode="&#xc9;" horiz-adv-x="661" 
d="M450 768l96 129q29 39 42.5 52t30.5 13q13 0 23 -10t10 -23q0 -15 -15 -30t-60 -46l-119 -85h-8zM157 697h548l-49 -198h-11q-6 46 -10 68t-11.5 47.5t-15.5 35t-23.5 19t-35.5 11.5t-51 2h-144l-81 -306h75q59 0 84.5 19.5t70.5 99.5h11l-68 -263h-10q-4 87 -19 108
t-73 21h-76l-92 -345h171q96 0 137.5 34t115.5 153q5 7 7 11h11l-64 -214h-584l2 9q73 3 99.5 16t34.5 43l149 560q8 30 -10.5 43.5t-89.5 16.5z" />
    <glyph glyph-name="Ecircumflex" unicode="&#xca;" horiz-adv-x="661" 
d="M353 768l173 182h9l73 -182h-12l-86 98l-142 -98h-15zM157 697h548l-49 -198h-11q-6 46 -10 68t-11.5 47.5t-15.5 35t-23.5 19t-35.5 11.5t-51 2h-144l-81 -306h75q59 0 84.5 19.5t70.5 99.5h11l-68 -263h-10q-4 87 -19 108t-73 21h-76l-92 -345h171q96 0 137.5 34
t115.5 153q5 7 7 11h11l-64 -214h-584l2 9q73 3 99.5 16t34.5 43l149 560q8 30 -10.5 43.5t-89.5 16.5z" />
    <glyph glyph-name="Edieresis" unicode="&#xcb;" horiz-adv-x="661" 
d="M577 773q-16 0 -27.5 11t-11.5 31q0 28 18 50.5t42 22.5q16 0 27 -10.5t11 -30.5q0 -28 -17.5 -51t-41.5 -23zM393 773q-17 0 -28.5 11t-11.5 31q0 28 18 50.5t42 22.5q16 0 27 -10.5t11 -30.5q0 -28 -17.5 -51t-40.5 -23zM157 697h548l-49 -198h-11q-6 46 -10 68
t-11.5 47.5t-15.5 35t-23.5 19t-35.5 11.5t-51 2h-144l-81 -306h75q59 0 84.5 19.5t70.5 99.5h11l-68 -263h-10q-4 87 -19 108t-73 21h-76l-92 -345h171q96 0 137.5 34t115.5 153q5 7 7 11h11l-64 -214h-584l2 9q73 3 99.5 16t34.5 43l149 560q8 30 -10.5 43.5t-89.5 16.5z
" />
    <glyph glyph-name="Igrave" unicode="&#xcc;" horiz-adv-x="391" 
d="M480 688q-74 -3 -102 -15.5t-36 -42.5l-150 -561q-8 -31 12.5 -44.5t96.5 -15.5l-2 -9h-332l2 9q74 3 102.5 16t36.5 43l149 560q8 31 -12.5 44.5t-96.5 15.5l2 9h332zM354 768l-114 100q-40 36 -40 56q0 15 10.5 25.5t26.5 10.5t27 -13.5t28 -47.5l67 -131h-5z" />
    <glyph glyph-name="Iacute" unicode="&#xcd;" horiz-adv-x="391" 
d="M480 688q-74 -3 -102 -15.5t-36 -42.5l-150 -561q-8 -31 12.5 -44.5t96.5 -15.5l-2 -9h-332l2 9q74 3 102.5 16t36.5 43l149 560q8 31 -12.5 44.5t-96.5 15.5l2 9h332zM289 768l96 129q29 39 42.5 52t30.5 13q14 0 23.5 -10t9.5 -23q0 -15 -15 -30t-60 -46l-119 -85h-8z
" />
    <glyph glyph-name="Icircumflex" unicode="&#xce;" horiz-adv-x="391" 
d="M480 688q-74 -3 -102 -15.5t-36 -42.5l-150 -561q-8 -31 12.5 -44.5t96.5 -15.5l-2 -9h-332l2 9q74 3 102.5 16t36.5 43l149 560q8 31 -12.5 44.5t-96.5 15.5l2 9h332zM204 768l173 182h9l73 -182h-12l-86 98l-142 -98h-15z" />
    <glyph glyph-name="Idieresis" unicode="&#xcf;" horiz-adv-x="391" 
d="M480 688q-74 -3 -102 -15.5t-36 -42.5l-150 -561q-8 -31 12.5 -44.5t96.5 -15.5l-2 -9h-332l2 9q74 3 102.5 16t36.5 43l149 560q8 31 -12.5 44.5t-96.5 15.5l2 9h332zM435 773q-16 0 -27.5 11t-11.5 31q0 28 18 50.5t42 22.5q16 0 27 -10.5t11 -30.5q0 -28 -17.5 -51
t-41.5 -23zM251 773q-17 0 -28.5 11t-11.5 31q0 28 18 50.5t42 22.5q16 0 27 -10.5t11 -30.5q0 -28 -17.5 -51t-40.5 -23z" />
    <glyph glyph-name="Eth" unicode="&#xd0;" horiz-adv-x="750" 
d="M101 68l76 286h-97l5 19h97l69 255q8 30 -9.5 43t-85.5 17l2 9h243q172 0 257 -77t85 -201q0 -78 -31.5 -155t-90.5 -136q-128 -128 -333 -128h-318l2 9q70 4 95.5 16.5t33.5 42.5zM172 16h127q131 0 221 90q62 62 95 155.5t33 199.5q0 112 -56.5 166.5t-180.5 54.5h-61
l-83 -309h155l-5 -19h-155z" />
    <glyph glyph-name="Ntilde" unicode="&#xd1;" horiz-adv-x="788" 
d="M321 697l289 -579h2l117 446q19 69 3 91t-93 33l2 9h251l-2 -9q-77 -13 -100 -33.5t-41 -90.5l-154 -581h-13l-317 634h-1l-128 -483q-19 -68 -4 -91t92 -34l-2 -9h-255l2 9q78 12 103.5 34t43.5 91l124 467q10 37 -10 60t-84 28l2 8h173zM391 764q28 114 94 114
q21 0 70.5 -24.5t67.5 -24.5q19 0 32.5 13.5t27.5 47.5h10q-28 -115 -93 -115q-22 0 -71.5 25t-66.5 25q-19 0 -33 -13.5t-27 -47.5h-11z" />
    <glyph glyph-name="Ograve" unicode="&#xd2;" horiz-adv-x="745" 
d="M328 -17q-115 0 -190.5 81t-75.5 206q0 82 32 162t86.5 142.5t132.5 101t164 38.5q115 0 190.5 -81t75.5 -206q0 -110 -54 -212t-150.5 -167t-210.5 -65zM331 -4q67 0 128 43.5t102 112t65 152t24 164.5q0 108 -43 170.5t-132 62.5q-90 0 -165.5 -73.5t-115 -181
t-39.5 -216.5t43 -171.5t133 -62.5zM526 768l-114 100q-40 36 -40 56q0 15 10.5 25.5t26.5 10.5t27 -13.5t28 -47.5l67 -131h-5z" />
    <glyph glyph-name="Oacute" unicode="&#xd3;" horiz-adv-x="745" 
d="M461 768l96 129q29 39 42.5 52t30.5 13q14 0 23.5 -10t9.5 -23q0 -15 -15 -30t-60 -46l-119 -85h-8zM328 -17q-115 0 -190.5 81t-75.5 206q0 82 32 162t86.5 142.5t132.5 101t164 38.5q115 0 190.5 -81t75.5 -206q0 -110 -54 -212t-150.5 -167t-210.5 -65zM331 -4
q67 0 128 43.5t102 112t65 152t24 164.5q0 108 -43 170.5t-132 62.5q-90 0 -165.5 -73.5t-115 -181t-39.5 -216.5t43 -171.5t133 -62.5z" />
    <glyph glyph-name="Ocircumflex" unicode="&#xd4;" horiz-adv-x="745" 
d="M381 768l173 182h9l73 -182h-12l-86 98l-142 -98h-15zM328 -17q-115 0 -190.5 81t-75.5 206q0 82 32 162t86.5 142.5t132.5 101t164 38.5q115 0 190.5 -81t75.5 -206q0 -110 -54 -212t-150.5 -167t-210.5 -65zM331 -4q67 0 128 43.5t102 112t65 152t24 164.5
q0 108 -43 170.5t-132 62.5q-90 0 -165.5 -73.5t-115 -181t-39.5 -216.5t43 -171.5t133 -62.5z" />
    <glyph glyph-name="Otilde" unicode="&#xd5;" horiz-adv-x="745" 
d="M328 -17q-115 0 -190.5 81t-75.5 206q0 82 32 162t86.5 142.5t132.5 101t164 38.5q115 0 190.5 -81t75.5 -206q0 -110 -54 -212t-150.5 -167t-210.5 -65zM331 -4q67 0 128 43.5t102 112t65 152t24 164.5q0 108 -43 170.5t-132 62.5q-90 0 -165.5 -73.5t-115 -181
t-39.5 -216.5t43 -171.5t133 -62.5zM371 764q28 114 94 114q21 0 70.5 -24.5t67.5 -24.5q19 0 32.5 13.5t27.5 47.5h10q-28 -115 -93 -115q-22 0 -71.5 25t-66.5 25q-19 0 -33 -13.5t-27 -47.5h-11z" />
    <glyph glyph-name="Odieresis" unicode="&#xd6;" horiz-adv-x="745" 
d="M605 773q-16 0 -27.5 11t-11.5 31q0 28 18 50.5t42 22.5q16 0 27 -10.5t11 -30.5q0 -28 -17.5 -51t-41.5 -23zM421 773q-17 0 -28.5 11t-11.5 31q0 28 18 50.5t42 22.5q16 0 27 -10.5t11 -30.5q0 -28 -17.5 -51t-40.5 -23zM328 -17q-115 0 -190.5 81t-75.5 206
q0 82 32 162t86.5 142.5t132.5 101t164 38.5q115 0 190.5 -81t75.5 -206q0 -110 -54 -212t-150.5 -167t-210.5 -65zM331 -4q67 0 128 43.5t102 112t65 152t24 164.5q0 108 -43 170.5t-132 62.5q-90 0 -165.5 -73.5t-115 -181t-39.5 -216.5t43 -171.5t133 -62.5z" />
    <glyph glyph-name="multiply" unicode="&#xd7;" horiz-adv-x="556" 
d="M62 145l229 180l-131 180l14 12l132 -180l229 181l10 -14l-229 -181l132 -179l-15 -12l-132 179l-229 -180z" />
    <glyph glyph-name="Oslash" unicode="&#xd8;" horiz-adv-x="745" 
d="M49 -36h-23l103 109q-67 81 -67 197q0 82 32 162t86.5 142.5t132.5 101t164 38.5q112 0 187 -78l91 97h23l-103 -109q68 -79 68 -197q0 -110 -54 -212t-150.5 -167t-210.5 -65q-112 0 -187 78zM331 -4q67 0 128 43.5t102 112t65 152t24 164.5q0 65 -16 113l-458 -483
q41 -102 155 -102zM155 230q0 -69 15 -114l458 483q-41 102 -153 102q-90 0 -165.5 -73.5t-115 -181t-39.5 -216.5z" />
    <glyph glyph-name="Ugrave" unicode="&#xd9;" horiz-adv-x="765" 
d="M314 626l-100 -378q-11 -39 -11 -80q0 -72 43 -114.5t127 -42.5q97 0 155 50.5t88 166.5l89 336q18 69 2.5 91t-93.5 33l2 9h252l-2 -9q-77 -12 -99.5 -33t-41.5 -91l-93 -353q-29 -109 -94.5 -168.5t-193.5 -59.5q-110 0 -168 54t-58 138q0 39 10 73l102 380
q8 30 -10.5 43.5t-89.5 16.5l2 9h308l-2 -9q-71 -3 -93.5 -16.5t-30.5 -45.5zM544 768l-114 100q-40 36 -40 56q0 15 10.5 25.5t26.5 10.5t27 -13.5t28 -47.5l67 -131h-5z" />
    <glyph glyph-name="Uacute" unicode="&#xda;" horiz-adv-x="765" 
d="M485 768l96 129q29 39 42.5 52t30.5 13q14 0 23.5 -10t9.5 -23q0 -15 -15 -30t-60 -46l-119 -85h-8zM314 626l-100 -378q-11 -39 -11 -80q0 -72 43 -114.5t127 -42.5q97 0 155 50.5t88 166.5l89 336q18 69 2.5 91t-93.5 33l2 9h252l-2 -9q-77 -12 -99.5 -33t-41.5 -91
l-93 -353q-29 -109 -94.5 -168.5t-193.5 -59.5q-110 0 -168 54t-58 138q0 39 10 73l102 380q8 30 -10.5 43.5t-89.5 16.5l2 9h308l-2 -9q-71 -3 -93.5 -16.5t-30.5 -45.5z" />
    <glyph glyph-name="Ucircumflex" unicode="&#xdb;" horiz-adv-x="765" 
d="M406 768l173 182h9l73 -182h-12l-86 98l-142 -98h-15zM314 626l-100 -378q-11 -39 -11 -80q0 -72 43 -114.5t127 -42.5q97 0 155 50.5t88 166.5l89 336q18 69 2.5 91t-93.5 33l2 9h252l-2 -9q-77 -12 -99.5 -33t-41.5 -91l-93 -353q-29 -109 -94.5 -168.5t-193.5 -59.5
q-110 0 -168 54t-58 138q0 39 10 73l102 380q8 30 -10.5 43.5t-89.5 16.5l2 9h308l-2 -9q-71 -3 -93.5 -16.5t-30.5 -45.5z" />
    <glyph glyph-name="Udieresis" unicode="&#xdc;" horiz-adv-x="765" 
d="M630 773q-16 0 -27.5 11t-11.5 31q0 28 18 50.5t42 22.5q16 0 27 -10.5t11 -30.5q0 -28 -17.5 -51t-41.5 -23zM446 773q-17 0 -28.5 11t-11.5 31q0 28 18 50.5t42 22.5q16 0 27 -10.5t11 -30.5q0 -28 -17.5 -51t-40.5 -23zM314 626l-100 -378q-11 -39 -11 -80
q0 -72 43 -114.5t127 -42.5q97 0 155 50.5t88 166.5l89 336q18 69 2.5 91t-93.5 33l2 9h252l-2 -9q-77 -12 -99.5 -33t-41.5 -91l-93 -353q-29 -109 -94.5 -168.5t-193.5 -59.5q-110 0 -168 54t-58 138q0 39 10 73l102 380q8 30 -10.5 43.5t-89.5 16.5l2 9h308l-2 -9
q-71 -3 -93.5 -16.5t-30.5 -45.5z" />
    <glyph glyph-name="Yacute" unicode="&#xdd;" horiz-adv-x="672" 
d="M621 564l-218 -252l-65 -243q-8 -31 12.5 -44.5t96.5 -15.5l-2 -9h-332l2 9q74 3 102 16t36 43l65 243l-102 295q-16 48 -34.5 62t-71.5 21l2 8h306l-2 -9q-64 -2 -91.5 -9.5t-31 -24t7.5 -44.5l94 -280l207 242q52 59 43 84.5t-86 31.5l2 9h250l-2 -9q-62 -6 -91.5 -27
t-96.5 -97zM463 768l96 129q29 39 42.5 52t30.5 13q14 0 23.5 -10t9.5 -23q0 -15 -15 -30t-60 -46l-119 -85h-8z" />
    <glyph glyph-name="Thorn" unicode="&#xde;" horiz-adv-x="621" 
d="M-36 0l2 9q74 3 100.5 16t34.5 43l149 560q8 30 -10.5 43.5t-89.5 16.5l2 9h308l-2 -9q-71 -3 -93.5 -16.5t-30.5 -45.5l-20 -75h36q74 0 127 -14t79.5 -38.5t37.5 -51t11 -57.5q0 -97 -86 -160.5t-232 -63.5h-77l-25 -97q-8 -29 11.5 -43t93.5 -17l-2 -9h-324zM215 182
h68q66 0 114 20t72.5 54t35.5 71.5t11 81.5q0 65 -35.5 96t-120.5 31h-50z" />
    <glyph glyph-name="germandbls" unicode="&#xdf;" horiz-adv-x="495" 
d="M-75 -200q-43 0 -69.5 18t-26.5 47q0 20 13 34t33 14t32 -13t12 -31q0 -27 -23 -42q12 -13 35 -13q35 0 57.5 34t44.5 137l113 512q50 226 199 226q61 0 101 -31.5t40 -84.5q0 -37 -28.5 -69.5t-62.5 -53t-62.5 -51t-28.5 -64.5q0 -26 25 -53.5t54.5 -49t54.5 -57
t25 -74.5q0 -58 -38.5 -101.5t-116.5 -43.5q-52 0 -88 24.5t-36 61.5q0 23 13.5 38.5t34.5 15.5q19 0 30.5 -12.5t11.5 -32.5q0 -29 -29 -46q7 -12 26 -23.5t47 -11.5q39 0 65 27t26 67q0 37 -23.5 68.5t-51 51t-51 50t-23.5 65.5q0 31 16 58t39 48t46.5 43.5t39.5 55
t16 72.5q0 45 -20.5 72.5t-55.5 27.5q-82 0 -118 -166l-97 -456q-35 -167 -79 -227.5t-122 -60.5z" />
    <glyph glyph-name="agrave" unicode="&#xe0;" horiz-adv-x="519" 
d="M447 304l-56 -205q-9 -34 -9 -49q0 -42 88 -32v-6q-50 -22 -94 -22q-33 0 -50 9.5t-17 37.5q0 24 10 55l-2 1q-35 -54 -70.5 -78.5t-80.5 -24.5q-61 0 -96 41t-35 115q0 111 83 215t185 104q71 0 101 -64l20 54l77 11zM307 451q-51 0 -96.5 -54t-70 -123.5t-24.5 -124.5
q0 -56 21.5 -91.5t60.5 -35.5q36 0 69.5 33.5t56.5 76.5l68 232q-8 43 -31.5 65t-53.5 22zM366 528l-114 100q-40 36 -40 56q0 15 10.5 25.5t26.5 10.5t27 -13.5t28 -47.5l67 -131h-5z" />
    <glyph glyph-name="aacute" unicode="&#xe1;" horiz-adv-x="519" 
d="M447 304l-56 -205q-9 -34 -9 -49q0 -42 88 -32v-6q-50 -22 -94 -22q-33 0 -50 9.5t-17 37.5q0 24 10 55l-2 1q-35 -54 -70.5 -78.5t-80.5 -24.5q-61 0 -96 41t-35 115q0 111 83 215t185 104q71 0 101 -64l20 54l77 11zM307 451q-51 0 -96.5 -54t-70 -123.5t-24.5 -124.5
q0 -56 21.5 -91.5t60.5 -35.5q36 0 69.5 33.5t56.5 76.5l68 232q-8 43 -31.5 65t-53.5 22zM304 528l96 129q29 39 42.5 52t30.5 13q13 0 23 -10t10 -23q0 -15 -15 -30t-60 -46l-119 -85h-8z" />
    <glyph glyph-name="acircumflex" unicode="&#xe2;" horiz-adv-x="519" 
d="M447 304l-56 -205q-9 -34 -9 -49q0 -42 88 -32v-6q-50 -22 -94 -22q-33 0 -50 9.5t-17 37.5q0 24 10 55l-2 1q-35 -54 -70.5 -78.5t-80.5 -24.5q-61 0 -96 41t-35 115q0 111 83 215t185 104q71 0 101 -64l20 54l77 11zM307 451q-51 0 -96.5 -54t-70 -123.5t-24.5 -124.5
q0 -56 21.5 -91.5t60.5 -35.5q36 0 69.5 33.5t56.5 76.5l68 232q-8 43 -31.5 65t-53.5 22zM211 528l173 182h9l73 -182h-12l-86 98l-142 -98h-15z" />
    <glyph glyph-name="atilde" unicode="&#xe3;" horiz-adv-x="519" 
d="M447 304l-56 -205q-9 -34 -9 -49q0 -42 88 -32v-6q-50 -22 -94 -22q-33 0 -50 9.5t-17 37.5q0 24 10 55l-2 1q-35 -54 -70.5 -78.5t-80.5 -24.5q-61 0 -96 41t-35 115q0 111 83 215t185 104q71 0 101 -64l20 54l77 11zM307 451q-51 0 -96.5 -54t-70 -123.5t-24.5 -124.5
q0 -56 21.5 -91.5t60.5 -35.5q36 0 69.5 33.5t56.5 76.5l68 232q-8 43 -31.5 65t-53.5 22zM208 524q28 114 94 114q21 0 70.5 -24.5t67.5 -24.5q19 0 32.5 13.5t27.5 47.5h10q-28 -115 -93 -115q-22 0 -71.5 25t-66.5 25q-19 0 -33 -13.5t-27 -47.5h-11z" />
    <glyph glyph-name="adieresis" unicode="&#xe4;" horiz-adv-x="519" 
d="M447 304l-56 -205q-9 -34 -9 -49q0 -42 88 -32v-6q-50 -22 -94 -22q-33 0 -50 9.5t-17 37.5q0 24 10 55l-2 1q-35 -54 -70.5 -78.5t-80.5 -24.5q-61 0 -96 41t-35 115q0 111 83 215t185 104q71 0 101 -64l20 54l77 11zM307 451q-51 0 -96.5 -54t-70 -123.5t-24.5 -124.5
q0 -56 21.5 -91.5t60.5 -35.5q36 0 69.5 33.5t56.5 76.5l68 232q-8 43 -31.5 65t-53.5 22zM445 533q-16 0 -27.5 11t-11.5 31q0 28 18 50.5t42 22.5q16 0 27 -10.5t11 -30.5q0 -28 -17.5 -51t-41.5 -23zM261 533q-17 0 -28.5 11t-11.5 31q0 28 18 50.5t42 22.5
q16 0 27 -10.5t11 -30.5q0 -28 -17.5 -51t-40.5 -23z" />
    <glyph glyph-name="aring" unicode="&#xe5;" horiz-adv-x="519" 
d="M447 304l-56 -205q-9 -34 -9 -49q0 -42 88 -32v-6q-50 -22 -94 -22q-33 0 -50 9.5t-17 37.5q0 24 10 55l-2 1q-35 -54 -70.5 -78.5t-80.5 -24.5q-61 0 -96 41t-35 115q0 111 83 215t185 104q71 0 101 -64l20 54l77 11zM307 451q-51 0 -96.5 -54t-70 -123.5t-24.5 -124.5
q0 -56 21.5 -91.5t60.5 -35.5q36 0 69.5 33.5t56.5 76.5l68 232q-8 43 -31.5 65t-53.5 22zM360 533q-42 0 -66.5 24t-24.5 61q0 49 36 84t89 35q42 0 67 -24.5t25 -60.5q0 -49 -36.5 -84t-89.5 -35zM359 545q36 0 59.5 39t23.5 82q0 28 -12 43.5t-34 15.5q-36 0 -59.5 -39
t-23.5 -82q0 -28 12 -43.5t34 -15.5z" />
    <glyph glyph-name="ae" unicode="&#xe6;" horiz-adv-x="720" 
d="M594 465q58 0 90.5 -27t32.5 -71q0 -63 -78.5 -105t-233.5 -41q-5 -33 -5 -58q0 -75 26 -110.5t83 -35.5q78 0 145 85l10 -9q-82 -103 -188 -103q-61 0 -105 36t-47 111h-2q-24 -68 -76 -107.5t-109 -39.5q-56 0 -87 27t-31 74q0 69 87.5 109t228.5 39q8 37 8 88
q0 122 -92 122q-71 0 -99 -44q35 -11 35 -45q0 -22 -12.5 -34.5t-32.5 -12.5q-22 0 -35 14t-13 35q0 41 48 71.5t114 30.5q123 0 142 -98h2q79 99 194 99zM169 24q60 0 107 60.5t55 142.5q-237 -6 -237 -124q0 -37 19.5 -58t55.5 -21zM590 450q-60 0 -111.5 -65t-70.5 -151
q238 3 238 154q0 62 -56 62z" />
    <glyph glyph-name="ccedilla" unicode="&#xe7;" 
d="M128 -247q-47 0 -88 26l6 10q39 -21 77 -21q32 0 54 19t22 51q0 28 -21 42.5t-54 14.5q-14 0 -30 -3l-3 8l119 90h-6q-74 0 -122.5 49.5t-48.5 134.5q0 111 77.5 201t180.5 90q55 0 89.5 -24t34.5 -59q0 -24 -14 -39t-35 -15q-22 0 -35.5 13t-13.5 34q0 14 10.5 29
t29.5 23q-18 24 -59 24q-78 0 -132 -90.5t-54 -188.5q0 -74 31 -114t88 -40q74 0 137 80l9 -9q-66 -86 -143 -97l-86 -65l2 -3q52 -1 77.5 -22t25.5 -55q0 -40 -35 -67t-90 -27z" />
    <glyph glyph-name="egrave" unicode="&#xe8;" 
d="M427 367q0 -63 -78.5 -105t-233.5 -41q-5 -33 -5 -58q0 -75 26 -110.5t83 -35.5q78 0 145 85l10 -9q-82 -103 -188 -103q-66 0 -111 41t-45 127q0 116 81 211.5t193 95.5q58 0 90.5 -27t32.5 -71zM300 450q-60 0 -111.5 -65t-70.5 -151q238 3 238 154q0 62 -56 62z
M325 528l-114 100q-40 36 -40 56q0 15 10.5 25.5t26.5 10.5t27 -13.5t28 -47.5l67 -131h-5z" />
    <glyph glyph-name="eacute" unicode="&#xe9;" 
d="M427 367q0 -63 -78.5 -105t-233.5 -41q-5 -33 -5 -58q0 -75 26 -110.5t83 -35.5q78 0 145 85l10 -9q-82 -103 -188 -103q-66 0 -111 41t-45 127q0 116 81 211.5t193 95.5q58 0 90.5 -27t32.5 -71zM300 450q-60 0 -111.5 -65t-70.5 -151q238 3 238 154q0 62 -56 62z
M269 528l96 129q29 39 42.5 52t30.5 13q14 0 23.5 -10t9.5 -23q0 -15 -15 -30t-60 -46l-119 -85h-8z" />
    <glyph glyph-name="ecircumflex" unicode="&#xea;" 
d="M427 367q0 -63 -78.5 -105t-233.5 -41q-5 -33 -5 -58q0 -75 26 -110.5t83 -35.5q78 0 145 85l10 -9q-82 -103 -188 -103q-66 0 -111 41t-45 127q0 116 81 211.5t193 95.5q58 0 90.5 -27t32.5 -71zM300 450q-60 0 -111.5 -65t-70.5 -151q238 3 238 154q0 62 -56 62z
M179 528l173 182h9l73 -182h-12l-86 98l-142 -98h-15z" />
    <glyph glyph-name="edieresis" unicode="&#xeb;" 
d="M427 367q0 -63 -78.5 -105t-233.5 -41q-5 -33 -5 -58q0 -75 26 -110.5t83 -35.5q78 0 145 85l10 -9q-82 -103 -188 -103q-66 0 -111 41t-45 127q0 116 81 211.5t193 95.5q58 0 90.5 -27t32.5 -71zM300 450q-60 0 -111.5 -65t-70.5 -151q238 3 238 154q0 62 -56 62z
M407 533q-16 0 -27.5 11t-11.5 31q0 28 18 50.5t42 22.5q16 0 27 -10.5t11 -30.5q0 -28 -17.5 -51t-41.5 -23zM223 533q-17 0 -28.5 11t-11.5 31q0 28 18 50.5t42 22.5q16 0 27 -10.5t11 -30.5q0 -28 -17.5 -51t-40.5 -23z" />
    <glyph glyph-name="igrave" unicode="&#xec;" horiz-adv-x="281" 
d="M224 21v-6q-60 -24 -106 -24q-70 0 -70 60q0 18 9 48l92 296q7 24 -12 35.5t-68 14.5v9l177 7l-114 -364q-9 -32 -9 -43q0 -24 23 -31t78 -2zM226 528l-114 100q-40 36 -40 56q0 15 10.5 25.5t26.5 10.5t27 -13.5t28 -47.5l67 -131h-5z" />
    <glyph glyph-name="iacute" unicode="&#xed;" horiz-adv-x="281" 
d="M164 528l96 129q29 39 42.5 52t30.5 13q13 0 23 -10t10 -23q0 -15 -15 -30t-60 -46l-119 -85h-8zM224 21v-6q-60 -24 -106 -24q-70 0 -70 60q0 18 9 48l92 296q7 24 -12 35.5t-68 14.5v9l177 7l-114 -364q-9 -32 -9 -43q0 -24 23 -31t78 -2z" />
    <glyph glyph-name="icircumflex" unicode="&#xee;" horiz-adv-x="281" 
d="M73 528l173 182h9l73 -182h-12l-86 98l-142 -98h-15zM224 21v-6q-60 -24 -106 -24q-70 0 -70 60q0 18 9 48l92 296q7 24 -12 35.5t-68 14.5v9l177 7l-114 -364q-9 -32 -9 -43q0 -24 23 -31t78 -2z" />
    <glyph glyph-name="idieresis" unicode="&#xef;" horiz-adv-x="281" 
d="M304 533q-16 0 -27.5 11t-11.5 31q0 28 18 50.5t42 22.5q16 0 27 -10.5t11 -30.5q0 -28 -17.5 -51t-41.5 -23zM120 533q-17 0 -28.5 11t-11.5 31q0 28 18 50.5t42 22.5q16 0 27 -10.5t11 -30.5q0 -28 -17.5 -51t-40.5 -23zM224 21v-6q-60 -24 -106 -24q-70 0 -70 60
q0 18 9 48l92 296q7 24 -12 35.5t-68 14.5v9l177 7l-114 -364q-9 -32 -9 -43q0 -24 23 -31t78 -2z" />
    <glyph glyph-name="eth" unicode="&#xf0;" horiz-adv-x="491" 
d="M294 606l-130 -76l-8 14l128 74q-50 51 -134 89l5 10q97 -31 162 -80l86 50l7 -14l-80 -46q129 -104 126 -295q-2 -147 -72.5 -244.5t-187.5 -97.5q-73 0 -118 51.5t-45 135.5q0 72 30 137t90 108t136 43q43 0 77 -23q-14 100 -72 164zM197 4q43 0 79.5 34.5t57.5 85
t32.5 101t11.5 90.5q0 137 -93 137q-43 0 -79.5 -34.5t-57.5 -85t-32.5 -101t-11.5 -90.5q0 -137 93 -137z" />
    <glyph glyph-name="ntilde" unicode="&#xf1;" horiz-adv-x="523" 
d="M70 162l61 230q7 27 -6.5 38.5t-59.5 14.5v8l157 7l-32 -99l2 -2q114 105 194 105q44 0 67.5 -23t23.5 -66q0 -29 -12 -66l-71 -217q-9 -27 -9 -44q0 -23 20 -29t71 -1v-6q-52 -21 -92 -21q-72 0 -72 55q0 20 9 49l68 211q11 33 11 56q0 54 -60 54q-59 0 -153 -76
l-83 -340h-83zM195 524q28 114 94 114q21 0 70.5 -24.5t67.5 -24.5q19 0 32.5 13.5t27.5 47.5h10q-28 -115 -93 -115q-22 0 -71.5 25t-66.5 25q-19 0 -33 -13.5t-27 -47.5h-11z" />
    <glyph glyph-name="ograve" unicode="&#xf2;" horiz-adv-x="485" 
d="M289 465q72 0 118.5 -52t46.5 -135q0 -110 -73 -199t-185 -89q-71 0 -118 52.5t-47 134.5q0 111 73 199.5t185 88.5zM199 4q55 0 98.5 57t62.5 126.5t19 128.5q0 136 -92 136q-42 0 -78 -33.5t-57.5 -83t-33.5 -101.5t-12 -95q0 -135 93 -135zM335 528l-114 100
q-40 36 -40 56q0 15 10.5 25.5t26.5 10.5t27 -13.5t28 -47.5l67 -131h-5z" />
    <glyph glyph-name="oacute" unicode="&#xf3;" horiz-adv-x="485" 
d="M274 528l96 129q29 39 42.5 52t30.5 13q13 0 23 -10t10 -23q0 -15 -15 -30t-60 -46l-119 -85h-8zM289 465q72 0 118.5 -52t46.5 -135q0 -110 -73 -199t-185 -89q-71 0 -118 52.5t-47 134.5q0 111 73 199.5t185 88.5zM199 4q55 0 98.5 57t62.5 126.5t19 128.5
q0 136 -92 136q-42 0 -78 -33.5t-57.5 -83t-33.5 -101.5t-12 -95q0 -135 93 -135z" />
    <glyph glyph-name="ocircumflex" unicode="&#xf4;" horiz-adv-x="485" 
d="M179 528l173 182h9l73 -182h-12l-86 98l-142 -98h-15zM289 465q72 0 118.5 -52t46.5 -135q0 -110 -73 -199t-185 -89q-71 0 -118 52.5t-47 134.5q0 111 73 199.5t185 88.5zM199 4q55 0 98.5 57t62.5 126.5t19 128.5q0 136 -92 136q-42 0 -78 -33.5t-57.5 -83
t-33.5 -101.5t-12 -95q0 -135 93 -135z" />
    <glyph glyph-name="otilde" unicode="&#xf5;" horiz-adv-x="485" 
d="M289 465q72 0 118.5 -52t46.5 -135q0 -110 -73 -199t-185 -89q-71 0 -118 52.5t-47 134.5q0 111 73 199.5t185 88.5zM199 4q55 0 98.5 57t62.5 126.5t19 128.5q0 136 -92 136q-42 0 -78 -33.5t-57.5 -83t-33.5 -101.5t-12 -95q0 -135 93 -135zM176 524q28 114 94 114
q21 0 70.5 -24.5t67.5 -24.5q19 0 32.5 13.5t27.5 47.5h10q-28 -115 -93 -115q-22 0 -71.5 25t-66.5 25q-19 0 -33 -13.5t-27 -47.5h-11z" />
    <glyph glyph-name="odieresis" unicode="&#xf6;" horiz-adv-x="485" 
d="M412 533q-16 0 -27.5 11t-11.5 31q0 28 18 50.5t42 22.5q16 0 27 -10.5t11 -30.5q0 -28 -17.5 -51t-41.5 -23zM228 533q-17 0 -28.5 11t-11.5 31q0 28 18 50.5t42 22.5q16 0 27 -10.5t11 -30.5q0 -28 -17.5 -51t-40.5 -23zM289 465q72 0 118.5 -52t46.5 -135
q0 -110 -73 -199t-185 -89q-71 0 -118 52.5t-47 134.5q0 111 73 199.5t185 88.5zM199 4q55 0 98.5 57t62.5 126.5t19 128.5q0 136 -92 136q-42 0 -78 -33.5t-57.5 -83t-33.5 -101.5t-12 -95q0 -135 93 -135z" />
    <glyph glyph-name="divide" unicode="&#xf7;" horiz-adv-x="576" 
d="M546 317h-468l4 17h468zM353 416q-23 0 -39 16t-16 38t16 38t39 16t39 -15.5t16 -37.5q0 -23 -16 -39t-39 -16zM276 126q-23 0 -39 15.5t-16 38.5t16 38.5t39 15.5q22 0 38 -15.5t16 -37.5q0 -23 -15.5 -39t-38.5 -16z" />
    <glyph glyph-name="oslash" unicode="&#xf8;" horiz-adv-x="485" 
d="M17 -23l59 68q-45 51 -45 132q0 111 73 199.5t185 88.5q66 0 111 -45l50 58h19l-59 -68q44 -54 44 -132q0 -110 -73 -199t-185 -89q-66 0 -111 45l-50 -58h-18zM106 139q0 -26 5 -53l259 300q-20 66 -83 66q-42 0 -78 -33.5t-57.5 -83t-33.5 -101.5t-12 -95zM199 4
q55 0 98.5 57t62.5 126.5t19 128.5q0 26 -5 53l-259 -300q19 -65 84 -65z" />
    <glyph glyph-name="ugrave" unicode="&#xf9;" horiz-adv-x="541" 
d="M60 144l79 249q9 26 -5.5 38t-60.5 15v8l160 7l-97 -312q-9 -31 -9 -54q0 -56 66 -56q56 0 142 77l56 186l39 157h82l-109 -364q-8 -27 -8 -43q0 -24 19.5 -31.5t68.5 -2.5v-6q-44 -22 -96 -22q-67 0 -67 51q0 20 12 52l-2 3q-103 -106 -182 -106q-47 0 -73 24.5
t-26 66.5q0 27 11 63zM356 528l-114 100q-40 36 -40 56q0 15 10.5 25.5t26.5 10.5t27 -13.5t28 -47.5l67 -131h-5z" />
    <glyph glyph-name="uacute" unicode="&#xfa;" horiz-adv-x="541" 
d="M294 528l96 129q29 39 42.5 52t30.5 13q13 0 23 -10t10 -23q0 -15 -15 -30t-60 -46l-119 -85h-8zM60 144l79 249q9 26 -5.5 38t-60.5 15v8l160 7l-97 -312q-9 -31 -9 -54q0 -56 66 -56q56 0 142 77l56 186l39 157h82l-109 -364q-8 -27 -8 -43q0 -24 19.5 -31.5t68.5 -2.5
v-6q-44 -22 -96 -22q-67 0 -67 51q0 20 12 52l-2 3q-103 -106 -182 -106q-47 0 -73 24.5t-26 66.5q0 27 11 63z" />
    <glyph glyph-name="ucircumflex" unicode="&#xfb;" horiz-adv-x="541" 
d="M208 528l173 182h9l73 -182h-12l-86 98l-142 -98h-15zM60 144l79 249q9 26 -5.5 38t-60.5 15v8l160 7l-97 -312q-9 -31 -9 -54q0 -56 66 -56q56 0 142 77l56 186l39 157h82l-109 -364q-8 -27 -8 -43q0 -24 19.5 -31.5t68.5 -2.5v-6q-44 -22 -96 -22q-67 0 -67 51
q0 20 12 52l-2 3q-103 -106 -182 -106q-47 0 -73 24.5t-26 66.5q0 27 11 63z" />
    <glyph glyph-name="udieresis" unicode="&#xfc;" horiz-adv-x="541" 
d="M437 533q-16 0 -27.5 11t-11.5 31q0 28 18 50.5t42 22.5q16 0 27 -10.5t11 -30.5q0 -28 -17.5 -51t-41.5 -23zM253 533q-17 0 -28.5 11t-11.5 31q0 28 18 50.5t42 22.5q16 0 27 -10.5t11 -30.5q0 -28 -17.5 -51t-40.5 -23zM60 144l79 249q9 26 -5.5 38t-60.5 15v8l160 7
l-97 -312q-9 -31 -9 -54q0 -56 66 -56q56 0 142 77l56 186l39 157h82l-109 -364q-8 -27 -8 -43q0 -24 19.5 -31.5t68.5 -2.5v-6q-44 -22 -96 -22q-67 0 -67 51q0 20 12 52l-2 3q-103 -106 -182 -106q-47 0 -73 24.5t-26 66.5q0 27 11 63z" />
    <glyph glyph-name="yacute" unicode="&#xfd;" horiz-adv-x="443" 
d="M161 462l30 -185l36 -237h2l69 113q68 109 88 201q-56 19 -56 63q0 22 13.5 36t34.5 14q25 0 39 -18t14 -45q0 -39 -28.5 -100t-118.5 -208q-76 -124 -133.5 -192.5t-89 -86t-64.5 -17.5t-50.5 17t-17.5 44q0 22 14.5 37.5t35.5 15.5t34.5 -14t13.5 -38q0 -22 -6 -32
q82 22 151 130l-38 220l-37 215q-5 29 -18.5 37.5t-56.5 7.5v8zM228 528l96 129q29 39 42.5 52t30.5 13q13 0 23 -10t10 -23q0 -15 -15 -30t-60 -46l-119 -85h-8z" />
    <glyph glyph-name="thorn" unicode="&#xfe;" horiz-adv-x="503" 
d="M192 381q79 84 155 84q53 0 88.5 -39t35.5 -110q0 -74 -36.5 -148t-101.5 -123.5t-139 -49.5q-51 0 -94 25l-41 -157q-7 -28 9 -36.5t80 -9.5v-9h-252v8q45 3 62 12.5t23 31.5l36 123l69 272l100 393q7 26 -12 38t-73 15v8l184 8l-95 -334zM203 10q53 0 98 46t68.5 113
t23.5 135q0 58 -24.5 86.5t-67.5 28.5q-62 0 -115 -60l-74 -293q12 -25 37 -40.5t54 -15.5z" />
    <glyph glyph-name="ydieresis" unicode="&#xff;" horiz-adv-x="443" 
d="M161 462l30 -185l36 -237h2l69 113q68 109 88 201q-56 19 -56 63q0 22 13.5 36t34.5 14q25 0 39 -18t14 -45q0 -39 -28.5 -100t-118.5 -208q-76 -124 -133.5 -192.5t-89 -86t-64.5 -17.5t-50.5 17t-17.5 44q0 22 14.5 37.5t35.5 15.5t34.5 -14t13.5 -38q0 -22 -6 -32
q82 22 151 130l-38 220l-37 215q-5 29 -18.5 37.5t-56.5 7.5v8zM382 533q-16 0 -27.5 11t-11.5 31q0 28 18 50.5t42 22.5q16 0 27 -10.5t11 -30.5q0 -28 -17.5 -51t-41.5 -23zM198 533q-17 0 -28.5 11t-11.5 31q0 28 18 50.5t42 22.5q16 0 27 -10.5t11 -30.5
q0 -28 -17.5 -51t-40.5 -23z" />
    <glyph glyph-name="Amacron" unicode="&#x100;" horiz-adv-x="671" 
d="M-69 0l3 9q62 9 96 39.5t90 118.5l347 541h15l82 -599q9 -61 23.5 -77t71.5 -23l-3 -9h-276l3 9q71 4 87.5 20t8.5 74l-21 174h-244l-73 -115q-54 -86 -48 -115t77 -38l-2 -9h-237zM456 293l-37 305h-3l-192 -305h232zM361 798l7 29h251l-7 -29h-251z" />
    <glyph glyph-name="amacron" unicode="&#x101;" horiz-adv-x="519" 
d="M447 304l-56 -205q-9 -34 -9 -49q0 -42 88 -32v-6q-50 -22 -94 -22q-33 0 -50 9.5t-17 37.5q0 24 10 55l-2 1q-35 -54 -70.5 -78.5t-80.5 -24.5q-61 0 -96 41t-35 115q0 111 83 215t185 104q71 0 101 -64l20 54l77 11zM307 451q-51 0 -96.5 -54t-70 -123.5t-24.5 -124.5
q0 -56 21.5 -91.5t60.5 -35.5q36 0 69.5 33.5t56.5 76.5l68 232q-8 43 -31.5 65t-53.5 22zM221 558l7 29h251l-7 -29h-251z" />
    <glyph glyph-name="Abreve" unicode="&#x102;" horiz-adv-x="671" 
d="M-69 0l3 9q62 9 96 39.5t90 118.5l347 541h15l82 -599q9 -61 23.5 -77t71.5 -23l-3 -9h-276l3 9q71 4 87.5 20t8.5 74l-21 174h-244l-73 -115q-54 -86 -48 -115t77 -38l-2 -9h-237zM456 293l-37 305h-3l-192 -305h232zM474 773q-56 0 -82.5 40t-15.5 109h12
q5 -93 100 -93q50 0 82 23t58 70h14q-50 -149 -168 -149z" />
    <glyph glyph-name="abreve" unicode="&#x103;" horiz-adv-x="519" 
d="M447 304l-56 -205q-9 -34 -9 -49q0 -42 88 -32v-6q-50 -22 -94 -22q-33 0 -50 9.5t-17 37.5q0 24 10 55l-2 1q-35 -54 -70.5 -78.5t-80.5 -24.5q-61 0 -96 41t-35 115q0 111 83 215t185 104q71 0 101 -64l20 54l77 11zM307 451q-51 0 -96.5 -54t-70 -123.5t-24.5 -124.5
q0 -56 21.5 -91.5t60.5 -35.5q36 0 69.5 33.5t56.5 76.5l68 232q-8 43 -31.5 65t-53.5 22zM336 533q-56 0 -82.5 40t-15.5 109h12q5 -93 100 -93q50 0 82 23t58 70h14q-50 -149 -168 -149z" />
    <glyph glyph-name="Aogonek" unicode="&#x104;" horiz-adv-x="683" 
d="M443 -243q-36 0 -59 19.5t-23 52.5q0 44 36 76t121 75l40 20h-178l3 9q71 4 87.5 20t8.5 74l-21 174h-244l-73 -115q-54 -86 -48 -115t77 -38l-2 -9h-237l3 9q62 9 96 39.5t90 118.5l347 541h15l82 -599q9 -61 23.5 -77t71.5 -23l-3 -9h-76l-49 -30q-59 -37 -83 -66
t-24 -65q0 -23 15 -39.5t41 -16.5q23 0 60 16l4 -8q-54 -34 -101 -34zM456 293l-37 305h-3l-192 -305h232z" />
    <glyph glyph-name="aogonek" unicode="&#x105;" horiz-adv-x="519" 
d="M307 -243q-36 0 -59 19.5t-23 52.5q0 42 35 75t113 71l37 19q-26 -4 -34 -4q-33 0 -50 9.5t-17 37.5q0 24 10 55l-2 1q-35 -54 -70.5 -78.5t-80.5 -24.5q-61 0 -96 41t-35 115q0 111 83 215t185 104q71 0 101 -64l20 54l77 11l-54 -162l-56 -205q-9 -34 -9 -49
q0 -42 88 -32v-6q-24 -11 -63 -34q-66 -38 -92.5 -70.5t-26.5 -68.5q0 -23 14.5 -39.5t40.5 -16.5q24 0 61 16l3 -8q-54 -34 -100 -34zM198 22q36 0 69.5 33.5t56.5 76.5l68 232q-8 43 -31.5 65t-53.5 22q-51 0 -96.5 -54t-70 -123.5t-24.5 -124.5q0 -56 21.5 -91.5
t60.5 -35.5z" />
    <glyph glyph-name="Cacute" unicode="&#x106;" horiz-adv-x="676" 
d="M431 768l96 129q29 39 42.5 52t30.5 13q14 0 23.5 -10t9.5 -23q0 -15 -15 -30t-60 -46l-119 -85h-8zM334 -17q-121 0 -197 81t-76 214q0 82 31 160.5t85 139.5t133.5 98.5t168.5 37.5q52 0 102 -16.5t80 -37.5l52 51h10l-61 -218h-11q-19 119 -57 163.5t-121 44.5
q-70 0 -131 -39.5t-101 -102t-63 -139t-23 -152.5q0 -112 57.5 -182t156.5 -70q145 0 259 174l11 -8q-128 -199 -305 -199z" />
    <glyph glyph-name="cacute" unicode="&#x107;" 
d="M258 528l96 129q29 39 42.5 52t30.5 13q13 0 23 -10t10 -23q0 -15 -15 -30t-60 -46l-119 -85h-8zM291 465q55 0 89.5 -24t34.5 -59q0 -24 -14 -39t-35 -15q-22 0 -35.5 13t-13.5 34q0 14 10.5 29t29.5 23q-18 24 -59 24q-78 0 -132 -90.5t-54 -188.5q0 -74 31 -114
t88 -40q74 0 137 80l9 -9q-77 -99 -173 -99q-74 0 -122.5 49.5t-48.5 134.5q0 111 77.5 201t180.5 90z" />
    <glyph glyph-name="Cdotaccent" unicode="&#x10a;" horiz-adv-x="676" 
d="M334 -17q-121 0 -197 81t-76 214q0 82 31 160.5t85 139.5t133.5 98.5t168.5 37.5q52 0 102 -16.5t80 -37.5l52 51h10l-61 -218h-11q-19 119 -57 163.5t-121 44.5q-70 0 -131 -39.5t-101 -102t-63 -139t-23 -152.5q0 -112 57.5 -182t156.5 -70q145 0 259 174l11 -8
q-128 -199 -305 -199zM498 773q-17 0 -28 11t-11 32q0 28 17.5 50.5t41.5 22.5q17 0 28 -10.5t11 -30.5q0 -29 -17.5 -52t-41.5 -23z" />
    <glyph glyph-name="cdotaccent" unicode="&#x10b;" 
d="M291 465q55 0 89.5 -24t34.5 -59q0 -24 -14 -39t-35 -15q-22 0 -35.5 13t-13.5 34q0 14 10.5 29t29.5 23q-18 24 -59 24q-78 0 -132 -90.5t-54 -188.5q0 -74 31 -114t88 -40q74 0 137 80l9 -9q-77 -99 -173 -99q-74 0 -122.5 49.5t-48.5 134.5q0 111 77.5 201t180.5 90z
M311 533q-17 0 -28 11t-11 32q0 28 17.5 50.5t41.5 22.5q17 0 28 -10.5t11 -30.5q0 -29 -17.5 -52t-41.5 -23z" />
    <glyph glyph-name="Ccaron" unicode="&#x10c;" horiz-adv-x="676" 
d="M481 768l-72 182h11l87 -98l141 98h15l-173 -182h-9zM334 -17q-121 0 -197 81t-76 214q0 82 31 160.5t85 139.5t133.5 98.5t168.5 37.5q52 0 102 -16.5t80 -37.5l52 51h10l-61 -218h-11q-19 119 -57 163.5t-121 44.5q-70 0 -131 -39.5t-101 -102t-63 -139t-23 -152.5
q0 -112 57.5 -182t156.5 -70q145 0 259 174l11 -8q-128 -199 -305 -199z" />
    <glyph glyph-name="ccaron" unicode="&#x10d;" 
d="M296 528l-72 182h11l87 -98l141 98h15l-173 -182h-9zM291 465q55 0 89.5 -24t34.5 -59q0 -24 -14 -39t-35 -15q-22 0 -35.5 13t-13.5 34q0 14 10.5 29t29.5 23q-18 24 -59 24q-78 0 -132 -90.5t-54 -188.5q0 -74 31 -114t88 -40q74 0 137 80l9 -9q-77 -99 -173 -99
q-74 0 -122.5 49.5t-48.5 134.5q0 111 77.5 201t180.5 90z" />
    <glyph glyph-name="Dcaron" unicode="&#x10e;" horiz-adv-x="750" 
d="M491 768l-72 182h11l87 -98l141 98h15l-173 -182h-9zM101 68l150 560q8 30 -9.5 43t-85.5 17l2 9h243q172 0 257 -77t85 -201q0 -78 -31.5 -155t-90.5 -136q-128 -128 -333 -128h-318l2 9q70 4 95.5 16.5t33.5 42.5zM172 16h127q131 0 221 90q62 62 95 155.5t33 199.5
q0 112 -56.5 166.5t-180.5 54.5h-61z" />
    <glyph glyph-name="dcaron" unicode="&#x10f;" horiz-adv-x="513" 
d="M559 717l-168 -606q-10 -38 -10 -54q0 -50 92 -39v-6q-44 -22 -97 -22q-69 0 -69 54q0 18 6 42h-2q-70 -96 -148 -96q-60 0 -94.5 45t-34.5 119q0 66 34 138t94.5 122.5t128.5 50.5q64 0 109 -47l61 230q7 26 -12.5 38t-73.5 15v8zM295 451q-41 0 -77 -33t-57.5 -80.5
t-34 -96.5t-12.5 -86q0 -58 23.5 -91.5t64.5 -33.5q64 0 114 88l74 252q-12 36 -37.5 58.5t-57.5 22.5zM607 533l42 154q10 38 20 52.5t28 14.5q15 0 24 -9.5t9 -22.5q0 -19 -25 -56l-90 -133h-8z" />
    <glyph glyph-name="Dcroat" unicode="&#x110;" horiz-adv-x="750" 
d="M101 68l76 286h-97l5 19h97l69 255q8 30 -9.5 43t-85.5 17l2 9h243q172 0 257 -77t85 -201q0 -78 -31.5 -155t-90.5 -136q-128 -128 -333 -128h-318l2 9q70 4 95.5 16.5t33.5 42.5zM172 16h127q131 0 221 90q62 62 95 155.5t33 199.5q0 112 -56.5 166.5t-180.5 54.5h-61
l-83 -309h155l-5 -19h-155z" />
    <glyph glyph-name="dcroat" unicode="&#x111;" horiz-adv-x="513" 
d="M559 717l-35 -126h71l-5 -15h-70l-129 -465q-10 -38 -10 -54q0 -50 92 -39v-6q-44 -22 -97 -22q-69 0 -69 54q0 18 6 42h-2q-70 -96 -148 -96q-60 0 -94.5 45t-34.5 119q0 66 34 138t94.5 122.5t128.5 50.5q64 0 109 -47l42 158h-147l5 15h146l15 57q7 26 -12.5 38
t-73.5 15v8zM295 451q-41 0 -77 -33t-57.5 -80.5t-34 -96.5t-12.5 -86q0 -58 23.5 -91.5t64.5 -33.5q64 0 114 88l74 252q-12 36 -37.5 58.5t-57.5 22.5z" />
    <glyph glyph-name="Emacron" unicode="&#x112;" horiz-adv-x="661" 
d="M157 697h548l-49 -198h-11q-6 46 -10 68t-11.5 47.5t-15.5 35t-23.5 19t-35.5 11.5t-51 2h-144l-81 -306h75q59 0 84.5 19.5t70.5 99.5h11l-68 -263h-10q-4 87 -19 108t-73 21h-76l-92 -345h171q96 0 137.5 34t115.5 153q5 7 7 11h11l-64 -214h-584l2 9q73 3 99.5 16
t34.5 43l149 560q8 30 -10.5 43.5t-89.5 16.5zM364 798l7 29h251l-7 -29h-251z" />
    <glyph glyph-name="emacron" unicode="&#x113;" 
d="M427 367q0 -63 -78.5 -105t-233.5 -41q-5 -33 -5 -58q0 -75 26 -110.5t83 -35.5q78 0 145 85l10 -9q-82 -103 -188 -103q-66 0 -111 41t-45 127q0 116 81 211.5t193 95.5q58 0 90.5 -27t32.5 -71zM300 450q-60 0 -111.5 -65t-70.5 -151q238 3 238 154q0 62 -56 62z
M186 558l7 29h251l-7 -29h-251z" />
    <glyph glyph-name="Ebreve" unicode="&#x114;" horiz-adv-x="661" 
d="M157 697h548l-49 -198h-11q-6 46 -10 68t-11.5 47.5t-15.5 35t-23.5 19t-35.5 11.5t-51 2h-144l-81 -306h75q59 0 84.5 19.5t70.5 99.5h11l-68 -263h-10q-4 87 -19 108t-73 21h-76l-92 -345h171q96 0 137.5 34t115.5 153q5 7 7 11h11l-64 -214h-584l2 9q73 3 99.5 16
t34.5 43l149 560q8 30 -10.5 43.5t-89.5 16.5zM478 773q-56 0 -82.5 40t-15.5 109h12q5 -93 100 -93q50 0 82 23t58 70h14q-50 -149 -168 -149z" />
    <glyph glyph-name="ebreve" unicode="&#x115;" 
d="M427 367q0 -63 -78.5 -105t-233.5 -41q-5 -33 -5 -58q0 -75 26 -110.5t83 -35.5q78 0 145 85l10 -9q-82 -103 -188 -103q-66 0 -111 41t-45 127q0 116 81 211.5t193 95.5q58 0 90.5 -27t32.5 -71zM300 450q-60 0 -111.5 -65t-70.5 -151q238 3 238 154q0 62 -56 62z
M300 533q-56 0 -82.5 40t-15.5 109h12q5 -93 100 -93q50 0 82 23t58 70h14q-50 -149 -168 -149z" />
    <glyph glyph-name="Edotaccent" unicode="&#x116;" horiz-adv-x="661" 
d="M157 697h548l-49 -198h-11q-6 46 -10 68t-11.5 47.5t-15.5 35t-23.5 19t-35.5 11.5t-51 2h-144l-81 -306h75q59 0 84.5 19.5t70.5 99.5h11l-68 -263h-10q-4 87 -19 108t-73 21h-76l-92 -345h171q96 0 137.5 34t115.5 153q5 7 7 11h11l-64 -214h-584l2 9q73 3 99.5 16
t34.5 43l149 560q8 30 -10.5 43.5t-89.5 16.5zM486 773q-17 0 -28 11t-11 32q0 28 17.5 50.5t41.5 22.5q17 0 28 -10.5t11 -30.5q0 -29 -17.5 -52t-41.5 -23z" />
    <glyph glyph-name="edotaccent" unicode="&#x117;" 
d="M427 367q0 -63 -78.5 -105t-233.5 -41q-5 -33 -5 -58q0 -75 26 -110.5t83 -35.5q78 0 145 85l10 -9q-82 -103 -188 -103q-66 0 -111 41t-45 127q0 116 81 211.5t193 95.5q58 0 90.5 -27t32.5 -71zM300 450q-60 0 -111.5 -65t-70.5 -151q238 3 238 154q0 62 -56 62z
M315 533q-17 0 -28 11t-11 32q0 28 17.5 50.5t41.5 22.5q17 0 28 -10.5t11 -30.5q0 -29 -17.5 -52t-41.5 -23z" />
    <glyph glyph-name="Eogonek" unicode="&#x118;" horiz-adv-x="661" 
d="M157 697h548l-49 -198h-11q-6 46 -10 68t-11.5 47.5t-15.5 35t-23.5 19t-35.5 11.5t-51 2h-144l-81 -306h75q59 0 84.5 19.5t70.5 99.5h11l-68 -263h-10q-4 87 -19 108t-73 21h-76l-92 -345h171q96 0 137.5 34t115.5 153q5 7 7 11h11l-64 -214h-55l-49 -30
q-59 -37 -83 -66t-24 -65q0 -23 15 -39.5t41 -16.5q23 0 60 16l4 -8q-54 -34 -101 -34q-36 0 -59 19.5t-23 52.5q0 44 36 76t121 75l40 20h-507l2 9q73 3 99.5 16t34.5 43l149 560q8 30 -10.5 43.5t-89.5 16.5z" />
    <glyph glyph-name="eogonek" unicode="&#x119;" 
d="M140 -243q-36 0 -58.5 19.5t-22.5 52.5q0 43 32 72.5t99 66.5l54 30q-28 -8 -58 -8q-66 0 -111 41t-45 127q0 116 81 211.5t193 95.5q58 0 90.5 -27t32.5 -71q0 -63 -78.5 -105t-233.5 -41q-5 -33 -5 -58q0 -75 26 -110.5t83 -35.5q78 0 145 85l10 -9q-31 -37 -70 -66
l-68 -49q-64 -46 -89 -73.5t-25 -65.5q0 -23 14.5 -39.5t40.5 -16.5q23 0 60 16l4 -8q-54 -34 -101 -34zM300 450q-60 0 -111.5 -65t-70.5 -151q238 3 238 154q0 62 -56 62z" />
    <glyph glyph-name="Ecaron" unicode="&#x11a;" horiz-adv-x="661" 
d="M477 768l-72 182h11l87 -98l141 98h15l-173 -182h-9zM157 697h548l-49 -198h-11q-6 46 -10 68t-11.5 47.5t-15.5 35t-23.5 19t-35.5 11.5t-51 2h-144l-81 -306h75q59 0 84.5 19.5t70.5 99.5h11l-68 -263h-10q-4 87 -19 108t-73 21h-76l-92 -345h171q96 0 137.5 34
t115.5 153q5 7 7 11h11l-64 -214h-584l2 9q73 3 99.5 16t34.5 43l149 560q8 30 -10.5 43.5t-89.5 16.5z" />
    <glyph glyph-name="ecaron" unicode="&#x11b;" 
d="M427 367q0 -63 -78.5 -105t-233.5 -41q-5 -33 -5 -58q0 -75 26 -110.5t83 -35.5q78 0 145 85l10 -9q-82 -103 -188 -103q-66 0 -111 41t-45 127q0 116 81 211.5t193 95.5q58 0 90.5 -27t32.5 -71zM300 450q-60 0 -111.5 -65t-70.5 -151q238 3 238 154q0 62 -56 62z
M297 528l-72 182h11l87 -98l141 98h15l-173 -182h-9z" />
    <glyph glyph-name="Gbreve" unicode="&#x11e;" horiz-adv-x="720" 
d="M723 711l-60 -213h-11q-20 117 -58 160t-121 43q-93 0 -167.5 -69.5t-112.5 -171.5t-38 -210q0 -111 55.5 -182.5t149.5 -71.5q75 0 133 40l56 213q8 30 -10.5 43.5t-89.5 16.5l2 9h283l-2 -9q-51 -3 -71 -16t-29 -44l-56 -201q-122 -65 -224 -65q-129 0 -210 83.5
t-81 211.5q0 82 31 160.5t85 139.5t133.5 98.5t168.5 37.5q52 0 102 -16.5t80 -37.5l52 51h10zM488 773q-56 0 -82.5 40t-15.5 109h12q5 -93 100 -93q50 0 82 23t58 70h14q-50 -149 -168 -149z" />
    <glyph glyph-name="gbreve" unicode="&#x11f;" horiz-adv-x="505" 
d="M176 0q-58 0 -98 42.5t-40 114.5q0 109 77.5 208.5t179.5 99.5q71 0 112 -54l16 44l79 11l-55 -163l-83 -305q-28 -103 -78.5 -150.5t-149.5 -47.5q-67 0 -111 26.5t-44 64.5q0 26 15.5 42t38.5 16q21 0 33.5 -13.5t12.5 -35.5q0 -30 -32 -48q11 -17 34 -28t48 -11
q60 0 98.5 47t62.5 139l20 76l-2 1q-33 -39 -63.5 -57.5t-70.5 -18.5zM300 451q-53 0 -96.5 -52t-64.5 -118.5t-21 -124.5q0 -60 24.5 -91.5t66.5 -31.5q59 0 108 76l78 264q-13 37 -39.5 57.5t-55.5 20.5zM328 533q-56 0 -82.5 40t-15.5 109h12q5 -93 100 -93q50 0 82 23
t58 70h14q-50 -149 -168 -149z" />
    <glyph glyph-name="Gdotaccent" unicode="&#x120;" horiz-adv-x="720" 
d="M723 711l-60 -213h-11q-20 117 -58 160t-121 43q-93 0 -167.5 -69.5t-112.5 -171.5t-38 -210q0 -111 55.5 -182.5t149.5 -71.5q75 0 133 40l56 213q8 30 -10.5 43.5t-89.5 16.5l2 9h283l-2 -9q-51 -3 -71 -16t-29 -44l-56 -201q-122 -65 -224 -65q-129 0 -210 83.5
t-81 211.5q0 82 31 160.5t85 139.5t133.5 98.5t168.5 37.5q52 0 102 -16.5t80 -37.5l52 51h10zM504 773q-17 0 -28 11t-11 32q0 28 17.5 50.5t41.5 22.5q17 0 28 -10.5t11 -30.5q0 -29 -17.5 -52t-41.5 -23z" />
    <glyph glyph-name="gdotaccent" unicode="&#x121;" horiz-adv-x="505" 
d="M176 0q-58 0 -98 42.5t-40 114.5q0 109 77.5 208.5t179.5 99.5q71 0 112 -54l16 44l79 11l-55 -163l-83 -305q-28 -103 -78.5 -150.5t-149.5 -47.5q-67 0 -111 26.5t-44 64.5q0 26 15.5 42t38.5 16q21 0 33.5 -13.5t12.5 -35.5q0 -30 -32 -48q11 -17 34 -28t48 -11
q60 0 98.5 47t62.5 139l20 76l-2 1q-33 -39 -63.5 -57.5t-70.5 -18.5zM300 451q-53 0 -96.5 -52t-64.5 -118.5t-21 -124.5q0 -60 24.5 -91.5t66.5 -31.5q59 0 108 76l78 264q-13 37 -39.5 57.5t-55.5 20.5zM340 533q-17 0 -28 11t-11 32q0 28 17.5 50.5t41.5 22.5
q17 0 28 -10.5t11 -30.5q0 -29 -17.5 -52t-41.5 -23z" />
    <glyph glyph-name="Gcommaaccent" unicode="&#x122;" horiz-adv-x="720" 
d="M193 -256l-3 9q90 42 108 93l-3 2q-24 -3 -38 9.5t-14 33.5q0 20 14.5 34.5t35.5 14.5q20 0 35 -16t15 -39q0 -79 -150 -141zM723 711l-60 -213h-11q-20 117 -58 160t-121 43q-93 0 -167.5 -69.5t-112.5 -171.5t-38 -210q0 -111 55.5 -182.5t149.5 -71.5q75 0 133 40
l56 213q8 30 -10.5 43.5t-89.5 16.5l2 9h283l-2 -9q-51 -3 -71 -16t-29 -44l-56 -201q-122 -65 -224 -65q-129 0 -210 83.5t-81 211.5q0 82 31 160.5t85 139.5t133.5 98.5t168.5 37.5q52 0 102 -16.5t80 -37.5l52 51h10z" />
    <glyph glyph-name="gcommaaccent" unicode="&#x123;" horiz-adv-x="505" 
d="M450 756l3 -9q-90 -42 -108 -93l3 -2q24 3 38 -9.5t14 -33.5q0 -20 -14.5 -34.5t-35.5 -14.5q-20 0 -35 16t-15 39q0 79 150 141zM176 0q-58 0 -98 42.5t-40 114.5q0 109 77.5 208.5t179.5 99.5q71 0 112 -54l16 44l79 11l-55 -163l-83 -305q-28 -103 -78.5 -150.5
t-149.5 -47.5q-67 0 -111 26.5t-44 64.5q0 26 15.5 42t38.5 16q21 0 33.5 -13.5t12.5 -35.5q0 -30 -32 -48q11 -17 34 -28t48 -11q60 0 98.5 47t62.5 139l20 76l-2 1q-33 -39 -63.5 -57.5t-70.5 -18.5zM300 451q-53 0 -96.5 -52t-64.5 -118.5t-21 -124.5q0 -60 24.5 -91.5
t66.5 -31.5q59 0 108 76l78 264q-13 37 -39.5 57.5t-55.5 20.5z" />
    <glyph glyph-name="Hbar" unicode="&#x126;" horiz-adv-x="803" 
d="M831 515h-100l-118 -446q-8 -30 10.5 -43.5t89.5 -16.5l-2 -9h-308l2 9q71 3 93.5 16.5t30.5 45.5l76 283h-344l-76 -285q-8 -28 11 -42.5t87 -17.5l-2 -9h-316l2 9q73 4 99.5 16.5t34.5 42.5l119 447h-95l4 18h96l25 95q8 30 -10.5 43.5t-89.5 16.5l2 9h308l-2 -9
q-71 -3 -93.5 -16.5t-30.5 -45.5l-25 -93h344l25 95q8 28 -11 42.5t-87 17.5l2 9h316l-2 -9q-73 -3 -99.5 -16t-34.5 -43l-26 -96h99zM266 370h343l39 145h-344z" />
    <glyph glyph-name="hbar" unicode="&#x127;" horiz-adv-x="520" 
d="M462 309l-71 -217q-9 -27 -9 -44q0 -23 20 -29t70 -1v-6q-52 -21 -91 -21q-73 0 -73 55q0 22 10 49l68 211q10 35 10 56q0 54 -59 54q-60 0 -154 -76l-83 -340h-82l48 162l105 414h-68l5 15h67l15 57q7 26 -12 38t-73 15v8l184 8l-36 -126h150l-5 -15h-150l-61 -215l2 -2
q114 105 194 105q44 0 67.5 -23t23.5 -66q0 -29 -12 -66z" />
    <glyph glyph-name="Imacron" unicode="&#x12a;" horiz-adv-x="391" 
d="M480 688q-74 -3 -102 -15.5t-36 -42.5l-150 -561q-8 -31 12.5 -44.5t96.5 -15.5l-2 -9h-332l2 9q74 3 102.5 16t36.5 43l149 560q8 31 -12.5 44.5t-96.5 15.5l2 9h332zM217 798l7 29h251l-7 -29h-251z" />
    <glyph glyph-name="imacron" unicode="&#x12b;" horiz-adv-x="281" 
d="M224 21v-6q-60 -24 -106 -24q-70 0 -70 60q0 18 9 48l92 296q7 24 -12 35.5t-68 14.5v9l177 7l-114 -364q-9 -32 -9 -43q0 -24 23 -31t78 -2zM82 558l7 29h251l-7 -29h-251z" />
    <glyph glyph-name="Ibreve" unicode="&#x12c;" horiz-adv-x="391" 
d="M480 688q-74 -3 -102 -15.5t-36 -42.5l-150 -561q-8 -31 12.5 -44.5t96.5 -15.5l-2 -9h-332l2 9q74 3 102.5 16t36.5 43l149 560q8 31 -12.5 44.5t-96.5 15.5l2 9h332zM329 773q-56 0 -82.5 40t-15.5 109h12q5 -93 100 -93q50 0 82 23t58 70h14q-50 -149 -168 -149z" />
    <glyph glyph-name="ibreve" unicode="&#x12d;" horiz-adv-x="281" 
d="M224 21v-6q-60 -24 -106 -24q-70 0 -70 60q0 18 9 48l92 296q7 24 -12 35.5t-68 14.5v9l177 7l-114 -364q-9 -32 -9 -43q0 -24 23 -31t78 -2zM199 533q-56 0 -82.5 40t-15.5 109h12q5 -93 100 -93q50 0 82 23t58 70h14q-50 -149 -168 -149z" />
    <glyph glyph-name="Iogonek" unicode="&#x12e;" horiz-adv-x="391" 
d="M62 -243q-36 0 -59 19.5t-23 52.5q0 44 36 76t121 75l40 20h-210l2 9q74 3 102.5 16t36.5 43l149 560q8 31 -12.5 44.5t-96.5 15.5l2 9h332l-2 -9q-74 -3 -102 -15.5t-36 -42.5l-150 -561q-8 -31 12.5 -44.5t96.5 -15.5l-2 -9h-100l-49 -30q-59 -37 -83 -66t-24 -65
q0 -23 15 -39.5t41 -16.5q23 0 60 16l4 -8q-54 -34 -101 -34z" />
    <glyph glyph-name="iogonek" unicode="&#x12f;" horiz-adv-x="281" 
d="M58 -243q-36 0 -59 19.5t-23 52.5q0 43 35.5 76t119.5 75l36 18q-30 -7 -49 -7q-70 0 -70 60q0 18 9 48l92 296q7 24 -12 35.5t-68 14.5v9l177 7l-114 -364q-9 -32 -9 -43q0 -24 23 -31t78 -2v-6q-8 -3 -38.5 -20.5t-33.5 -20.5q-63 -38 -87.5 -68.5t-24.5 -66.5
q0 -23 14.5 -39.5t40.5 -16.5q23 0 60 16l4 -8q-54 -34 -101 -34zM237 574q-16 0 -27.5 11t-11.5 32q0 28 18 50.5t42 22.5q17 0 27.5 -10.5t10.5 -30.5q0 -29 -17.5 -52t-41.5 -23z" />
    <glyph glyph-name="Idotaccent" unicode="&#x130;" horiz-adv-x="391" 
d="M480 688q-74 -3 -102 -15.5t-36 -42.5l-150 -561q-8 -31 12.5 -44.5t96.5 -15.5l-2 -9h-332l2 9q74 3 102.5 16t36.5 43l149 560q8 31 -12.5 44.5t-96.5 15.5l2 9h332zM344 773q-17 0 -28 11t-11 32q0 28 17.5 50.5t41.5 22.5q17 0 28 -10.5t11 -30.5q0 -29 -17.5 -52
t-41.5 -23z" />
    <glyph glyph-name="dotlessi" unicode="&#x131;" horiz-adv-x="281" 
d="M224 21v-6q-60 -24 -106 -24q-70 0 -70 60q0 18 9 48l92 296q7 24 -12 35.5t-68 14.5v9l177 7l-114 -364q-9 -32 -9 -43q0 -24 23 -31t78 -2z" />
    <glyph glyph-name="Kcommaaccent" unicode="&#x136;" horiz-adv-x="739" 
d="M199 -256l-3 9q90 42 108 93l-3 2q-24 -3 -38 9.5t-14 33.5q0 20 14.5 34.5t35.5 14.5q20 0 35 -16t15 -39q0 -79 -150 -141zM837 697l-2 -9q-70 -11 -107 -31t-135 -98l-177 -143l135 -293q32 -69 55 -87.5t82 -26.5l-2 -9h-299l2 9q70 4 86.5 23t-6.5 65l-120 265
l-103 -83l-56 -210q-7 -28 9.5 -42t78.5 -18l-2 -9h-307l2 9q74 4 100 16.5t34 42.5l149 560q8 30 -10 43.5t-89 16.5l2 9h308l-2 -9q-71 -3 -93.5 -16.5t-30.5 -45.5l-86 -322l329 267q46 37 59.5 60.5t-3.5 37t-68 19.5l2 9h265z" />
    <glyph glyph-name="kcommaaccent" unicode="&#x137;" horiz-adv-x="476" 
d="M65 -256l-3 9q90 42 108 93l-3 2q-24 -3 -38 9.5t-14 33.5q0 20 14.5 34.5t35.5 14.5q20 0 35 -16t15 -39q0 -79 -150 -141zM289 717l-124 -449h33q33 0 62.5 31t48 67.5t47 67.5t60.5 31q26 0 40.5 -15t14.5 -37q0 -26 -13.5 -41t-35.5 -15q-19 0 -32 11.5t-13 31.5
q0 12 7 26q-15 -4 -38 -37.5t-51 -72t-55 -50.5v-2q76 -7 99.5 -31.5t23.5 -74.5q0 -13 -3 -56.5t-3 -58.5q0 -21 17 -29t69 -5v-6q-24 -12 -87 -12q-46 0 -61 13t-15 45q0 22 3 59.5t3 49.5q0 56 -16.5 77t-57.5 21h-49l-63 -256h-82l48 162l124 486q7 26 -12 38t-73 15v8z
" />
    <glyph glyph-name="Lacute" unicode="&#x139;" horiz-adv-x="615" 
d="M324 768l96 129q29 39 42.5 52t30.5 13q13 0 23 -10t10 -23q0 -15 -15 -30t-60 -46l-119 -85h-8zM340 628l-164 -612h145q47 0 75 6.5t56.5 33t48.5 56t63 98.5q7 12 11 18h12l-67 -228h-550l2 9q73 3 99.5 16t34.5 43l149 560q8 30 -10.5 43.5t-89.5 16.5l2 9h308l-2 -9
q-68 -3 -91.5 -16t-31.5 -44z" />
    <glyph glyph-name="lacute" unicode="&#x13a;" horiz-adv-x="272" 
d="M235 773l96 129q29 39 42.5 52t30.5 13q14 0 23.5 -9.5t9.5 -23.5q0 -15 -15 -30t-60 -46l-119 -85h-8zM304 717l-180 -620q-7 -22 -7 -39q0 -26 23.5 -34t80.5 -2v-7q-60 -24 -111 -24q-70 0 -70 61q0 20 9 47l106 359l50 190q7 26 -12 38t-73 15v8z" />
    <glyph glyph-name="Lcommaaccent" unicode="&#x13b;" horiz-adv-x="615" 
d="M162 -256l-3 9q90 42 108 93l-3 2q-24 -3 -38 9.5t-14 33.5q0 20 14.5 34.5t35.5 14.5q20 0 35 -16t15 -39q0 -79 -150 -141zM340 628l-164 -612h145q47 0 75 6.5t56.5 33t48.5 56t63 98.5q7 12 11 18h12l-67 -228h-550l2 9q73 3 99.5 16t34.5 43l149 560
q8 30 -10.5 43.5t-89.5 16.5l2 9h308l-2 -9q-68 -3 -91.5 -16t-31.5 -44z" />
    <glyph glyph-name="lcommaaccent" unicode="&#x13c;" horiz-adv-x="272" 
d="M-44 -256l-3 9q90 42 108 93l-3 2q-24 -3 -38 9.5t-14 33.5q0 20 14.5 34.5t35.5 14.5q20 0 35 -16t15 -39q0 -79 -150 -141zM304 717l-180 -620q-7 -22 -7 -39q0 -26 23.5 -34t80.5 -2v-7q-60 -24 -111 -24q-70 0 -70 61q0 20 9 47l106 359l50 190q7 26 -12 38t-73 15v8
z" />
    <glyph glyph-name="Lcaron" unicode="&#x13d;" horiz-adv-x="615" 
d="M489 513l42 154q10 38 20 52.5t28 14.5q15 0 24 -9.5t9 -22.5q0 -19 -25 -56l-90 -133h-8zM340 628l-164 -612h145q47 0 75 6.5t56.5 33t48.5 56t63 98.5q7 12 11 18h12l-67 -228h-550l2 9q73 3 99.5 16t34.5 43l149 560q8 30 -10.5 43.5t-89.5 16.5l2 9h308l-2 -9
q-68 -3 -91.5 -16t-31.5 -44z" />
    <glyph glyph-name="lcaron" unicode="&#x13e;" horiz-adv-x="272" 
d="M351 533l42 154q10 38 20 52.5t28 14.5q15 0 24 -9.5t9 -22.5q0 -19 -25 -56l-90 -133h-8zM304 717l-180 -620q-7 -22 -7 -39q0 -26 23.5 -34t80.5 -2v-7q-60 -24 -111 -24q-70 0 -70 61q0 20 9 47l106 359l50 190q7 26 -12 38t-73 15v8z" />
    <glyph glyph-name="Ldot" unicode="&#x13f;" horiz-adv-x="615" 
d="M-30 0l2 9q73 3 99.5 16t34.5 43l149 560q8 30 -10.5 43.5t-89.5 16.5l2 9h308l-2 -9q-68 -3 -91.5 -16t-31.5 -44l-164 -612h145q47 0 75 6.5t56.5 33t48.5 56t63 98.5q7 12 11 18h12l-67 -228h-550zM485 303q-17 0 -28 11t-11 32q0 28 17.5 50.5t41.5 22.5
q17 0 28 -10.5t11 -30.5q0 -29 -17.5 -52t-41.5 -23z" />
    <glyph glyph-name="ldot" unicode="&#x140;" horiz-adv-x="322" 
d="M306 279q-16 0 -27.5 11t-11.5 32q0 28 18 50.5t42 22.5q17 0 27.5 -10.5t10.5 -30.5q0 -29 -17.5 -52t-41.5 -23zM304 717l-180 -620q-7 -22 -7 -39q0 -26 23.5 -34t80.5 -2v-7q-60 -24 -111 -24q-70 0 -70 61q0 20 9 47l106 359l50 190q7 26 -12 38t-73 15v8z" />
    <glyph glyph-name="Lslash" unicode="&#x141;" horiz-adv-x="615" 
d="M340 628l-71 -263l167 43v-19l-172 -45l-88 -328h145q47 0 75 6.5t56.5 33t48.5 56t63 98.5q7 12 11 18h12l-67 -228h-550l2 9q73 3 99.5 16t34.5 43l67 253l-107 -28v19l113 29l76 287q8 30 -10.5 43.5t-89.5 16.5l2 9h308l-2 -9q-68 -3 -91.5 -16t-31.5 -44z" />
    <glyph glyph-name="lslash" unicode="&#x142;" horiz-adv-x="310" 
d="M323 717l-101 -347l109 27v-18l-115 -28l-73 -254q-7 -22 -7 -39q0 -26 23.5 -34t80.5 -2v-7q-60 -24 -111 -24q-70 0 -70 61q0 20 9 47l68 232l-100 -25v18l106 26l32 108l50 190q7 26 -12 38t-73 15v8z" />
    <glyph glyph-name="Nacute" unicode="&#x143;" horiz-adv-x="788" 
d="M488 763l96 129q29 39 42.5 52t30.5 13q13 0 23 -9.5t10 -23.5q0 -15 -15 -30t-60 -46l-119 -85h-8zM321 697l289 -579h2l117 446q19 69 3 91t-93 33l2 9h251l-2 -9q-77 -13 -100 -33.5t-41 -90.5l-154 -581h-13l-317 634h-1l-128 -483q-19 -68 -4 -91t92 -34l-2 -9h-255
l2 9q78 12 103.5 34t43.5 91l124 467q10 37 -10 60t-84 28l2 8h173z" />
    <glyph glyph-name="nacute" unicode="&#x144;" horiz-adv-x="523" 
d="M308 528l96 129q29 39 42.5 52t30.5 13q13 0 23 -10t10 -23q0 -15 -15 -30t-60 -46l-119 -85h-8zM70 162l61 230q7 27 -6.5 38.5t-59.5 14.5v8l157 7l-32 -99l2 -2q114 105 194 105q44 0 67.5 -23t23.5 -66q0 -29 -12 -66l-71 -217q-9 -27 -9 -44q0 -23 20 -29t71 -1v-6
q-52 -21 -92 -21q-72 0 -72 55q0 20 9 49l68 211q11 33 11 56q0 54 -60 54q-59 0 -153 -76l-83 -340h-83z" />
    <glyph glyph-name="Ncommaaccent" unicode="&#x145;" horiz-adv-x="788" 
d="M231 -256l-3 9q90 42 108 93l-3 2q-24 -3 -38 9.5t-14 33.5q0 20 14.5 34.5t35.5 14.5q20 0 35 -16t15 -39q0 -79 -150 -141zM321 697l289 -579h2l117 446q19 69 3 91t-93 33l2 9h251l-2 -9q-77 -13 -100 -33.5t-41 -90.5l-154 -581h-13l-317 634h-1l-128 -483
q-19 -68 -4 -91t92 -34l-2 -9h-255l2 9q78 12 103.5 34t43.5 91l124 467q10 37 -10 60t-84 28l2 8h173z" />
    <glyph glyph-name="ncommaaccent" unicode="&#x146;" horiz-adv-x="523" 
d="M89 -256l-3 9q90 42 108 93l-3 2q-24 -3 -38 9.5t-14 33.5q0 20 14.5 34.5t35.5 14.5q20 0 35 -16t15 -39q0 -79 -150 -141zM70 162l61 230q7 27 -6.5 38.5t-59.5 14.5v8l157 7l-32 -99l2 -2q114 105 194 105q44 0 67.5 -23t23.5 -66q0 -29 -12 -66l-71 -217
q-9 -27 -9 -44q0 -23 20 -29t71 -1v-6q-52 -21 -92 -21q-72 0 -72 55q0 20 9 49l68 211q11 33 11 56q0 54 -60 54q-59 0 -153 -76l-83 -340h-83z" />
    <glyph glyph-name="Ncaron" unicode="&#x147;" horiz-adv-x="788" 
d="M515 763l-72 182h11l87 -98l141 98h15l-173 -182h-9zM321 697l289 -579h2l117 446q19 69 3 91t-93 33l2 9h251l-2 -9q-77 -13 -100 -33.5t-41 -90.5l-154 -581h-13l-317 634h-1l-128 -483q-19 -68 -4 -91t92 -34l-2 -9h-255l2 9q78 12 103.5 34t43.5 91l124 467
q10 37 -10 60t-84 28l2 8h173z" />
    <glyph glyph-name="ncaron" unicode="&#x148;" horiz-adv-x="523" 
d="M335 528l-72 182h11l87 -98l141 98h15l-173 -182h-9zM70 162l61 230q7 27 -6.5 38.5t-59.5 14.5v8l157 7l-32 -99l2 -2q114 105 194 105q44 0 67.5 -23t23.5 -66q0 -29 -12 -66l-71 -217q-9 -27 -9 -44q0 -23 20 -29t71 -1v-6q-52 -21 -92 -21q-72 0 -72 55q0 20 9 49
l68 211q11 33 11 56q0 54 -60 54q-59 0 -153 -76l-83 -340h-83z" />
    <glyph glyph-name="Omacron" unicode="&#x14c;" horiz-adv-x="745" 
d="M393 798l7 29h251l-7 -29h-251zM328 -17q-115 0 -190.5 81t-75.5 206q0 82 32 162t86.5 142.5t132.5 101t164 38.5q115 0 190.5 -81t75.5 -206q0 -110 -54 -212t-150.5 -167t-210.5 -65zM331 -4q67 0 128 43.5t102 112t65 152t24 164.5q0 108 -43 170.5t-132 62.5
q-90 0 -165.5 -73.5t-115 -181t-39.5 -216.5t43 -171.5t133 -62.5z" />
    <glyph glyph-name="omacron" unicode="&#x14d;" horiz-adv-x="485" 
d="M193 558l7 29h251l-7 -29h-251zM289 465q72 0 118.5 -52t46.5 -135q0 -110 -73 -199t-185 -89q-71 0 -118 52.5t-47 134.5q0 111 73 199.5t185 88.5zM199 4q55 0 98.5 57t62.5 126.5t19 128.5q0 136 -92 136q-42 0 -78 -33.5t-57.5 -83t-33.5 -101.5t-12 -95
q0 -135 93 -135z" />
    <glyph glyph-name="Obreve" unicode="&#x14e;" horiz-adv-x="745" 
d="M328 -17q-115 0 -190.5 81t-75.5 206q0 82 32 162t86.5 142.5t132.5 101t164 38.5q115 0 190.5 -81t75.5 -206q0 -110 -54 -212t-150.5 -167t-210.5 -65zM331 -4q67 0 128 43.5t102 112t65 152t24 164.5q0 108 -43 170.5t-132 62.5q-90 0 -165.5 -73.5t-115 -181
t-39.5 -216.5t43 -171.5t133 -62.5zM506 773q-56 0 -82.5 40t-15.5 109h12q5 -93 100 -93q50 0 82 23t58 70h14q-50 -149 -168 -149z" />
    <glyph glyph-name="obreve" unicode="&#x14f;" horiz-adv-x="485" 
d="M289 465q72 0 118.5 -52t46.5 -135q0 -110 -73 -199t-185 -89q-71 0 -118 52.5t-47 134.5q0 111 73 199.5t185 88.5zM199 4q55 0 98.5 57t62.5 126.5t19 128.5q0 136 -92 136q-42 0 -78 -33.5t-57.5 -83t-33.5 -101.5t-12 -95q0 -135 93 -135zM316 533q-56 0 -82.5 40
t-15.5 109h12q5 -93 100 -93q50 0 82 23t58 70h14q-50 -149 -168 -149z" />
    <glyph glyph-name="Ohungarumlaut" unicode="&#x150;" horiz-adv-x="745" 
d="M412 768l96 129q29 39 42.5 52t30.5 13q13 0 23 -10t10 -23q0 -15 -15 -30t-60 -46l-119 -85h-8zM567 768l96 129q29 39 42.5 52t30.5 13q14 0 23.5 -10t9.5 -23q0 -15 -15 -30t-60 -46l-119 -85h-8zM328 -17q-115 0 -190.5 81t-75.5 206q0 82 32 162t86.5 142.5
t132.5 101t164 38.5q115 0 190.5 -81t75.5 -206q0 -110 -54 -212t-150.5 -167t-210.5 -65zM331 -4q67 0 128 43.5t102 112t65 152t24 164.5q0 108 -43 170.5t-132 62.5q-90 0 -165.5 -73.5t-115 -181t-39.5 -216.5t43 -171.5t133 -62.5z" />
    <glyph glyph-name="ohungarumlaut" unicode="&#x151;" horiz-adv-x="485" 
d="M217 528l96 129q29 39 42.5 52t30.5 13q14 0 23.5 -10t9.5 -23q0 -15 -15 -30t-60 -46l-119 -85h-8zM372 528l96 129q29 39 42.5 52t30.5 13q13 0 23 -10t10 -23q0 -15 -15 -30t-60 -46l-119 -85h-8zM289 465q72 0 118.5 -52t46.5 -135q0 -110 -73 -199t-185 -89
q-71 0 -118 52.5t-47 134.5q0 111 73 199.5t185 88.5zM199 4q55 0 98.5 57t62.5 126.5t19 128.5q0 136 -92 136q-42 0 -78 -33.5t-57.5 -83t-33.5 -101.5t-12 -95q0 -135 93 -135z" />
    <glyph glyph-name="OE" unicode="&#x152;" horiz-adv-x="1031" 
d="M924 0h-500q-176 0 -266 81.5t-90 205.5q0 75 30 147.5t87 129.5q133 133 351 133h539l-49 -198h-11q-5 35 -8 53t-8 41t-9 32.5t-12 22.5t-17 17.5t-23 9.5t-30.5 6t-39.5 1h-144l-81 -306h74q59 0 85 19.5t71 99.5h10l-67 -263h-11q-4 87 -19 108t-73 21h-75l-92 -345
h170q21 0 38.5 1t33.5 5.5t27.5 6.5t25.5 12.5t21.5 15t21.5 22t20 24.5t22 32t23 35.5t27 43.5h12zM639 682h-114q-138 0 -236 -96q-60 -60 -93 -149.5t-33 -192.5q0 -228 251 -228h47z" />
    <glyph glyph-name="oe" unicode="&#x153;" horiz-adv-x="762" 
d="M636 465q57 0 90 -27t33 -71q0 -63 -78.5 -105t-233.5 -41q-5 -33 -5 -58q0 -75 26 -110.5t82 -35.5q78 0 145 85l10 -9q-81 -103 -187 -103q-47 0 -84 22t-53 67q-74 -89 -185 -89q-71 0 -118 52.5t-47 134.5q0 111 73 199.5t185 88.5q52 0 91 -27.5t58 -78.5
q81 106 198 106zM199 4q55 0 98.5 57t62.5 126.5t19 128.5q0 136 -92 136q-42 0 -78 -33.5t-57.5 -83t-33.5 -101.5t-12 -95q0 -135 93 -135zM631 450q-60 0 -111 -65t-70 -151q238 3 238 154q0 29 -15 45.5t-42 16.5z" />
    <glyph glyph-name="Racute" unicode="&#x154;" horiz-adv-x="676" 
d="M426 768l96 129q29 39 42.5 52t30.5 13q13 0 23 -10t10 -23q0 -15 -15 -30t-60 -46l-119 -85h-8zM262 358h72q111 0 170 57.5t59 148.5q0 62 -37.5 90t-126.5 28h-50zM149 688l2 9h238q264 0 264 -150q0 -75 -63.5 -126t-182.5 -68l-1 -3q91 -8 121.5 -45t26.5 -116
l-4 -79q-4 -61 14.5 -82t84.5 -22l-2 -10q-4 0 -23.5 -0.5t-22.5 -0.5q-71 0 -101.5 11.5t-36.5 40t0 75.5l7 77q7 77 -21.5 110t-118.5 33h-72l-74 -273q-8 -28 11 -42.5t87 -17.5l-2 -9h-316l2 9q73 3 99.5 16t34.5 43l149 560q8 30 -10.5 43.5t-89.5 16.5z" />
    <glyph glyph-name="racute" unicode="&#x155;" horiz-adv-x="396" 
d="M242 528l96 129q29 39 42.5 52t30.5 13q13 0 23 -10t10 -23q0 -15 -15 -30t-60 -46l-119 -85h-8zM354 463q30 0 46.5 -16.5t16.5 -41.5q0 -26 -15 -42.5t-37 -16.5t-35 12t-13 33q0 19 12 36q-60 -3 -147 -105l-78 -322h-83l49 162l61 230q7 27 -6.5 38.5t-59.5 14.5v8
l157 7l-36 -112l2 -2q97 117 166 117z" />
    <glyph glyph-name="Rcommaaccent" unicode="&#x156;" horiz-adv-x="676" 
d="M211 -256l-3 9q90 42 108 93l-3 2q-24 -3 -38 9.5t-14 33.5q0 20 14.5 34.5t35.5 14.5q20 0 35 -16t15 -39q0 -79 -150 -141zM262 358h72q111 0 170 57.5t59 148.5q0 62 -37.5 90t-126.5 28h-50zM149 688l2 9h238q264 0 264 -150q0 -75 -63.5 -126t-182.5 -68l-1 -3
q91 -8 121.5 -45t26.5 -116l-4 -79q-4 -61 14.5 -82t84.5 -22l-2 -10q-4 0 -23.5 -0.5t-22.5 -0.5q-71 0 -101.5 11.5t-36.5 40t0 75.5l7 77q7 77 -21.5 110t-118.5 33h-72l-74 -273q-8 -28 11 -42.5t87 -17.5l-2 -9h-316l2 9q73 3 99.5 16t34.5 43l149 560q8 30 -10.5 43.5
t-89.5 16.5z" />
    <glyph glyph-name="rcommaaccent" unicode="&#x157;" horiz-adv-x="396" 
d="M-59 -256l-3 9q90 42 108 93l-3 2q-24 -3 -38 9.5t-14 33.5q0 20 14.5 34.5t35.5 14.5q20 0 35 -16t15 -39q0 -79 -150 -141zM354 463q30 0 46.5 -16.5t16.5 -41.5q0 -26 -15 -42.5t-37 -16.5t-35 12t-13 33q0 19 12 36q-60 -3 -147 -105l-78 -322h-83l49 162l61 230
q7 27 -6.5 38.5t-59.5 14.5v8l157 7l-36 -112l2 -2q97 117 166 117z" />
    <glyph glyph-name="Rcaron" unicode="&#x158;" horiz-adv-x="676" 
d="M455 768l-72 182h11l87 -98l141 98h15l-173 -182h-9zM262 358h72q111 0 170 57.5t59 148.5q0 62 -37.5 90t-126.5 28h-50zM149 688l2 9h238q264 0 264 -150q0 -75 -63.5 -126t-182.5 -68l-1 -3q91 -8 121.5 -45t26.5 -116l-4 -79q-4 -61 14.5 -82t84.5 -22l-2 -10
q-4 0 -23.5 -0.5t-22.5 -0.5q-71 0 -101.5 11.5t-36.5 40t0 75.5l7 77q7 77 -21.5 110t-118.5 33h-72l-74 -273q-8 -28 11 -42.5t87 -17.5l-2 -9h-316l2 9q73 3 99.5 16t34.5 43l149 560q8 30 -10.5 43.5t-89.5 16.5z" />
    <glyph glyph-name="rcaron" unicode="&#x159;" horiz-adv-x="396" 
d="M266 528l-72 182h11l87 -98l141 98h15l-173 -182h-9zM354 463q30 0 46.5 -16.5t16.5 -41.5q0 -26 -15 -42.5t-37 -16.5t-35 12t-13 33q0 19 12 36q-60 -3 -147 -105l-78 -322h-83l49 162l61 230q7 27 -6.5 38.5t-59.5 14.5v8l157 7l-36 -112l2 -2q97 117 166 117z" />
    <glyph glyph-name="Sacute" unicode="&#x15a;" horiz-adv-x="543" 
d="M377 768l96 129q29 39 42.5 52t30.5 13q14 0 23.5 -10t9.5 -23q0 -15 -15 -30t-60 -46l-119 -85h-8zM-6 -18l58 229h8q28 -124 75 -167.5t122 -43.5q78 0 122 45.5t44 114.5q0 48 -30.5 88t-117.5 85q-77 39 -109.5 77t-32.5 96q0 84 68 144.5t174 60.5q84 0 160 -47
l55 53h10l-53 -211h-10q-24 114 -64.5 152.5t-107.5 38.5t-110 -41.5t-43 -106.5q0 -51 32.5 -83t109.5 -74q76 -42 111 -82.5t35 -101.5q0 -90 -64 -156t-189 -66q-98 0 -186 52l-56 -56h-11z" />
    <glyph glyph-name="sacute" unicode="&#x15b;" horiz-adv-x="388" 
d="M229 528l96 129q29 39 42.5 52t30.5 13q14 0 23.5 -10t9.5 -23q0 -15 -15 -30t-60 -46l-119 -85h-8zM151 -10q-57 0 -100.5 22.5t-43.5 61.5q0 23 14 39t37 16q20 0 32 -13t12 -34q0 -30 -30 -49q6 -10 32.5 -19.5t55.5 -9.5q50 0 80.5 27.5t30.5 70.5q0 18 -6.5 32.5
t-24 28t-27.5 20t-36 21.5q-32 19 -48.5 30.5t-33.5 36t-17 53.5q0 59 45 100t123 41q54 0 92 -23.5t38 -58.5q0 -22 -13 -36.5t-35 -14.5q-20 0 -32.5 13t-12.5 31q0 30 31 50q-20 26 -73 26q-45 0 -72 -26.5t-27 -65.5q0 -18 6.5 -32.5t23.5 -28.5t26 -20t35 -22
q32 -19 49 -31.5t33.5 -37.5t16.5 -54q0 -57 -46.5 -100.5t-134.5 -43.5z" />
    <glyph glyph-name="Scedilla" unicode="&#x15e;" horiz-adv-x="543" 
d="M166 -247q-47 0 -88 26l6 10q39 -21 77 -21q32 0 54 19t22 51q0 28 -21 42.5t-54 14.5q-14 0 -30 -3l-3 8l114 86q-98 2 -182 52l-56 -56h-11l58 229h8q28 -124 75 -167.5t122 -43.5q78 0 122 45.5t44 114.5q0 48 -30.5 88t-117.5 85q-77 39 -109.5 77t-32.5 96
q0 84 68 144.5t174 60.5q84 0 160 -47l55 53h10l-53 -211h-10q-24 114 -64.5 152.5t-107.5 38.5t-110 -41.5t-43 -106.5q0 -51 32.5 -83t109.5 -74q76 -42 111 -82.5t35 -101.5q0 -87 -60 -151.5t-176 -69.5l-78 -60l2 -3q52 -1 77.5 -22t25.5 -55q0 -40 -35 -67t-90 -27z
" />
    <glyph glyph-name="scedilla" unicode="&#x15f;" horiz-adv-x="388" 
d="M89 -247q-47 0 -88 26l6 10q39 -21 77 -21q32 0 54 19t22 51q0 28 -21 42.5t-54 14.5q-13 0 -30 -3l-3 8l120 91q-7 -1 -21 -1q-57 0 -100.5 22.5t-43.5 61.5q0 23 14 39t37 16q20 0 32 -13t12 -34q0 -30 -30 -49q6 -10 32.5 -19.5t55.5 -9.5q50 0 80.5 27.5t30.5 70.5
q0 18 -6.5 32.5t-24 28t-27.5 20t-36 21.5q-32 19 -48.5 30.5t-33.5 36t-17 53.5q0 59 45 100t123 41q54 0 92 -23.5t38 -58.5q0 -22 -13 -36.5t-35 -14.5q-20 0 -32.5 13t-12.5 31q0 30 31 50q-20 26 -73 26q-45 0 -72 -26.5t-27 -65.5q0 -18 6.5 -32.5t23.5 -28.5t26 -20
t35 -22q32 -19 49 -31.5t33.5 -37.5t16.5 -54q0 -49 -34.5 -89t-100.5 -51l-88 -67l2 -3q52 -1 77.5 -22t25.5 -55q0 -40 -35 -67t-90 -27z" />
    <glyph glyph-name="Scaron" unicode="&#x160;" horiz-adv-x="543" 
d="M420 768l-72 182h11l87 -98l141 98h15l-173 -182h-9zM-6 -18l58 229h8q28 -124 75 -167.5t122 -43.5q78 0 122 45.5t44 114.5q0 48 -30.5 88t-117.5 85q-77 39 -109.5 77t-32.5 96q0 84 68 144.5t174 60.5q84 0 160 -47l55 53h10l-53 -211h-10q-24 114 -64.5 152.5
t-107.5 38.5t-110 -41.5t-43 -106.5q0 -51 32.5 -83t109.5 -74q76 -42 111 -82.5t35 -101.5q0 -90 -64 -156t-189 -66q-98 0 -186 52l-56 -56h-11z" />
    <glyph glyph-name="scaron" unicode="&#x161;" horiz-adv-x="388" 
d="M267 528l-72 182h11l87 -98l141 98h15l-173 -182h-9zM151 -10q-57 0 -100.5 22.5t-43.5 61.5q0 23 14 39t37 16q20 0 32 -13t12 -34q0 -30 -30 -49q6 -10 32.5 -19.5t55.5 -9.5q50 0 80.5 27.5t30.5 70.5q0 18 -6.5 32.5t-24 28t-27.5 20t-36 21.5q-32 19 -48.5 30.5
t-33.5 36t-17 53.5q0 59 45 100t123 41q54 0 92 -23.5t38 -58.5q0 -22 -13 -36.5t-35 -14.5q-20 0 -32.5 13t-12.5 31q0 30 31 50q-20 26 -73 26q-45 0 -72 -26.5t-27 -65.5q0 -18 6.5 -32.5t23.5 -28.5t26 -20t35 -22q32 -19 49 -31.5t33.5 -37.5t16.5 -54
q0 -57 -46.5 -100.5t-134.5 -43.5z" />
    <glyph glyph-name="Tcommaaccent" unicode="&#x162;" horiz-adv-x="665" 
d="M150 -256l-3 9q90 42 108 93l-3 2q-24 -3 -38 9.5t-14 33.5q0 20 14.5 34.5t35.5 14.5q20 0 35 -16t15 -39q0 -79 -150 -141zM247 68l164 614h-54q-75 0 -117 -36t-126 -167h-14l68 218h581l-52 -218h-11q0 2 -1 5q-16 122 -31 152q-20 39 -74 45q-14 1 -32 1h-53
l-163 -613q-8 -31 12.5 -44.5t96.5 -15.5l-2 -9h-332l2 9q74 3 102 16t36 43z" />
    <glyph glyph-name="tcommaaccent" unicode="&#x163;" horiz-adv-x="321" 
d="M-13 -256l-3 9q90 42 108 93l-3 2q-24 -3 -38 9.5t-14 33.5q0 20 14.5 34.5t35.5 14.5q20 0 35 -16t15 -39q0 -79 -150 -141zM356 441h-125l-89 -318q-8 -30 -8 -49q0 -49 55 -49q39 0 89 19v-7q-72 -47 -132 -47q-90 0 -90 77q0 19 9 53l93 321h-87l4 14h87l42 146
l79 15l-48 -161h125z" />
    <glyph glyph-name="Tcaron" unicode="&#x164;" horiz-adv-x="665" 
d="M471 768l-72 182h11l87 -98l141 98h15l-173 -182h-9zM247 68l164 614h-54q-75 0 -117 -36t-126 -167h-14l68 218h581l-52 -218h-11q0 2 -1 5q-16 122 -31 152q-20 39 -74 45q-14 1 -32 1h-53l-163 -613q-8 -31 12.5 -44.5t96.5 -15.5l-2 -9h-332l2 9q74 3 102 16t36 43z
" />
    <glyph glyph-name="tcaron" unicode="&#x165;" horiz-adv-x="321" 
d="M352 533l42 154q10 38 20 52.5t28 14.5q15 0 24 -9.5t9 -22.5q0 -19 -25 -56l-90 -133h-8zM356 441h-125l-89 -318q-8 -30 -8 -49q0 -49 55 -49q39 0 89 19v-7q-72 -47 -132 -47q-90 0 -90 77q0 19 9 53l93 321h-87l4 14h87l42 146l79 15l-48 -161h125z" />
    <glyph glyph-name="Umacron" unicode="&#x16a;" horiz-adv-x="765" 
d="M314 626l-100 -378q-11 -39 -11 -80q0 -72 43 -114.5t127 -42.5q97 0 155 50.5t88 166.5l89 336q18 69 2.5 91t-93.5 33l2 9h252l-2 -9q-77 -12 -99.5 -33t-41.5 -91l-93 -353q-29 -109 -94.5 -168.5t-193.5 -59.5q-110 0 -168 54t-58 138q0 39 10 73l102 380
q8 30 -10.5 43.5t-89.5 16.5l2 9h308l-2 -9q-71 -3 -93.5 -16.5t-30.5 -45.5zM418 798l7 29h251l-7 -29h-251z" />
    <glyph glyph-name="umacron" unicode="&#x16b;" horiz-adv-x="541" 
d="M60 144l79 249q9 26 -5.5 38t-60.5 15v8l160 7l-97 -312q-9 -31 -9 -54q0 -56 66 -56q56 0 142 77l56 186l39 157h82l-109 -364q-8 -27 -8 -43q0 -24 19.5 -31.5t68.5 -2.5v-6q-44 -22 -96 -22q-67 0 -67 51q0 20 12 52l-2 3q-103 -106 -182 -106q-47 0 -73 24.5
t-26 66.5q0 27 11 63zM223 558l7 29h251l-7 -29h-251z" />
    <glyph glyph-name="Ubreve" unicode="&#x16c;" horiz-adv-x="765" 
d="M314 626l-100 -378q-11 -39 -11 -80q0 -72 43 -114.5t127 -42.5q97 0 155 50.5t88 166.5l89 336q18 69 2.5 91t-93.5 33l2 9h252l-2 -9q-77 -12 -99.5 -33t-41.5 -91l-93 -353q-29 -109 -94.5 -168.5t-193.5 -59.5q-110 0 -168 54t-58 138q0 39 10 73l102 380
q8 30 -10.5 43.5t-89.5 16.5l2 9h308l-2 -9q-71 -3 -93.5 -16.5t-30.5 -45.5zM530 773q-56 0 -82.5 40t-15.5 109h12q5 -93 100 -93q50 0 82 23t58 70h14q-50 -149 -168 -149z" />
    <glyph glyph-name="ubreve" unicode="&#x16d;" horiz-adv-x="541" 
d="M60 144l79 249q9 26 -5.5 38t-60.5 15v8l160 7l-97 -312q-9 -31 -9 -54q0 -56 66 -56q56 0 142 77l56 186l39 157h82l-109 -364q-8 -27 -8 -43q0 -24 19.5 -31.5t68.5 -2.5v-6q-44 -22 -96 -22q-67 0 -67 51q0 20 12 52l-2 3q-103 -106 -182 -106q-47 0 -73 24.5
t-26 66.5q0 27 11 63zM340 533q-56 0 -82.5 40t-15.5 109h12q5 -93 100 -93q50 0 82 23t58 70h14q-50 -149 -168 -149z" />
    <glyph glyph-name="Uring" unicode="&#x16e;" horiz-adv-x="765" 
d="M552 773q-42 0 -66.5 24t-24.5 61q0 49 36 84t89 35q42 0 67 -24.5t25 -60.5q0 -49 -36.5 -84t-89.5 -35zM551 785q36 0 59.5 39t23.5 82q0 28 -12 43.5t-34 15.5q-36 0 -59.5 -39t-23.5 -82q0 -28 12 -43.5t34 -15.5zM314 626l-100 -378q-11 -39 -11 -80
q0 -72 43 -114.5t127 -42.5q97 0 155 50.5t88 166.5l89 336q18 69 2.5 91t-93.5 33l2 9h252l-2 -9q-77 -12 -99.5 -33t-41.5 -91l-93 -353q-29 -109 -94.5 -168.5t-193.5 -59.5q-110 0 -168 54t-58 138q0 39 10 73l102 380q8 30 -10.5 43.5t-89.5 16.5l2 9h308l-2 -9
q-71 -3 -93.5 -16.5t-30.5 -45.5z" />
    <glyph glyph-name="uring" unicode="&#x16f;" horiz-adv-x="541" 
d="M355 533q-42 0 -66.5 24t-24.5 61q0 49 36 84t89 35q42 0 67 -24.5t25 -60.5q0 -49 -36.5 -84t-89.5 -35zM354 545q36 0 59.5 39t23.5 82q0 28 -12 43.5t-34 15.5q-36 0 -59.5 -39t-23.5 -82q0 -28 12 -43.5t34 -15.5zM60 144l79 249q9 26 -5.5 38t-60.5 15v8l160 7
l-97 -312q-9 -31 -9 -54q0 -56 66 -56q56 0 142 77l56 186l39 157h82l-109 -364q-8 -27 -8 -43q0 -24 19.5 -31.5t68.5 -2.5v-6q-44 -22 -96 -22q-67 0 -67 51q0 20 12 52l-2 3q-103 -106 -182 -106q-47 0 -73 24.5t-26 66.5q0 27 11 63z" />
    <glyph glyph-name="Uhungarumlaut" unicode="&#x170;" horiz-adv-x="765" 
d="M314 626l-100 -378q-11 -39 -11 -80q0 -72 43 -114.5t127 -42.5q97 0 155 50.5t88 166.5l89 336q18 69 2.5 91t-93.5 33l2 9h252l-2 -9q-77 -12 -99.5 -33t-41.5 -91l-93 -353q-29 -109 -94.5 -168.5t-193.5 -59.5q-110 0 -168 54t-58 138q0 39 10 73l102 380
q8 30 -10.5 43.5t-89.5 16.5l2 9h308l-2 -9q-71 -3 -93.5 -16.5t-30.5 -45.5zM445 768l96 129q29 39 42.5 52t30.5 13q14 0 23.5 -10t9.5 -23q0 -15 -15 -30t-60 -46l-119 -85h-8zM600 768l96 129q29 39 42.5 52t30.5 13q13 0 23 -10t10 -23q0 -15 -15 -30t-60 -46l-119 -85
h-8z" />
    <glyph glyph-name="uhungarumlaut" unicode="&#x171;" horiz-adv-x="541" 
d="M60 144l79 249q9 26 -5.5 38t-60.5 15v8l160 7l-97 -312q-9 -31 -9 -54q0 -56 66 -56q56 0 142 77l56 186l39 157h82l-109 -364q-8 -27 -8 -43q0 -24 19.5 -31.5t68.5 -2.5v-6q-44 -22 -96 -22q-67 0 -67 51q0 20 12 52l-2 3q-103 -106 -182 -106q-47 0 -73 24.5
t-26 66.5q0 27 11 63zM241 528l96 129q29 39 42.5 52t30.5 13q14 0 23.5 -10t9.5 -23q0 -15 -15 -30t-60 -46l-119 -85h-8zM396 528l96 129q29 39 42.5 52t30.5 13q13 0 23 -10t10 -23q0 -15 -15 -30t-60 -46l-119 -85h-8z" />
    <glyph glyph-name="Uogonek" unicode="&#x172;" horiz-adv-x="765" 
d="M314 626l-100 -378q-11 -39 -11 -80q0 -72 43 -114.5t127 -42.5q97 0 155 50.5t88 166.5l89 336q18 69 2.5 91t-93.5 33l2 9h252l-2 -9q-77 -12 -99.5 -33t-41.5 -91l-93 -353q-27 -102 -84.5 -160t-166.5 -66l-23 -15q-59 -37 -83 -66t-24 -65q0 -23 15 -39.5t41 -16.5
q23 0 60 16l4 -8q-54 -34 -101 -34q-36 0 -59 19.5t-23 52.5q0 44 36 76t121 75l6 3h-7q-110 0 -168 54t-58 138q0 39 10 73l102 380q8 30 -10.5 43.5t-89.5 16.5l2 9h308l-2 -9q-71 -3 -93.5 -16.5t-30.5 -45.5z" />
    <glyph glyph-name="uogonek" unicode="&#x173;" horiz-adv-x="541" 
d="M318 -243q-36 0 -58.5 19.5t-22.5 52.5q0 43 36 76.5t113 70.5l36 17q-16 -3 -35 -3q-67 0 -67 51q0 20 12 52l-2 3q-103 -106 -182 -106q-47 0 -73 24.5t-26 66.5q0 27 11 63l79 249q9 26 -5.5 38t-60.5 15v8l160 7l-97 -312q-9 -31 -9 -54q0 -56 66 -56q56 0 142 77
l56 186l39 157h82l-109 -364q-8 -27 -8 -43q0 -24 19.5 -31.5t68.5 -2.5v-6q-19 -8 -64 -33q-65 -37 -92 -70t-27 -70q0 -23 14.5 -39.5t40.5 -16.5q23 0 60 16l4 -8q-54 -34 -101 -34z" />
    <glyph glyph-name="Wcircumflex" unicode="&#x174;" horiz-adv-x="1001" 
d="M491 768l173 182h9l73 -182h-12l-86 98l-142 -98h-15zM272 601l54 -499h3l242 397l-10 94q-7 53 -23.5 69.5t-74.5 25.5l2 9h275l-2 -9q-68 -3 -83 -18.5t-10 -68.5l47 -496h3l237 423q51 89 42 121t-90 39l2 9h240l-2 -9q-57 -8 -87.5 -38.5t-79.5 -116.5l-312 -551h-14
l-57 490l-296 -490h-14l-76 611q-7 53 -23.5 69.5t-72.5 25.5l2 9h266l-2 -9q-64 -3 -78 -18.5t-8 -68.5z" />
    <glyph glyph-name="wcircumflex" unicode="&#x175;" horiz-adv-x="688" 
d="M273 528l173 182h9l73 -182h-12l-86 98l-142 -98h-15zM425 -12l-39 5l-7 154l-15 122l-188 -280l-41 4l-6 154l-30 248q-3 29 -16 37.5t-56 7.5v8l140 14l34 -319l2 -75h7l59 89q69 108 91 153l-18 145l75 7l34 -319l4 -78h6l58 82q88 120 115 208q-52 20 -52 62
q0 22 13.5 36t34.5 14q25 0 39.5 -17t14.5 -42q0 -35 -21.5 -78.5t-87.5 -133.5z" />
    <glyph glyph-name="Ycircumflex" unicode="&#x176;" horiz-adv-x="672" 
d="M621 564l-218 -252l-65 -243q-8 -31 12.5 -44.5t96.5 -15.5l-2 -9h-332l2 9q74 3 102 16t36 43l65 243l-102 295q-16 48 -34.5 62t-71.5 21l2 8h306l-2 -9q-64 -2 -91.5 -9.5t-31 -24t7.5 -44.5l94 -280l207 242q52 59 43 84.5t-86 31.5l2 9h250l-2 -9q-62 -6 -91.5 -27
t-96.5 -97zM367 768l173 182h9l73 -182h-12l-86 98l-142 -98h-15z" />
    <glyph glyph-name="ycircumflex" unicode="&#x177;" horiz-adv-x="443" 
d="M161 462l30 -185l36 -237h2l69 113q68 109 88 201q-56 19 -56 63q0 22 13.5 36t34.5 14q25 0 39 -18t14 -45q0 -39 -28.5 -100t-118.5 -208q-76 -124 -133.5 -192.5t-89 -86t-64.5 -17.5t-50.5 17t-17.5 44q0 22 14.5 37.5t35.5 15.5t34.5 -14t13.5 -38q0 -22 -6 -32
q82 22 151 130l-38 220l-37 215q-5 29 -18.5 37.5t-56.5 7.5v8zM149 528l173 182h9l73 -182h-12l-86 98l-142 -98h-15z" />
    <glyph glyph-name="Ydieresis" unicode="&#x178;" horiz-adv-x="672" 
d="M621 564l-218 -252l-65 -243q-8 -31 12.5 -44.5t96.5 -15.5l-2 -9h-332l2 9q74 3 102 16t36 43l65 243l-102 295q-16 48 -34.5 62t-71.5 21l2 8h306l-2 -9q-64 -2 -91.5 -9.5t-31 -24t7.5 -44.5l94 -280l207 242q52 59 43 84.5t-86 31.5l2 9h250l-2 -9q-62 -6 -91.5 -27
t-96.5 -97zM583 773q-16 0 -27.5 11t-11.5 31q0 28 18 50.5t42 22.5q16 0 27 -10.5t11 -30.5q0 -28 -17.5 -51t-41.5 -23zM399 773q-17 0 -28.5 11t-11.5 31q0 28 18 50.5t42 22.5q16 0 27 -10.5t11 -30.5q0 -28 -17.5 -51t-40.5 -23z" />
    <glyph glyph-name="Zacute" unicode="&#x179;" horiz-adv-x="639" 
d="M422 768l96 129q29 39 42.5 52t30.5 13q13 0 23 -10t10 -23q0 -15 -15 -30t-60 -46l-119 -85h-8zM604 682h-218q-56 0 -104 -35.5t-136 -153.5l-11 2l71 202h508l1 -9l-629 -672h244q58 0 103 35t139 161l9 -1l-70 -211h-537l-1 10z" />
    <glyph glyph-name="zacute" unicode="&#x17a;" horiz-adv-x="451" 
d="M246 528l96 129q29 39 42.5 52t30.5 13q13 0 23 -10t10 -23q0 -15 -15 -30t-60 -46l-119 -85h-8zM4 -16l-14 19l395 394l-1 2l-183 -2q-51 -1 -68 -15t-50 -80l-8 2l39 152h333l7 -14l-384 -388l1 -2q36 9 78 9q18 0 66 -3.5t61 -3.5q46 0 67 19.5t34 78.5l9 -2
q-14 -102 -40.5 -131.5t-95.5 -29.5q-30 0 -73 6.5t-68 6.5q-62 0 -105 -18z" />
    <glyph glyph-name="Zdotaccent" unicode="&#x17b;" horiz-adv-x="639" 
d="M604 682h-218q-56 0 -104 -35.5t-136 -153.5l-11 2l71 202h508l1 -9l-629 -672h244q58 0 103 35t139 161l9 -1l-70 -211h-537l-1 10zM457 773q-17 0 -28 11t-11 32q0 28 17.5 50.5t41.5 22.5q17 0 28 -10.5t11 -30.5q0 -29 -17.5 -52t-41.5 -23z" />
    <glyph glyph-name="zdotaccent" unicode="&#x17c;" horiz-adv-x="451" 
d="M4 -16l-14 19l395 394l-1 2l-183 -2q-51 -1 -68 -15t-50 -80l-8 2l39 152h333l7 -14l-384 -388l1 -2q36 9 78 9q18 0 66 -3.5t61 -3.5q46 0 67 19.5t34 78.5l9 -2q-14 -102 -40.5 -131.5t-95.5 -29.5q-30 0 -73 6.5t-68 6.5q-62 0 -105 -18zM285 533q-17 0 -28 11t-11 32
q0 28 17.5 50.5t41.5 22.5q17 0 28 -10.5t11 -30.5q0 -29 -17.5 -52t-41.5 -23z" />
    <glyph glyph-name="Zcaron" unicode="&#x17d;" horiz-adv-x="639" 
d="M440 768l-72 182h11l87 -98l141 98h15l-173 -182h-9zM604 682h-218q-56 0 -104 -35.5t-136 -153.5l-11 2l71 202h508l1 -9l-629 -672h244q58 0 103 35t139 161l9 -1l-70 -211h-537l-1 10z" />
    <glyph glyph-name="zcaron" unicode="&#x17e;" horiz-adv-x="451" 
d="M274 528l-72 182h11l87 -98l141 98h15l-173 -182h-9zM4 -16l-14 19l395 394l-1 2l-183 -2q-51 -1 -68 -15t-50 -80l-8 2l39 152h333l7 -14l-384 -388l1 -2q36 9 78 9q18 0 66 -3.5t61 -3.5q46 0 67 19.5t34 78.5l9 -2q-14 -102 -40.5 -131.5t-95.5 -29.5q-30 0 -73 6.5
t-68 6.5q-62 0 -105 -18z" />
    <glyph glyph-name="Aringacute" unicode="&#x1fa;" horiz-adv-x="671" 
d="M214 277l-73 -115q-54 -86 -48 -115t77 -38l-2 -9h-237l3 9q62 9 96 39.5t90 118.5l336 525q-34 4 -53.5 28.5t-19.5 62.5q0 53 39 92.5t93 39.5q41 0 64.5 -25t23.5 -67q0 -50 -34.5 -88.5t-84.5 -42.5l80 -583q9 -61 23.5 -77t71.5 -23l-3 -9h-276l3 9q71 4 87.5 20
t8.5 74l-21 174h-244zM456 293l-37 305h-3l-192 -305h232zM471 700q39 0 62.5 44.5t23.5 96.5q0 65 -42 65q-39 0 -62.5 -44.5t-23.5 -97.5q0 -64 42 -64zM503 936l96 129q29 39 42.5 52t30.5 13q14 0 23.5 -10t9.5 -23q0 -15 -15 -30t-60 -46l-119 -85h-8z" />
    <glyph glyph-name="aringacute" unicode="&#x1fb;" horiz-adv-x="519" 
d="M447 304l-56 -205q-9 -34 -9 -49q0 -42 88 -32v-6q-50 -22 -94 -22q-33 0 -50 9.5t-17 37.5q0 24 10 55l-2 1q-35 -54 -70.5 -78.5t-80.5 -24.5q-61 0 -96 41t-35 115q0 111 83 215t185 104q71 0 101 -64l20 54l77 11zM307 451q-51 0 -96.5 -54t-70 -123.5t-24.5 -124.5
q0 -56 21.5 -91.5t60.5 -35.5q36 0 69.5 33.5t56.5 76.5l68 232q-8 43 -31.5 65t-53.5 22zM360 533q-42 0 -66.5 24t-24.5 61q0 49 36 84t89 35q42 0 67 -24.5t25 -60.5q0 -49 -36.5 -84t-89.5 -35zM359 545q36 0 59.5 39t23.5 82q0 28 -12 43.5t-34 15.5q-36 0 -59.5 -39
t-23.5 -82q0 -28 12 -43.5t34 -15.5zM385 788l96 129q29 39 42.5 52t30.5 13q14 0 23.5 -10t9.5 -23q0 -15 -15 -30t-60 -46l-119 -85h-8z" />
    <glyph glyph-name="AEacute" unicode="&#x1fc;" horiz-adv-x="1021" 
d="M734 768l96 129q29 39 42.5 52t30.5 13q13 0 23 -10t10 -23q0 -15 -15 -30t-60 -46l-119 -85h-8zM806 232h-10q-4 87 -19 108t-73 21h-76l-92 -345h171q96 0 137.5 34t115.5 153q5 7 7 11h11l-64 -214h-584l2 9q73 3 99.5 16t34.5 43l58 218h-242l-125 -142
q-64 -73 -64 -100q0 -29 68 -35l-3 -9h-231l2 9q58 8 97 34.5t114 111.5l409 460q19 22 19 36q0 30 -97 37l2 9h592l-49 -198h-11q-6 46 -10 68t-11.5 47.5t-15.5 35t-23.5 19t-35.5 11.5t-51 2h-144l-81 -306h75q59 0 84.5 19.5t70.5 99.5h11zM528 302l98 366h-8l-322 -366
h232z" />
    <glyph glyph-name="aeacute" unicode="&#x1fd;" horiz-adv-x="720" 
d="M594 465q58 0 90.5 -27t32.5 -71q0 -63 -78.5 -105t-233.5 -41q-5 -33 -5 -58q0 -75 26 -110.5t83 -35.5q78 0 145 85l10 -9q-82 -103 -188 -103q-61 0 -105 36t-47 111h-2q-24 -68 -76 -107.5t-109 -39.5q-56 0 -87 27t-31 74q0 69 87.5 109t228.5 39q8 37 8 88
q0 122 -92 122q-71 0 -99 -44q35 -11 35 -45q0 -22 -12.5 -34.5t-32.5 -12.5q-22 0 -35 14t-13 35q0 41 48 71.5t114 30.5q123 0 142 -98h2q79 99 194 99zM169 24q60 0 107 60.5t55 142.5q-237 -6 -237 -124q0 -37 19.5 -58t55.5 -21zM590 450q-60 0 -111.5 -65t-70.5 -151
q238 3 238 154q0 62 -56 62zM432 528l96 129q29 39 42.5 52t30.5 13q13 0 23 -10t10 -23q0 -15 -15 -30t-60 -46l-119 -85h-8z" />
    <glyph glyph-name="Oslashacute" unicode="&#x1fe;" horiz-adv-x="745" 
d="M49 -36h-23l103 109q-67 81 -67 197q0 82 32 162t86.5 142.5t132.5 101t164 38.5q112 0 187 -78l91 97h23l-103 -109q68 -79 68 -197q0 -110 -54 -212t-150.5 -167t-210.5 -65q-112 0 -187 78zM331 -4q67 0 128 43.5t102 112t65 152t24 164.5q0 65 -16 113l-458 -483
q41 -102 155 -102zM155 230q0 -69 15 -114l458 483q-41 102 -153 102q-90 0 -165.5 -73.5t-115 -181t-39.5 -216.5zM462 768l96 129q29 39 42.5 52t30.5 13q13 0 23 -10t10 -23q0 -15 -15 -30t-60 -46l-119 -85h-8z" />
    <glyph glyph-name="oslashacute" unicode="&#x1ff;" horiz-adv-x="485" 
d="M17 -23l59 68q-45 51 -45 132q0 111 73 199.5t185 88.5q66 0 111 -45l50 58h19l-59 -68q44 -54 44 -132q0 -110 -73 -199t-185 -89q-66 0 -111 45l-50 -58h-18zM106 139q0 -26 5 -53l259 300q-20 66 -83 66q-42 0 -78 -33.5t-57.5 -83t-33.5 -101.5t-12 -95zM199 4
q55 0 98.5 57t62.5 126.5t19 128.5q0 26 -5 53l-259 -300q19 -65 84 -65zM274 528l96 129q29 39 42.5 52t30.5 13q13 0 23 -10t10 -23q0 -15 -15 -30t-60 -46l-119 -85h-8z" />
    <glyph glyph-name="Scommaaccent" unicode="&#x218;" horiz-adv-x="543" 
d="M113 -256l-3 9q90 42 108 93l-3 2q-24 -3 -38 9.5t-14 33.5q0 20 14.5 34.5t35.5 14.5q20 0 35 -16t15 -39q0 -79 -150 -141zM-6 -18l58 229h8q28 -124 75 -167.5t122 -43.5q78 0 122 45.5t44 114.5q0 48 -30.5 88t-117.5 85q-77 39 -109.5 77t-32.5 96q0 84 68 144.5
t174 60.5q84 0 160 -47l55 53h10l-53 -211h-10q-24 114 -64.5 152.5t-107.5 38.5t-110 -41.5t-43 -106.5q0 -51 32.5 -83t109.5 -74q76 -42 111 -82.5t35 -101.5q0 -90 -64 -156t-189 -66q-98 0 -186 52l-56 -56h-11z" />
    <glyph glyph-name="scommaaccent" unicode="&#x219;" horiz-adv-x="388" 
d="M29 -256l-3 9q90 42 108 93l-3 2q-24 -3 -38 9.5t-14 33.5q0 20 14.5 34.5t35.5 14.5q20 0 35 -16t15 -39q0 -79 -150 -141zM151 -10q-57 0 -100.5 22.5t-43.5 61.5q0 23 14 39t37 16q20 0 32 -13t12 -34q0 -30 -30 -49q6 -10 32.5 -19.5t55.5 -9.5q50 0 80.5 27.5
t30.5 70.5q0 18 -6.5 32.5t-24 28t-27.5 20t-36 21.5q-32 19 -48.5 30.5t-33.5 36t-17 53.5q0 59 45 100t123 41q54 0 92 -23.5t38 -58.5q0 -22 -13 -36.5t-35 -14.5q-20 0 -32.5 13t-12.5 31q0 30 31 50q-20 26 -73 26q-45 0 -72 -26.5t-27 -65.5q0 -18 6.5 -32.5
t23.5 -28.5t26 -20t35 -22q32 -19 49 -31.5t33.5 -37.5t16.5 -54q0 -57 -46.5 -100.5t-134.5 -43.5z" />
    <glyph glyph-name="schwa" unicode="&#x259;" 
d="M3 88q0 63 78 104.5t233 41.5q6 28 6 58q0 75 -26 110.5t-83 35.5q-78 0 -145 -85l-10 9q82 103 188 103q66 0 111 -41t45 -127q0 -116 -81 -211.5t-193 -95.5q-58 0 -90.5 27t-32.5 71zM130 5q60 0 111.5 65t70.5 151q-238 -3 -238 -154q0 -62 56 -62z" />
    <glyph glyph-name="circumflex" unicode="&#x2c6;" horiz-adv-x="299" 
d="M112 528l173 182h9l73 -182h-12l-86 98l-142 -98h-15z" />
    <glyph glyph-name="caron" unicode="&#x2c7;" horiz-adv-x="299" 
d="M219 528l-72 182h11l87 -98l141 98h15l-173 -182h-9z" />
    <glyph glyph-name="breve" unicode="&#x2d8;" horiz-adv-x="336" 
d="M246 533q-56 0 -82.5 40t-15.5 109h12q5 -93 100 -93q50 0 82 23t58 70h14q-50 -149 -168 -149z" />
    <glyph glyph-name="dotaccent" unicode="&#x2d9;" horiz-adv-x="192" 
d="M188 533q-17 0 -28 11t-11 32q0 28 17.5 50.5t41.5 22.5q17 0 28 -10.5t11 -30.5q0 -29 -17.5 -52t-41.5 -23z" />
    <glyph glyph-name="ring" unicode="&#x2da;" horiz-adv-x="258" 
d="M226 533q-42 0 -66.5 24t-24.5 61q0 49 36 84t89 35q42 0 67 -24.5t25 -60.5q0 -49 -36.5 -84t-89.5 -35zM225 545q36 0 59.5 39t23.5 82q0 28 -12 43.5t-34 15.5q-36 0 -59.5 -39t-23.5 -82q0 -28 12 -43.5t34 -15.5z" />
    <glyph glyph-name="ogonek" unicode="&#x2db;" horiz-adv-x="269" 
d="M2 -243q-36 0 -59 19.5t-23 52.5q0 44 36 76t121 75l56 28h19l-62 -38q-59 -37 -83 -66t-24 -65q0 -23 15 -39.5t41 -16.5q23 0 60 16l4 -8q-54 -34 -101 -34z" />
    <glyph glyph-name="tilde" unicode="&#x2dc;" horiz-adv-x="331" 
d="M111 524q28 114 94 114q21 0 70.5 -24.5t67.5 -24.5q19 0 32.5 13.5t27.5 47.5h10q-28 -115 -93 -115q-22 0 -71.5 25t-66.5 25q-19 0 -33 -13.5t-27 -47.5h-11z" />
    <glyph glyph-name="hungarumlaut" unicode="&#x2dd;" horiz-adv-x="415" 
d="M128 528l96 129q29 39 42.5 52t30.5 13q13 0 23 -10t10 -23q0 -15 -15 -30t-60 -46l-119 -85h-8zM283 528l96 129q29 39 42.5 52t30.5 13q14 0 23.5 -10t9.5 -23q0 -15 -15 -30t-60 -46l-119 -85h-8z" />
    <glyph glyph-name="commaaccent" unicode="&#x326;" horiz-adv-x="218" 
d="M-85 -256l-3 9q90 42 108 93l-3 2q-24 -3 -38 9.5t-14 33.5q0 20 14.5 34.5t35.5 14.5q20 0 35 -16t15 -39q0 -79 -150 -141z" />
    <glyph glyph-name="Wgrave" unicode="&#x1e80;" horiz-adv-x="1001" 
d="M272 601l54 -499h3l242 397l-10 94q-7 53 -23.5 69.5t-74.5 25.5l2 9h275l-2 -9q-68 -3 -83 -18.5t-10 -68.5l47 -496h3l237 423q51 89 42 121t-90 39l2 9h240l-2 -9q-57 -8 -87.5 -38.5t-79.5 -116.5l-312 -551h-14l-57 490l-296 -490h-14l-76 611q-7 53 -23.5 69.5
t-72.5 25.5l2 9h266l-2 -9q-64 -3 -78 -18.5t-8 -68.5zM619 768l-114 100q-40 36 -40 56q0 15 10.5 25.5t26.5 10.5t27 -13.5t28 -47.5l67 -131h-5z" />
    <glyph glyph-name="wgrave" unicode="&#x1e81;" horiz-adv-x="688" 
d="M425 -12l-39 5l-7 154l-15 122l-188 -280l-41 4l-6 154l-30 248q-3 29 -16 37.5t-56 7.5v8l140 14l34 -319l2 -75h7l59 89q69 108 91 153l-18 145l75 7l34 -319l4 -78h6l58 82q88 120 115 208q-52 20 -52 62q0 22 13.5 36t34.5 14q25 0 39.5 -17t14.5 -42
q0 -35 -21.5 -78.5t-87.5 -133.5zM416 528l-114 100q-40 36 -40 56q0 15 10.5 25.5t26.5 10.5t27 -13.5t28 -47.5l67 -131h-5z" />
    <glyph glyph-name="Wacute" unicode="&#x1e82;" horiz-adv-x="1001" 
d="M593 768l96 129q29 39 42.5 52t30.5 13q14 0 23.5 -10t9.5 -23q0 -15 -15 -30t-60 -46l-119 -85h-8zM272 601l54 -499h3l242 397l-10 94q-7 53 -23.5 69.5t-74.5 25.5l2 9h275l-2 -9q-68 -3 -83 -18.5t-10 -68.5l47 -496h3l237 423q51 89 42 121t-90 39l2 9h240l-2 -9
q-57 -8 -87.5 -38.5t-79.5 -116.5l-312 -551h-14l-57 490l-296 -490h-14l-76 611q-7 53 -23.5 69.5t-72.5 25.5l2 9h266l-2 -9q-64 -3 -78 -18.5t-8 -68.5z" />
    <glyph glyph-name="wacute" unicode="&#x1e83;" horiz-adv-x="688" 
d="M359 528l96 129q29 39 42.5 52t30.5 13q14 0 23.5 -10t9.5 -23q0 -15 -15 -30t-60 -46l-119 -85h-8zM425 -12l-39 5l-7 154l-15 122l-188 -280l-41 4l-6 154l-30 248q-3 29 -16 37.5t-56 7.5v8l140 14l34 -319l2 -75h7l59 89q69 108 91 153l-18 145l75 7l34 -319l4 -78h6
l58 82q88 120 115 208q-52 20 -52 62q0 22 13.5 36t34.5 14q25 0 39.5 -17t14.5 -42q0 -35 -21.5 -78.5t-87.5 -133.5z" />
    <glyph glyph-name="Wdieresis" unicode="&#x1e84;" horiz-adv-x="1001" 
d="M714 773q-16 0 -27.5 11t-11.5 31q0 28 18 50.5t42 22.5q16 0 27 -10.5t11 -30.5q0 -28 -17.5 -51t-41.5 -23zM530 773q-17 0 -28.5 11t-11.5 31q0 28 18 50.5t42 22.5q16 0 27 -10.5t11 -30.5q0 -28 -17.5 -51t-40.5 -23zM272 601l54 -499h3l242 397l-10 94
q-7 53 -23.5 69.5t-74.5 25.5l2 9h275l-2 -9q-68 -3 -83 -18.5t-10 -68.5l47 -496h3l237 423q51 89 42 121t-90 39l2 9h240l-2 -9q-57 -8 -87.5 -38.5t-79.5 -116.5l-312 -551h-14l-57 490l-296 -490h-14l-76 611q-7 53 -23.5 69.5t-72.5 25.5l2 9h266l-2 -9
q-64 -3 -78 -18.5t-8 -68.5z" />
    <glyph glyph-name="wdieresis" unicode="&#x1e85;" horiz-adv-x="688" 
d="M499 533q-16 0 -27.5 11t-11.5 31q0 28 18 50.5t42 22.5q16 0 27 -10.5t11 -30.5q0 -28 -17.5 -51t-41.5 -23zM315 533q-17 0 -28.5 11t-11.5 31q0 28 18 50.5t42 22.5q16 0 27 -10.5t11 -30.5q0 -28 -17.5 -51t-40.5 -23zM425 -12l-39 5l-7 154l-15 122l-188 -280l-41 4
l-6 154l-30 248q-3 29 -16 37.5t-56 7.5v8l140 14l34 -319l2 -75h7l59 89q69 108 91 153l-18 145l75 7l34 -319l4 -78h6l58 82q88 120 115 208q-52 20 -52 62q0 22 13.5 36t34.5 14q25 0 39.5 -17t14.5 -42q0 -35 -21.5 -78.5t-87.5 -133.5z" />
    <glyph glyph-name="Ygrave" unicode="&#x1ef2;" horiz-adv-x="672" 
d="M621 564l-218 -252l-65 -243q-8 -31 12.5 -44.5t96.5 -15.5l-2 -9h-332l2 9q74 3 102 16t36 43l65 243l-102 295q-16 48 -34.5 62t-71.5 21l2 8h306l-2 -9q-64 -2 -91.5 -9.5t-31 -24t7.5 -44.5l94 -280l207 242q52 59 43 84.5t-86 31.5l2 9h250l-2 -9q-62 -6 -91.5 -27
t-96.5 -97zM487 768l-114 100q-40 36 -40 56q0 15 10.5 25.5t26.5 10.5t27 -13.5t28 -47.5l67 -131h-5z" />
    <glyph glyph-name="ygrave" unicode="&#x1ef3;" horiz-adv-x="443" 
d="M161 462l30 -185l36 -237h2l69 113q68 109 88 201q-56 19 -56 63q0 22 13.5 36t34.5 14q25 0 39 -18t14 -45q0 -39 -28.5 -100t-118.5 -208q-76 -124 -133.5 -192.5t-89 -86t-64.5 -17.5t-50.5 17t-17.5 44q0 22 14.5 37.5t35.5 15.5t34.5 -14t13.5 -38q0 -22 -6 -32
q82 22 151 130l-38 220l-37 215q-5 29 -18.5 37.5t-56.5 7.5v8zM271 528l-114 100q-40 36 -40 56q0 15 10.5 25.5t26.5 10.5t27 -13.5t28 -47.5l67 -131h-5z" />
    <glyph glyph-name="enspace" unicode="&#x2002;" horiz-adv-x="500" 
 />
    <glyph glyph-name="emspace" unicode="&#x2003;" horiz-adv-x="1000" 
 />
    <glyph glyph-name="threeperemspace" unicode="&#x2004;" horiz-adv-x="333" 
 />
    <glyph glyph-name="fourperemspace" unicode="&#x2005;" horiz-adv-x="250" 
 />
    <glyph glyph-name="thinspace" unicode="&#x2009;" horiz-adv-x="133" 
 />
    <glyph glyph-name="hairspace" unicode="&#x200a;" horiz-adv-x="75" 
 />
    <glyph glyph-name="endash" unicode="&#x2013;" horiz-adv-x="540" 
d="M61 254l5 17h430l-5 -17h-430z" />
    <glyph glyph-name="emdash" unicode="&#x2014;" horiz-adv-x="790" 
d="M61 254l5 17h680l-5 -17h-680z" />
    <glyph glyph-name="quoteleft" unicode="&#x2018;" horiz-adv-x="211" 
d="M311 711l3 -9q-112 -50 -140 -116l4 -2q25 4 41 -10.5t16 -37.5t-16 -38.5t-39 -15.5t-39 18t-16 43q0 97 186 168z" />
    <glyph glyph-name="quoteright" unicode="&#x2019;" horiz-adv-x="213" 
d="M85 480l-4 9q114 50 140 116l-4 2q-25 -4 -41 10.5t-16 37.5q0 22 16 38t39 16t39.5 -18t16.5 -43q0 -97 -186 -168z" />
    <glyph glyph-name="quotesinglbase" unicode="&#x201a;" horiz-adv-x="219" 
d="M-70 -137l-3 9q114 50 140 116l-4 2q-25 -4 -41 11t-16 38q0 22 16.5 38t38.5 16q23 0 39.5 -18t16.5 -44q0 -97 -187 -168z" />
    <glyph glyph-name="quotedblleft" unicode="&#x201c;" horiz-adv-x="382" 
d="M482 711l4 -9q-114 -50 -140 -116l4 -2q25 4 41 -10.5t16 -37.5q0 -22 -16 -38t-39 -16t-39.5 18t-16.5 43q0 97 186 168zM311 711l3 -9q-112 -50 -140 -116l4 -2q25 4 41 -10.5t16 -37.5t-16 -38.5t-39 -15.5t-39 18t-16 43q0 97 186 168z" />
    <glyph glyph-name="quotedblright" unicode="&#x201d;" horiz-adv-x="384" 
d="M85 480l-4 9q114 50 140 116l-4 2q-25 -4 -41 10.5t-16 37.5q0 22 16 38t39 16t39.5 -18t16.5 -43q0 -97 -186 -168zM256 480l-3 9q112 50 140 116l-4 2q-25 -4 -41 10.5t-16 37.5t16 38.5t39 15.5t39 -18t16 -43q0 -97 -186 -168z" />
    <glyph glyph-name="quotedblbase" unicode="&#x201e;" horiz-adv-x="393" 
d="M102 -137l-3 9q112 50 140 116l-4 2q-25 -4 -41 11t-16 38q0 22 16 38t39 16t39 -18t16 -44q0 -97 -186 -168zM-70 -137l-3 9q114 50 140 116l-4 2q-25 -4 -41 11t-16 38q0 22 16.5 38t38.5 16q23 0 39.5 -18t16.5 -44q0 -97 -187 -168z" />
    <glyph glyph-name="dagger" unicode="&#x2020;" horiz-adv-x="550" 
d="M157 -108q69 305 76 439l49 54q22 23 22 52q0 17 -14.5 29.5t-36.5 12.5q-21 0 -63 -15t-55 -15q-45 0 -45 31q0 22 22.5 34t46.5 12q82 0 153 -63l4 3l15 110q13 101 19 124q12 45 46 45q16 0 26 -11t10 -29q0 -31 -55 -142l-50 -100l3 -3q34 21 84 35.5t84 14.5
q30 0 47.5 -10t17.5 -27q0 -18 -16.5 -29t-38.5 -11q-20 0 -57 18t-64 18q-33 0 -51.5 -19t-18.5 -45q0 -9 3 -30l11 -59q-66 -122 -165 -426z" />
    <glyph glyph-name="daggerdbl" unicode="&#x2021;" horiz-adv-x="586" 
d="M360 305l-48 -53q-23 -26 -23 -53q0 -17 15 -29.5t36 -12.5t63 15.5t55 15.5q45 0 45 -32q0 -21 -22.5 -33t-46.5 -12q-83 0 -153 62l-4 -3l-15 -110q-13 -103 -19 -124q-12 -45 -46 -45q-16 0 -26 11t-10 29q0 31 55 142l50 100l-3 3q-34 -21 -84 -35.5t-84 -14.5
q-30 0 -47.5 10.5t-17.5 27.5t16.5 28.5t38.5 11.5q20 0 57 -18t64 -18q33 0 51.5 18.5t18.5 44.5q0 19 -3 30l-12 70l48 53q23 26 23 53q0 17 -14.5 29.5t-36.5 12.5q-21 0 -63 -15t-55 -15q-45 0 -45 31q0 22 22.5 34t46.5 12q82 0 153 -63l4 3l15 110q13 101 19 124
q12 45 46 45q16 0 26 -11t10 -29q0 -31 -55 -142l-50 -100l3 -3q34 21 84 35.5t84 14.5q30 0 47.5 -10t17.5 -27q0 -18 -16.5 -29t-38.5 -11q-20 0 -57 18t-64 18q-33 0 -51.5 -19t-18.5 -45q0 -19 3 -30z" />
    <glyph glyph-name="bullet" unicode="&#x2022;" horiz-adv-x="452" 
d="M251 210q-50 0 -85 34.5t-35 83.5q0 50 35.5 85t84.5 35t84 -35.5t35 -84.5t-35 -83.5t-84 -34.5z" />
    <glyph glyph-name="ellipsis" unicode="&#x2026;" horiz-adv-x="616" 
d="M60 -16q-23 0 -39 16t-16 38t16 38t39 16t39 -15.5t16 -37.5q0 -23 -16 -39t-39 -16zM263 -16q-23 0 -39 16t-16 38t16 38t39 16t39 -15.5t16 -37.5q0 -23 -16 -39t-39 -16zM466 -16q-23 0 -39 16t-16 38t16 38t39 16t39 -15.5t16 -37.5q0 -23 -16 -39t-39 -16z" />
    <glyph glyph-name="guilsinglleft" unicode="&#x2039;" horiz-adv-x="296" 
d="M179 28l-126 178q-15 22 -15 28t25 24l218 162l8 -9l-187 -184l87 -193z" />
    <glyph glyph-name="guilsinglright" unicode="&#x203a;" horiz-adv-x="296" 
d="M23 29l-7 9l186 184l-87 193l11 6l126 -178q15 -22 15 -28t-25 -24z" />
    <glyph glyph-name="fraction" unicode="&#x2044;" horiz-adv-x="606" 
d="M-29 -32l342 357l335 352h24l-339 -356l-338 -353h-24z" />
    <glyph glyph-name="Euro" unicode="&#x20ac;" horiz-adv-x="652" 
d="M446 268h-224q-1 -9 -1 -26q0 -102 47 -155.5t126 -53.5q102 0 201 119l8 -7q-118 -162 -255 -162q-104 0 -162.5 65.5t-58.5 177.5q0 28 2 42h-94l5 17h91q7 52 22 96h-83l6 16h83q46 121 142.5 199.5t214.5 78.5q72 0 115.5 -35.5t43.5 -85.5q0 -33 -18 -53.5
t-45 -20.5q-23 0 -38 15t-15 38t17.5 41.5t45.5 24.5q-5 23 -32 43t-74 20q-94 0 -165.5 -76t-105.5 -189h242l-6 -16h-241q-13 -50 -17 -96h228z" />
    <glyph glyph-name="published" unicode="&#x2117;" horiz-adv-x="839" 
d="M249 162l2 8q40 1 52.5 5t15.5 16l88 331q2 8 -1 12.5t-16 7t-40 3.5l2 8h142q72 0 109.5 -27t37.5 -71q0 -54 -48 -91t-133 -37h-46l-35 -134q-2 -7 2.5 -11.5t19 -7.5t42.5 -4l-2 -8h-192zM417 339h36q65 0 97 36.5t32 91.5q0 74 -84 74h-27zM409 -34q-151 0 -242.5 90
t-91.5 235q0 118 51.5 218t147.5 161t217 61q151 0 242.5 -90t91.5 -235q0 -118 -51.5 -218t-147.5 -161t-217 -61zM410 -20q116 0 208.5 59.5t141 156t48.5 210.5q0 139 -87 225t-231 86q-175 0 -286.5 -125t-111.5 -300q0 -140 86.5 -226t231.5 -86z" />
    <glyph glyph-name="servicemark" unicode="&#x2120;" horiz-adv-x="545" 
d="M115 471l21 77h6q10 -36 25 -51t41 -15q23 0 38 10.5t15 31.5q0 15 -9.5 25t-37.5 24q-29 13 -42.5 26t-13.5 34q0 31 24 50t59 19q30 0 56 -14l18 16h7l-19 -69h-6q-10 32 -21.5 44.5t-36.5 12.5q-21 0 -34.5 -11t-13.5 -30q0 -15 12 -25.5t42 -24.5q47 -23 47 -57
q0 -29 -22 -50.5t-63 -21.5q-35 0 -68 17l-18 -18h-6zM299 484q23 2 32.5 11.5t15.5 33.5l35 131q8 29 -28 30l2 7h81l18 -162h3l104 162h83l-2 -7q-22 -2 -30 -5t-10 -11l-47 -174q-2 -8 4.5 -11t27.5 -4l-2 -8h-103l2 8q30 1 34 15l46 171h-6l-124 -195h-8l-25 195h-5
l-37 -142q-7 -23 -2.5 -32.5t25.5 -12.5l-2 -7h-84z" />
    <glyph glyph-name="trademark" unicode="&#x2122;" horiz-adv-x="588" 
d="M334 477l2 7q23 2 32.5 11.5t15.5 33.5l35 131q8 29 -28 30l2 7h81l18 -162h3l104 162h83l-2 -7q-22 -2 -30 -5t-10 -11l-47 -174q-2 -8 4.5 -11t27.5 -4l-2 -8h-103l2 8q30 1 34 15l46 171h-6l-124 -195h-8l-25 195h-5l-37 -142q-7 -23 -2.5 -32.5t25.5 -12.5l-2 -7h-84
zM155 477l2 8q38 0 42 15l50 188h-10q-41 0 -79 -65h-8l23 74h191l-17 -74h-7q-3 35 -13 50t-33 15h-10l-50 -188q-2 -8 5 -11.5t29 -3.5l-2 -8h-113z" />
    <glyph glyph-name="minus" unicode="&#x2212;" horiz-adv-x="536" 
d="M506 317h-428l4 17h428z" />
    <glyph glyph-name="registered.alt" horiz-adv-x="839" 
d="M409 -34q-151 0 -242.5 90t-91.5 235q0 118 51.5 218t147.5 161t217 61q151 0 242.5 -90t91.5 -235q0 -118 -51.5 -218t-147.5 -161t-217 -61zM410 -20q116 0 208.5 59.5t141 156t48.5 210.5q0 139 -87 225t-231 86q-175 0 -286.5 -125t-111.5 -300q0 -140 86.5 -226
t231.5 -86zM409 367h31q57 0 91 28t34 82q0 33 -17.5 48.5t-58.5 15.5h-35zM405 355l-43 -162q-2 -8 0 -12t14.5 -7t40.5 -4l-2 -8h-182l2 8q40 1 52.5 5t15.5 16l88 331q2 8 -1 12.5t-16 7t-40 3.5l2 8h151q135 0 135 -83q0 -41 -32.5 -69.5t-93.5 -38.5v-3q43 -4 59.5 -24
t15.5 -67l-2 -47q-1 -30 8 -42t40 -12l-2 -8q-14 -2 -27 -2q-51 0 -65.5 13.5t-9.5 56.5l5 44q5 41 -10.5 62.5t-67.5 21.5h-35z" />
    <glyph glyph-name="percent.alt" horiz-adv-x="847" 
d="M308 674q55 0 91.5 -35t36.5 -100q0 -87 -62 -156.5t-143 -69.5q-54 0 -91 35.5t-37 100.5q0 86 62 155.5t143 69.5zM82 -9l365 350l335 328h33l-363 -347l-337 -331h-33zM231 327q43 0 77 44t49.5 97.5t15.5 98.5q0 94 -64 94q-44 0 -78 -44t-49 -98t-15 -99
q0 -93 64 -93zM665 347q55 0 91.5 -35t36.5 -100q0 -87 -62 -156.5t-143 -69.5q-54 0 -91 35.5t-37 100.5q0 86 62 155.5t143 69.5zM588 -1q33 0 61 26t45 64.5t26.5 78.5t9.5 72q0 94 -64 94q-44 0 -78 -44t-49 -98t-15 -99q0 -94 64 -94z" />
    <glyph glyph-name="NUL" horiz-adv-x="0" 
 />
    <glyph glyph-name="hfjslug" horiz-adv-x="694" 
d="M644 -200h-208l-8 14h-163l-8 -14h-207v303q14 0 23 9.5t9 22.5t-9.5 22.5t-22.5 9.5v554h100l30 79h334l29 -79h101v-921zM400 563v-172h15v78h38v14h-38v66h43v14h-58zM184 563v-172h15v79h47v-79h15v172h-15v-79h-47v79h-15zM460 394q10 -4 21 -4q31 0 31 36v137h-16
v-137q0 -22 -16 -22q-8 0 -20 5v-15zM371 465l-13 3q-4 -18 -8 -30h-1l-16 31q23 21 23 42q0 12 -7 21.5t-20 9.5q-12 0 -20 -9.5t-8 -21.5q0 -13 14 -39q-23 -18 -23 -47q0 -16 8 -26.5t21 -10.5q19 0 29 24h1l12 -24l12 6l-17 32q6 14 13 39zM523 323v-46h8v12l8 8l15 -20
h10l-20 26l18 20h-10l-20 -24h-1v24h-8zM488 292l10 -15h9l-12 17q10 4 10 14q0 15 -17 15h-20v-46h8v15h12zM426 276q10 0 17 7t7 17q0 9 -7 16.5t-17 7.5t-17 -7.5t-7 -16.5q0 -10 7 -17t17 -7zM370 301l-13 22h-9l18 -29v-17h8v17l18 29h-9zM193 323v-46h34v7h-26v13h23
v7h-23v12h26v7h-34zM132 323v-46h8v32l25 -32h7v46h-8v-32l-25 32h-7zM241 323l14 -47h8l11 34h1l11 -34h8l14 47h-8l-10 -35h-1l-11 35h-7l-11 -35h-1l-10 35h-8zM327 479q-12 22 -12 32q0 19 14 19q13 0 13 -19q0 -15 -15 -32zM342 423q-8 -21 -20 -21q-16 0 -16 25
q0 19 16 35zM487 299h-11v17h11q10 0 10 -8q0 -9 -10 -9zM426 283q-16 0 -16 17q0 6 4.5 11.5t11.5 5.5t11.5 -5.5t4.5 -11.5q0 -17 -16 -17z" />
    <glyph glyph-name="i.dot" horiz-adv-x="281" 
d="M198 617q0 28 18 50.5t42 22.5q17 0 27.5 -10.5t10.5 -30.5q0 -29 -17.5 -52t-41.5 -23q-16 0 -27.5 11t-11.5 32zM224 21v-6q-60 -24 -106 -24q-70 0 -70 60q0 18 9 48l92 296q7 24 -12 35.5t-68 14.5v9l177 7l-114 -364q-9 -32 -9 -43q0 -24 23 -31t78 -2z" />
    <glyph glyph-name="caron.alt" horiz-adv-x="133" 
d="M116 533l42 154q10 38 20 52.5t28 14.5q15 0 24 -9.5t9 -22.5q0 -19 -25 -56l-90 -133h-8z" />
    </font>
</defs>
</svg>
